{"glyphs":{"0":{"ha":806,"x_min":58,"x_max":747,"o":"m 747 486 q 720 265 747 358 q 645 110 692 172 q 536 20 599 49 q 403 -10 473 -10 q 270 20 333 -10 q 160 110 207 49 q 86 265 113 172 q 58 486 58 358 q 86 707 58 614 q 160 862 113 801 q 270 953 207 924 q 403 983 333 983 q 536 953 473 983 q 645 862 599 924 q 720 707 692 801 q 747 486 747 614 m 729 486 q 703 702 729 611 q 633 852 677 793 q 529 941 588 912 q 403 969 469 969 q 276 941 336 969 q 172 852 217 912 q 101 702 127 793 q 75 486 75 611 q 101 270 75 361 q 172 120 127 179 q 276 33 217 61 q 403 4 336 4 q 529 33 469 4 q 633 120 588 61 q 703 270 677 179 q 729 486 729 361 z "},"1":{"ha":806,"x_min":166,"x_max":680,"o":"m 680 14 l 680 0 l 197 0 l 197 14 l 433 14 l 433 914 q 433 934 433 924 q 435 953 434 944 l 184 726 q 170 726 177 719 l 166 732 l 440 978 l 449 978 l 449 14 l 680 14 z "},"2":{"ha":806,"x_min":93,"x_max":701,"o":"m 694 15 q 701 8 701 15 l 701 0 l 93 0 l 93 7 q 95 13 93 10 q 99 17 97 15 l 449 372 q 529 458 491 416 q 596 542 567 499 q 642 631 625 585 q 658 729 658 677 q 637 838 658 792 q 580 913 615 883 q 499 956 544 942 q 407 969 454 969 q 307 953 353 969 q 227 906 262 936 q 170 834 192 876 q 139 742 147 792 q 128 731 137 731 l 121 731 q 152 836 128 789 q 214 915 176 883 q 300 966 251 948 q 407 983 349 983 q 505 969 457 983 q 591 923 553 954 q 652 844 628 892 q 675 729 675 797 q 657 626 675 674 q 610 534 640 578 q 541 448 580 490 q 458 363 501 406 l 115 13 q 149 15 130 14 q 192 15 168 15 l 694 15 z "},"3":{"ha":806,"x_min":91,"x_max":701,"o":"m 124 731 q 156 836 132 789 q 217 915 180 883 q 304 966 255 948 q 410 983 353 983 q 508 969 460 983 q 592 926 555 956 q 651 851 628 897 q 673 740 673 805 q 654 650 673 691 q 605 578 635 609 q 534 528 574 548 q 452 501 494 508 q 559 476 513 497 q 637 424 606 456 q 684 350 668 392 q 701 257 701 307 q 678 155 701 203 q 615 69 656 106 q 519 11 575 33 q 398 -11 464 -11 q 295 1 340 -11 q 219 32 251 13 q 165 76 187 51 q 128 128 143 101 q 105 183 114 156 q 91 233 97 210 l 94 235 q 101 236 96 236 q 110 225 107 235 q 116 202 112 220 q 132 159 121 184 q 162 107 142 135 q 213 57 181 80 q 290 18 244 33 q 398 3 335 3 q 523 27 469 3 q 612 88 576 51 q 666 170 648 125 q 684 257 684 215 q 667 350 684 307 q 612 425 649 393 q 516 475 574 457 q 376 494 458 494 l 376 506 q 492 525 440 508 q 580 574 544 543 q 636 647 617 605 q 656 740 656 689 q 636 844 656 801 q 581 915 615 888 q 502 956 547 943 q 410 969 458 969 q 310 953 356 969 q 230 906 265 936 q 172 834 195 876 q 141 742 149 792 q 131 731 139 731 l 124 731 z "},"4":{"ha":806,"x_min":39,"x_max":757,"o":"m 536 314 l 536 918 q 536 931 536 925 q 538 944 537 938 l 59 314 l 536 314 m 757 314 l 757 308 q 746 300 757 300 l 551 300 l 551 0 l 536 0 l 536 300 l 53 300 q 43 302 45 300 q 40 307 42 303 l 39 313 l 542 974 l 551 974 l 551 314 l 757 314 z "},"5":{"ha":806,"x_min":118,"x_max":678,"o":"m 183 572 q 283 592 236 585 q 372 598 330 598 q 505 577 447 598 q 600 518 562 556 q 658 427 639 480 q 678 310 678 374 q 651 174 678 233 q 581 73 625 114 q 477 10 536 32 q 354 -11 419 -11 q 282 -5 317 -11 q 217 11 247 1 q 162 34 187 22 q 118 61 137 47 l 122 67 q 131 71 124 71 q 152 61 135 71 q 197 38 169 51 q 264 16 225 26 q 354 6 303 6 q 472 25 416 6 q 569 84 527 45 q 635 180 610 122 q 660 311 660 237 q 643 420 660 370 q 590 507 626 470 q 500 564 555 543 q 372 584 446 584 q 282 577 330 584 q 178 557 233 571 l 165 563 l 239 972 l 656 972 l 656 965 q 653 959 656 962 q 646 957 650 957 l 253 957 l 183 572 z "},"6":{"ha":806,"x_min":112,"x_max":712,"o":"m 402 3 q 525 24 471 3 q 617 82 580 44 q 675 170 655 119 q 695 281 695 221 q 675 394 695 344 q 620 481 656 445 q 534 535 584 516 q 424 554 484 554 q 298 530 353 554 q 206 466 243 505 q 148 381 168 428 q 128 288 128 333 q 148 174 128 226 q 203 84 167 122 q 290 24 239 46 q 402 3 340 3 m 253 581 q 190 487 216 528 q 149 408 165 446 q 196 475 167 445 q 260 525 224 504 q 338 557 297 546 q 423 568 379 568 q 542 547 489 568 q 633 487 596 525 q 691 396 671 449 q 712 281 712 343 q 689 162 712 215 q 625 70 666 108 q 526 10 583 31 q 402 -11 469 -11 q 285 9 338 -11 q 193 69 232 30 q 133 167 155 109 q 112 299 112 224 q 141 422 112 349 q 240 588 171 494 l 522 968 q 526 972 524 972 q 530 972 528 972 l 544 972 l 253 581 z "},"7":{"ha":806,"x_min":98,"x_max":733,"o":"m 733 972 l 733 964 q 730 954 733 960 l 247 8 q 231 0 242 0 l 223 0 l 708 947 q 710 952 709 950 q 714 957 712 955 l 106 957 q 98 965 98 957 l 98 972 l 733 972 z "},"8":{"ha":806,"x_min":97,"x_max":708,"o":"m 403 3 q 519 20 466 3 q 610 69 572 38 q 670 147 649 101 q 692 249 692 192 q 678 338 692 299 q 642 404 665 376 q 589 450 619 432 q 528 480 560 469 q 463 495 496 491 q 403 500 431 500 q 342 495 374 500 q 278 480 310 491 q 216 450 246 469 q 164 404 187 432 q 127 338 141 376 q 114 249 114 299 q 135 147 114 192 q 195 69 157 101 q 287 20 234 38 q 403 3 340 3 m 150 742 q 166 656 150 697 q 213 584 181 615 q 292 533 244 552 q 403 514 339 514 q 514 533 466 514 q 593 584 561 552 q 640 656 624 615 q 656 742 656 697 q 638 832 656 790 q 588 905 621 874 q 509 952 556 935 q 403 969 462 969 q 297 952 344 969 q 217 905 250 935 q 167 832 185 874 q 150 742 150 790 m 469 508 q 559 482 516 500 q 636 432 603 464 q 689 355 669 401 q 708 249 708 310 q 686 140 708 188 q 623 58 663 92 q 526 7 582 25 q 403 -11 470 -11 q 280 7 335 -11 q 183 58 224 25 q 120 140 142 92 q 97 249 97 188 q 117 355 97 310 q 170 432 137 401 q 246 482 203 464 q 337 508 290 500 q 250 538 288 517 q 186 590 213 560 q 147 659 160 621 q 133 742 133 698 q 152 836 133 792 q 205 913 170 880 q 289 964 239 945 q 403 983 339 983 q 516 964 466 983 q 601 913 567 945 q 654 836 635 880 q 672 742 672 792 q 659 659 672 698 q 619 590 645 621 q 555 538 593 560 q 469 508 517 517 z "},"9":{"ha":806,"x_min":107,"x_max":685,"o":"m 385 440 q 505 464 452 440 q 594 524 558 488 q 649 607 631 561 q 668 696 668 652 q 648 805 668 755 q 593 892 628 856 q 510 949 558 928 q 406 969 463 969 q 292 950 344 969 q 203 895 240 931 q 144 811 165 860 q 124 703 124 762 q 143 594 124 642 q 196 511 162 545 q 279 459 231 477 q 385 440 327 440 m 549 414 q 609 505 583 465 q 652 585 635 544 q 607 519 635 549 q 544 469 578 490 q 469 438 509 449 q 386 426 428 426 q 270 447 322 426 q 182 505 219 468 q 126 592 146 542 q 107 703 107 643 q 130 815 107 764 q 193 904 153 867 q 287 963 233 942 q 406 983 342 983 q 516 962 465 983 q 605 902 567 941 q 664 808 642 863 q 685 686 685 753 q 676 621 685 652 q 652 557 668 590 q 614 487 637 524 q 561 407 591 451 l 290 4 q 286 0 288 1 q 282 0 284 0 l 268 0 l 549 414 z "},"\u0000":{"ha":0,"x_min":0,"x_max":0,"o":""}," ":{"ha":396,"x_min":0,"x_max":0,"o":""},"A":{"ha":885,"x_min":30,"x_max":855,"o":"m 693 346 l 453 921 q 448 935 450 928 q 442 950 445 942 q 437 935 440 942 q 431 921 435 928 l 192 346 l 693 346 m 855 0 l 842 0 q 834 7 836 0 l 699 332 l 186 332 l 51 7 q 41 0 49 0 l 30 0 l 435 972 l 449 972 l 855 0 z "},"Ą":{"ha":885,"x_min":30,"x_max":947,"o":"m 693 346 l 453 921 q 448 935 450 928 q 442 950 445 942 q 437 935 440 942 q 431 921 435 928 l 192 346 l 693 346 m 947 -194 q 901 -222 928 -212 q 845 -232 874 -232 q 769 -208 799 -232 q 738 -136 738 -183 q 747 -92 738 -113 q 770 -54 756 -72 q 802 -22 785 -36 q 836 3 819 -7 q 834 7 835 4 l 699 332 l 186 332 l 51 7 q 41 0 49 0 l 30 0 l 435 972 l 449 972 l 855 0 q 823 -20 841 -8 q 790 -51 806 -33 q 764 -90 774 -68 q 753 -136 753 -111 q 780 -197 753 -175 q 847 -218 807 -218 q 884 -213 869 -218 q 910 -203 900 -208 q 927 -192 921 -197 q 937 -187 933 -187 q 942 -190 940 -187 l 947 -194 z "},"Æ":{"ha":1285,"x_min":17,"x_max":1206,"o":"m 663 346 l 583 958 q 576 940 580 948 q 566 921 572 932 l 235 346 l 663 346 m 1206 15 l 1205 0 l 708 0 l 665 332 l 228 332 l 40 6 q 31 0 38 0 l 17 0 l 576 972 l 1205 972 l 1205 957 l 599 957 l 658 501 l 1122 501 l 1122 486 l 660 486 l 721 15 l 1206 15 z "},"B":{"ha":860,"x_min":161,"x_max":767,"o":"m 451 14 q 577 29 522 14 q 671 75 633 44 q 730 150 710 105 q 750 256 750 196 q 729 351 750 308 q 669 424 708 394 q 575 470 631 454 q 453 486 520 486 l 178 486 l 178 14 l 451 14 m 178 958 l 178 500 l 421 500 q 553 522 499 500 q 641 577 607 543 q 690 651 675 610 q 706 731 706 692 q 634 899 706 839 q 414 958 562 958 l 178 958 m 414 972 q 645 910 569 972 q 721 731 721 848 q 704 647 721 688 q 657 575 687 607 q 586 522 627 543 q 497 496 545 501 q 609 473 560 492 q 694 424 659 455 q 748 351 729 393 q 767 256 767 308 q 745 146 767 194 q 684 66 724 98 q 584 17 643 33 q 451 0 526 0 l 161 0 l 161 972 l 414 972 z "},"C":{"ha":949,"x_min":94,"x_max":890,"o":"m 879 131 q 884 129 882 131 l 890 124 q 825 69 860 94 q 748 27 790 44 q 656 -1 706 9 q 546 -11 606 -11 q 365 23 448 -11 q 222 122 283 58 q 128 279 162 187 q 94 486 94 371 q 128 689 94 597 q 223 846 162 781 q 370 948 285 912 q 560 983 456 983 q 650 976 608 983 q 730 954 692 969 q 803 918 768 940 q 871 869 838 897 l 868 865 q 861 863 867 863 q 836 879 856 863 q 780 916 817 896 q 689 953 743 936 q 560 969 634 969 q 379 936 461 969 q 237 839 297 902 q 144 687 178 776 q 111 486 111 597 q 144 283 111 373 q 235 131 177 194 q 373 36 294 69 q 546 3 453 3 q 651 11 605 3 q 736 35 698 19 q 808 75 775 51 q 874 128 841 98 q 879 131 877 131 z "},"Ç":{"ha":949,"x_min":94,"x_max":890,"o":"m 534 -76 q 588 -87 564 -81 q 630 -104 613 -94 q 657 -129 647 -114 q 667 -165 667 -144 q 659 -201 667 -185 q 636 -227 651 -216 q 602 -243 622 -237 q 558 -249 582 -249 q 502 -239 530 -249 q 458 -212 474 -228 l 461 -210 q 468 -206 465 -206 q 477 -210 471 -206 q 494 -221 483 -215 q 522 -231 506 -226 q 563 -236 538 -236 q 628 -218 604 -236 q 651 -167 651 -199 q 641 -131 651 -145 q 613 -109 631 -117 q 570 -95 594 -100 q 518 -87 546 -91 l 542 -11 q 363 24 445 -10 q 222 124 281 59 q 128 280 162 188 q 94 486 94 372 q 128 689 94 597 q 223 846 162 781 q 370 948 285 912 q 560 983 456 983 q 650 976 608 983 q 730 954 692 969 q 803 918 768 940 q 871 869 838 897 l 868 865 q 861 863 867 863 q 836 879 856 863 q 780 916 817 896 q 689 953 743 936 q 560 969 634 969 q 379 936 461 969 q 237 839 297 902 q 144 687 178 776 q 111 486 111 597 q 144 283 111 373 q 235 131 177 194 q 373 36 294 69 q 546 3 453 3 q 651 11 605 3 q 736 35 698 19 q 808 75 775 51 q 874 128 841 98 q 879 131 877 131 q 884 129 882 131 l 890 124 q 826 70 860 94 q 751 28 792 46 q 661 0 710 10 q 555 -11 613 -10 l 534 -76 z "},"D":{"ha":1055,"x_min":161,"x_max":958,"o":"m 958 486 q 925 281 958 371 q 833 128 892 190 q 691 33 774 65 q 508 0 608 0 l 161 0 l 161 972 l 508 972 q 691 940 608 972 q 833 844 774 907 q 925 692 892 782 q 958 486 958 601 m 940 486 q 909 687 940 599 q 820 835 877 775 q 684 927 763 896 q 508 958 604 958 l 178 958 l 178 14 l 508 14 q 684 45 604 14 q 820 137 763 76 q 909 285 877 197 q 940 486 940 373 z "},"Ð":{"ha":1063,"x_min":8,"x_max":966,"o":"m 516 14 q 691 45 612 14 q 828 137 771 76 q 916 285 885 197 q 948 486 948 373 q 916 687 948 599 q 828 835 885 775 q 691 927 771 896 q 516 958 612 958 l 185 958 l 185 501 l 424 501 l 424 488 l 185 488 l 185 14 l 516 14 m 516 972 q 699 940 616 972 q 841 844 781 907 q 933 692 900 782 q 966 486 966 601 q 933 281 966 371 q 841 128 900 190 q 699 33 781 65 q 516 0 616 0 l 169 0 l 169 488 l 8 488 l 8 501 l 169 501 l 169 972 l 516 972 z "},"E":{"ha":809,"x_min":161,"x_max":731,"o":"m 731 15 l 729 0 l 161 0 l 161 972 l 729 972 l 729 957 l 178 957 l 178 501 l 646 501 l 646 486 l 178 486 l 178 15 l 731 15 z "},"Ę":{"ha":809,"x_min":161,"x_max":758,"o":"m 758 -194 q 713 -222 740 -212 q 657 -232 686 -232 q 581 -208 611 -232 q 550 -136 550 -183 q 559 -94 550 -114 q 581 -57 567 -74 q 611 -25 594 -40 q 643 0 627 -10 l 161 0 l 161 972 l 729 972 l 729 957 l 178 957 l 178 501 l 646 501 l 646 486 l 178 486 l 178 15 l 731 15 l 729 0 l 667 0 q 635 -20 653 -8 q 602 -51 617 -33 q 576 -90 586 -68 q 565 -136 565 -111 q 592 -197 565 -175 q 658 -218 619 -218 q 696 -213 681 -218 q 722 -203 712 -208 q 739 -192 733 -197 q 749 -187 745 -187 q 754 -190 751 -187 l 758 -194 z "},"F":{"ha":783,"x_min":161,"x_max":729,"o":"m 178 957 l 178 488 l 660 488 l 660 472 l 178 472 l 178 0 l 161 0 l 161 972 l 729 972 l 729 957 l 178 957 z "},"G":{"ha":1027,"x_min":95,"x_max":926,"o":"m 926 418 l 926 96 q 851 52 890 72 q 771 18 813 32 q 682 -3 729 4 q 583 -11 635 -11 q 378 23 469 -11 q 225 122 288 58 q 129 279 163 187 q 95 486 95 371 q 128 693 95 601 q 224 849 162 785 q 375 949 287 914 q 574 983 464 983 q 674 977 628 983 q 758 957 719 970 q 831 922 797 943 q 898 872 865 901 l 895 868 q 888 864 893 864 q 876 872 885 864 q 851 891 867 880 q 811 917 835 903 q 753 942 787 931 q 675 961 719 953 q 574 969 631 969 q 383 936 469 969 q 238 841 298 903 q 144 689 177 778 q 112 486 112 599 q 144 285 112 374 q 236 133 176 195 q 385 36 297 70 q 583 3 472 3 q 677 9 634 3 q 760 29 721 16 q 836 60 799 42 q 910 102 873 78 l 910 404 l 692 404 q 686 407 689 404 q 684 411 684 409 l 684 418 l 926 418 z "},"H":{"ha":1039,"x_min":161,"x_max":878,"o":"m 878 972 l 878 0 l 861 0 l 861 486 l 178 486 l 178 0 l 161 0 l 161 972 l 178 972 l 178 501 l 861 501 l 861 972 l 878 972 z "},"Ħ":{"ha":1042,"x_min":31,"x_max":1011,"o":"m 863 724 l 179 724 l 179 501 l 863 501 l 863 724 m 1011 724 l 879 724 l 879 0 l 863 0 l 863 486 l 179 486 l 179 0 l 163 0 l 163 724 l 31 724 l 31 736 l 163 736 l 163 972 l 179 972 l 179 736 l 863 736 l 863 972 l 879 972 l 879 736 l 1011 736 l 1011 724 z "},"I":{"ha":339,"x_min":161,"x_max":178,"o":"m 178 0 l 161 0 l 161 972 l 178 972 l 178 0 z "},"Į":{"ha":340,"x_min":63,"x_max":271,"o":"m 271 -194 q 226 -222 253 -212 q 169 -232 199 -232 q 93 -208 124 -232 q 63 -136 63 -183 q 72 -92 63 -112 q 96 -53 81 -71 q 128 -20 110 -35 q 163 5 146 -6 l 163 972 l 179 972 l 179 0 q 148 -20 165 -8 q 114 -51 130 -33 q 88 -90 99 -68 q 78 -136 78 -111 q 105 -197 78 -175 q 171 -218 131 -218 q 209 -213 193 -218 q 235 -203 224 -208 q 251 -192 245 -197 q 261 -187 258 -187 q 267 -190 264 -187 l 271 -194 z "},"J":{"ha":566,"x_min":19,"x_max":415,"o":"m 415 314 q 395 171 415 232 q 339 70 375 110 q 251 9 302 29 q 139 -11 200 -11 q 19 10 82 -11 q 20 12 19 11 q 21 14 21 13 q 23 18 22 16 q 29 21 24 21 q 45 18 36 21 q 67 12 54 15 q 97 6 80 8 q 139 3 115 3 q 246 22 198 3 q 328 81 294 42 q 380 178 362 119 q 399 314 399 236 l 399 972 l 415 972 l 415 314 z "},"K":{"ha":849,"x_min":161,"x_max":825,"o":"m 178 503 l 243 503 q 266 503 256 503 q 282 507 275 504 q 297 514 290 509 q 311 526 303 519 l 764 961 q 776 970 772 967 q 789 972 781 972 l 797 972 l 325 519 q 305 503 313 508 q 283 496 297 499 q 305 489 296 494 q 324 474 314 483 l 825 0 l 818 0 q 803 2 808 0 q 793 10 799 4 l 315 461 q 301 474 308 468 q 288 482 295 479 q 270 487 281 485 q 243 489 260 489 l 178 489 l 178 0 l 161 0 l 161 972 l 178 972 l 178 503 z "},"L":{"ha":694,"x_min":161,"x_max":674,"o":"m 674 15 l 674 0 l 161 0 l 161 972 l 178 972 l 178 15 l 674 15 z "},"Ł":{"ha":709,"x_min":35,"x_max":688,"o":"m 688 15 l 688 0 l 176 0 l 176 428 l 35 353 l 35 360 q 37 368 35 365 q 44 374 38 370 l 176 444 l 176 972 l 192 972 l 192 451 l 501 615 l 501 608 q 500 600 501 603 q 492 594 499 597 l 192 435 l 192 15 l 688 15 z "},"Ľ":{"ha":694,"x_min":161,"x_max":674,"o":"m 674 15 l 674 0 l 161 0 l 161 972 l 178 972 l 178 15 l 674 15 m 401 1001 q 412 986 412 1001 q 409 965 412 978 q 402 932 407 952 q 391 883 398 911 q 376 817 385 855 q 373 810 374 813 q 366 807 372 807 l 362 807 l 394 1001 l 401 1001 z "},"M":{"ha":1238,"x_min":161,"x_max":1076,"o":"m 1076 972 l 1076 0 l 1063 0 l 1063 929 q 1063 936 1063 933 q 1063 942 1063 939 l 638 201 q 628 194 633 194 l 624 194 q 614 201 619 194 l 174 943 q 175 936 175 940 q 175 929 175 933 l 175 0 l 161 0 l 161 972 l 167 972 q 176 967 173 972 l 618 223 q 623 215 621 219 q 626 208 624 212 q 629 215 627 212 q 633 223 631 219 l 1061 967 q 1071 972 1065 972 l 1076 972 z "},"N":{"ha":1039,"x_min":161,"x_max":878,"o":"m 878 972 l 878 0 l 874 0 q 866 5 869 0 l 174 947 q 175 938 175 942 q 175 929 175 933 l 175 0 l 161 0 l 161 972 l 167 972 q 176 967 173 972 l 865 30 q 864 37 864 33 q 864 44 864 41 l 864 972 l 878 972 z "},"Ŋ":{"ha":1039,"x_min":161,"x_max":878,"o":"m 878 972 l 878 -49 q 836 -198 878 -146 q 712 -250 794 -250 q 666 -245 688 -250 q 622 -232 644 -241 l 623 -227 q 626 -222 624 -223 q 630 -222 628 -222 q 655 -229 635 -222 q 711 -236 676 -236 q 824 -189 784 -236 q 864 -49 864 -142 l 864 8 l 174 947 q 175 938 175 942 q 175 929 175 933 l 175 0 l 161 0 l 161 972 l 167 972 q 176 967 173 972 l 865 30 q 864 37 864 33 q 864 44 864 41 l 864 972 l 878 972 z "},"O":{"ha":1089,"x_min":95,"x_max":994,"o":"m 994 486 q 961 279 994 371 q 868 123 928 188 q 726 25 809 59 q 544 -10 644 -10 q 362 25 444 -10 q 220 123 280 59 q 128 279 161 188 q 95 486 95 371 q 128 693 95 601 q 220 849 161 785 q 362 949 280 914 q 544 983 444 983 q 726 949 644 983 q 868 850 809 915 q 961 693 928 785 q 994 486 994 601 m 976 486 q 944 689 976 599 q 856 841 913 778 q 719 936 799 903 q 544 969 640 969 q 370 936 449 969 q 234 841 291 903 q 144 689 176 778 q 112 486 112 599 q 144 284 112 373 q 234 132 176 194 q 370 37 291 70 q 544 4 449 4 q 719 37 640 4 q 856 132 799 70 q 944 284 913 194 q 976 486 976 373 z "},"Ø":{"ha":1089,"x_min":95,"x_max":994,"o":"m 269 99 q 393 28 324 53 q 544 4 463 4 q 719 37 640 4 q 856 132 799 70 q 944 284 913 194 q 976 486 976 373 q 940 702 976 608 q 839 858 904 795 l 269 99 m 828 868 q 701 944 772 918 q 544 969 629 969 q 370 936 449 969 q 234 841 291 903 q 144 689 176 778 q 112 486 112 599 q 150 266 112 361 q 258 108 189 171 l 828 868 m 848 871 q 956 709 917 806 q 994 486 994 612 q 961 279 994 371 q 868 123 928 188 q 726 25 809 59 q 544 -10 644 -10 q 388 15 460 -10 q 260 86 316 40 l 148 -62 q 133 -71 142 -71 l 123 -71 l 248 96 q 135 259 176 160 q 95 486 95 357 q 128 693 95 601 q 220 849 161 785 q 362 949 280 914 q 544 983 444 983 q 706 957 632 983 q 837 881 779 931 l 933 1008 q 939 1015 936 1013 q 947 1017 941 1017 l 958 1017 l 848 871 z "},"Œ":{"ha":1542,"x_min":97,"x_max":1463,"o":"m 503 6 q 661 38 590 6 q 785 133 733 71 q 865 284 837 194 q 894 486 894 373 q 865 689 894 599 q 785 841 837 778 q 661 936 733 903 q 503 969 590 969 q 347 936 418 969 q 223 841 275 903 q 142 689 171 778 q 113 486 113 599 q 142 284 113 373 q 223 133 171 194 q 347 38 275 71 q 503 6 418 6 m 1463 15 l 1462 0 l 895 0 l 895 346 q 844 197 879 263 q 759 85 810 131 q 643 16 708 40 q 501 -8 578 -8 q 338 26 412 -8 q 210 124 263 60 q 126 279 156 188 q 97 486 97 371 q 126 693 97 601 q 210 849 156 785 q 338 949 263 914 q 501 983 412 983 q 643 959 578 983 q 759 889 708 935 q 844 777 810 843 q 895 626 879 710 l 895 972 l 1462 972 l 1462 957 l 910 957 l 910 501 l 1378 501 l 1378 486 l 910 486 l 910 15 l 1463 15 z "},"P":{"ha":776,"x_min":161,"x_max":710,"o":"m 381 431 q 510 451 452 431 q 608 507 567 472 q 671 591 649 543 q 693 694 693 639 q 615 891 693 824 q 381 958 537 958 l 178 958 l 178 431 l 381 431 m 381 972 q 625 903 540 972 q 710 694 710 835 q 686 583 710 634 q 618 495 662 532 q 514 438 574 458 q 381 417 453 417 l 178 417 l 178 0 l 161 0 l 161 972 l 381 972 z "},"Þ":{"ha":777,"x_min":161,"x_max":710,"o":"m 381 221 q 510 241 452 221 q 608 298 567 262 q 671 381 649 333 q 693 485 693 429 q 615 682 693 615 q 381 749 537 749 l 178 749 l 178 221 l 381 221 m 381 763 q 625 694 540 763 q 710 485 710 625 q 686 373 710 424 q 618 285 662 322 q 514 228 574 249 q 381 207 453 207 l 178 207 l 178 0 l 161 0 l 161 972 l 178 972 l 178 763 l 381 763 z "},"Q":{"ha":1089,"x_min":95,"x_max":1028,"o":"m 112 486 q 144 284 112 373 q 234 132 176 194 q 370 37 291 70 q 544 4 449 4 q 719 37 640 4 q 856 132 799 70 q 944 284 913 194 q 976 486 976 373 q 944 689 976 599 q 856 841 913 778 q 719 936 799 903 q 544 969 640 969 q 370 936 449 969 q 234 841 291 903 q 144 689 176 778 q 112 486 112 599 m 1028 -226 l 1013 -226 q 1005 -225 1008 -226 q 999 -221 1001 -223 l 756 38 q 657 2 710 15 q 544 -10 603 -10 q 362 25 444 -10 q 220 123 280 59 q 128 279 161 188 q 95 486 95 371 q 128 693 95 601 q 220 849 161 785 q 362 949 280 914 q 544 983 444 983 q 726 949 644 983 q 868 850 809 915 q 961 693 928 785 q 994 486 994 601 q 978 340 994 408 q 934 217 963 273 q 864 118 906 161 q 771 46 823 75 l 1028 -226 z "},"R":{"ha":820,"x_min":161,"x_max":789,"o":"m 178 483 l 374 483 q 502 500 445 483 q 600 549 560 517 q 663 626 641 581 q 685 729 685 672 q 608 903 685 848 q 386 958 531 958 l 178 958 l 178 483 m 789 0 l 778 0 q 769 1 772 0 q 760 8 765 2 l 396 444 q 384 456 390 451 q 371 464 378 461 q 354 468 364 467 q 329 469 344 469 l 178 469 l 178 0 l 161 0 l 161 972 l 386 972 q 620 913 538 972 q 701 729 701 854 q 678 623 701 670 q 614 542 656 575 q 514 490 572 508 q 386 469 456 471 q 399 462 393 467 q 410 451 404 458 l 789 0 z "},"S":{"ha":735,"x_min":76,"x_max":646,"o":"m 611 883 q 604 879 609 879 q 592 886 599 879 q 574 902 585 892 q 547 924 563 913 q 508 946 531 936 q 455 963 485 956 q 386 969 425 969 q 280 951 326 969 q 203 902 234 933 q 155 831 172 872 q 139 747 139 791 q 161 653 139 691 q 218 590 183 616 q 299 548 253 565 q 392 515 345 531 q 485 482 440 499 q 567 438 531 465 q 624 372 602 411 q 646 274 646 333 q 626 162 646 214 q 567 72 606 110 q 474 11 529 33 q 347 -11 418 -11 q 259 -2 298 -11 q 188 23 220 6 q 128 62 156 39 q 76 115 101 85 l 79 118 q 83 121 81 120 q 88 122 84 122 q 100 114 92 122 q 122 91 108 105 q 155 63 135 78 q 202 34 174 47 q 266 11 230 20 q 347 3 301 3 q 467 24 415 3 q 556 82 519 46 q 611 167 592 119 q 631 271 631 216 q 616 350 631 317 q 578 407 602 383 q 521 448 553 431 q 452 479 489 465 q 377 504 415 492 q 302 529 339 515 q 233 561 265 543 q 176 604 201 578 q 138 664 152 629 q 124 747 124 699 q 141 836 124 794 q 192 912 158 879 q 274 964 225 944 q 386 983 323 983 q 511 960 457 983 q 614 888 566 938 l 611 883 z "},"Ş":{"ha":735,"x_min":76,"x_max":646,"o":"m 611 883 q 604 879 609 879 q 592 886 599 879 q 574 902 585 892 q 547 924 563 913 q 508 946 531 936 q 455 963 485 956 q 386 969 425 969 q 280 951 326 969 q 203 902 234 933 q 155 831 172 872 q 139 747 139 791 q 161 653 139 691 q 218 590 183 616 q 299 548 253 565 q 392 515 345 531 q 485 482 440 499 q 567 438 531 465 q 624 372 602 411 q 646 274 646 333 q 628 169 646 218 q 577 82 610 120 q 495 20 544 44 q 383 -9 446 -3 l 363 -76 q 417 -87 392 -81 q 458 -104 441 -94 q 485 -129 476 -114 q 495 -165 495 -144 q 487 -201 495 -185 q 465 -227 479 -216 q 430 -243 450 -237 q 387 -249 410 -249 q 331 -239 358 -249 q 287 -212 303 -228 l 290 -210 q 297 -206 294 -206 q 306 -210 299 -206 q 323 -221 312 -215 q 350 -231 334 -226 q 391 -236 367 -236 q 456 -218 433 -236 q 480 -167 480 -199 q 469 -131 480 -145 q 441 -109 459 -117 q 399 -95 423 -100 q 347 -87 374 -91 l 371 -10 q 359 -11 365 -10 q 347 -11 353 -11 q 259 -2 298 -11 q 188 23 220 6 q 128 62 156 39 q 76 115 101 85 l 79 118 q 83 121 81 120 q 88 122 84 122 q 100 114 92 122 q 122 91 108 105 q 155 63 135 78 q 202 34 174 47 q 266 11 230 20 q 347 3 301 3 q 467 24 415 3 q 556 82 519 46 q 611 167 592 119 q 631 271 631 216 q 616 350 631 317 q 578 407 602 383 q 521 448 553 431 q 452 479 489 465 q 377 504 415 492 q 302 529 339 515 q 233 561 265 543 q 176 604 201 578 q 138 664 152 629 q 124 747 124 699 q 141 836 124 794 q 192 912 158 879 q 274 964 225 944 q 386 983 323 983 q 511 960 457 983 q 614 888 566 938 l 611 883 z "},"T":{"ha":790,"x_min":20,"x_max":770,"o":"m 770 957 l 405 957 l 405 0 l 388 0 l 388 957 l 20 957 l 20 972 l 770 972 l 770 957 z "},"Ŧ":{"ha":818,"x_min":34,"x_max":784,"o":"m 419 957 l 419 589 l 666 589 l 666 575 l 419 575 l 419 0 l 402 0 l 402 575 l 152 575 l 152 589 l 402 589 l 402 957 l 34 957 l 34 972 l 784 972 l 784 957 l 419 957 z "},"U":{"ha":1000,"x_min":149,"x_max":851,"o":"m 500 3 q 641 31 578 3 q 746 108 703 59 q 812 222 789 156 q 835 361 835 287 l 835 972 l 851 972 l 851 361 q 827 216 851 284 q 757 97 803 148 q 646 17 711 47 q 500 -12 581 -12 q 354 17 419 -12 q 243 97 289 47 q 173 216 197 148 q 149 361 149 284 l 149 972 l 165 972 l 165 363 q 188 223 165 288 q 254 108 211 157 q 359 31 297 59 q 500 3 422 3 z "},"Ų":{"ha":1000,"x_min":149,"x_max":851,"o":"m 851 972 l 851 361 q 829 222 851 288 q 765 107 807 157 q 664 26 724 57 q 530 -11 605 -6 q 499 -33 515 -19 q 469 -62 483 -46 q 445 -99 455 -79 q 436 -143 436 -119 q 463 -203 436 -182 q 529 -225 490 -225 q 567 -220 551 -225 q 593 -210 583 -215 q 610 -199 603 -204 q 619 -194 616 -194 q 625 -197 622 -194 l 629 -201 q 584 -229 611 -219 q 528 -239 557 -239 q 451 -215 482 -239 q 421 -143 421 -190 q 428 -103 421 -122 q 448 -68 436 -85 q 475 -37 460 -51 q 506 -12 490 -24 l 500 -12 q 354 17 419 -12 q 243 97 289 47 q 173 216 197 148 q 149 361 149 284 l 149 972 l 165 972 l 165 363 q 188 223 165 288 q 254 108 211 157 q 359 31 297 59 q 500 3 422 3 q 641 31 578 3 q 746 108 703 59 q 812 222 789 156 q 835 361 835 287 l 835 972 l 851 972 z "},"V":{"ha":885,"x_min":30,"x_max":855,"o":"m 855 972 l 449 0 l 435 0 l 30 972 l 42 972 q 51 965 49 972 l 431 51 q 437 37 435 44 q 442 22 440 30 q 448 37 445 30 q 453 51 450 44 l 834 965 q 844 972 836 972 l 855 972 z "},"W":{"ha":1390,"x_min":43,"x_max":1347,"o":"m 1347 972 l 1039 0 l 1025 0 l 701 933 q 698 945 699 940 q 695 956 697 951 q 689 933 693 947 l 365 0 l 351 0 l 43 972 l 56 972 q 64 965 62 972 l 348 58 q 358 20 353 41 q 369 58 363 41 l 685 965 q 694 972 687 972 l 697 972 q 706 965 703 972 l 1022 58 q 1032 20 1026 41 q 1042 58 1037 41 l 1326 965 q 1336 972 1328 972 l 1347 972 z "},"X":{"ha":834,"x_min":40,"x_max":793,"o":"m 793 0 l 778 0 q 770 4 772 0 q 765 10 767 8 l 417 490 q 415 486 416 488 q 411 481 414 484 l 68 10 q 62 3 65 6 q 56 0 60 0 l 40 0 l 406 498 l 57 972 l 72 972 q 80 968 78 972 q 85 963 83 965 l 417 506 q 420 511 419 509 q 424 517 422 513 l 749 963 q 754 969 751 966 q 761 972 757 972 l 776 972 l 428 499 l 793 0 z "},"Y":{"ha":792,"x_min":25,"x_max":767,"o":"m 404 413 l 404 0 l 388 0 l 388 413 l 25 972 l 39 972 q 49 967 45 972 l 376 460 q 387 443 381 451 q 396 426 392 435 q 405 443 400 435 q 416 460 410 451 l 743 967 q 753 972 747 972 l 767 972 l 404 413 z "},"Z":{"ha":825,"x_min":58,"x_max":763,"o":"m 763 969 q 758 956 763 963 l 81 15 l 762 15 l 762 0 l 58 0 l 58 3 q 59 9 58 7 q 62 15 60 12 l 740 957 l 69 957 l 69 972 l 763 972 l 763 969 z "},"a":{"ha":657,"x_min":71,"x_max":536,"o":"m 519 349 q 194 294 301 342 q 88 160 88 247 q 101 89 88 119 q 137 41 115 60 q 188 12 159 22 q 246 3 216 3 q 333 14 294 3 q 405 44 372 25 q 466 87 438 63 q 519 139 494 112 l 519 349 m 107 583 q 210 664 157 636 q 335 692 264 692 q 425 675 387 692 q 488 627 463 658 q 524 551 513 596 q 536 450 536 506 l 536 0 l 533 0 q 524 11 524 0 l 519 122 q 461 67 490 92 q 399 25 432 42 q 329 -2 367 8 q 246 -11 292 -11 q 184 -2 215 -11 q 128 28 153 8 q 87 81 103 49 q 71 160 71 113 q 98 242 71 206 q 180 304 125 278 q 320 345 235 330 q 519 363 404 360 l 519 450 q 508 546 519 503 q 473 617 496 588 q 415 662 450 647 q 335 678 381 678 q 269 670 299 678 q 217 651 240 663 q 177 627 194 640 q 148 603 160 614 q 128 584 135 592 q 117 576 120 576 q 110 581 114 576 l 107 583 z "},"ą":{"ha":657,"x_min":71,"x_max":628,"o":"m 519 349 q 194 294 301 342 q 88 160 88 247 q 101 89 88 119 q 137 41 115 60 q 188 12 159 22 q 246 3 216 3 q 333 14 294 3 q 405 44 372 25 q 466 87 438 63 q 519 139 494 112 l 519 349 m 628 -194 q 583 -222 610 -212 q 526 -232 556 -232 q 450 -208 481 -232 q 419 -136 419 -183 q 430 -90 419 -112 q 455 -50 440 -69 q 489 -17 471 -32 q 524 8 508 -3 q 524 11 524 8 l 519 122 q 461 67 490 92 q 399 25 432 42 q 329 -2 367 8 q 246 -11 292 -11 q 184 -2 215 -11 q 128 28 153 8 q 87 81 103 49 q 71 160 71 113 q 98 242 71 206 q 180 304 125 278 q 320 345 235 330 q 519 363 404 360 l 519 450 q 508 546 519 503 q 473 617 496 588 q 415 662 450 647 q 335 678 381 678 q 269 670 299 678 q 217 651 240 663 q 177 627 194 640 q 148 603 160 614 q 128 584 135 592 q 117 576 120 576 q 110 581 114 576 l 107 583 q 210 664 157 636 q 335 692 264 692 q 425 675 387 692 q 488 627 463 658 q 524 551 513 596 q 536 450 536 506 l 536 0 q 505 -20 522 -8 q 471 -51 487 -33 q 445 -90 456 -68 q 435 -136 435 -111 q 461 -197 435 -175 q 528 -218 488 -218 q 566 -213 550 -218 q 592 -203 581 -208 q 608 -192 602 -197 q 618 -187 615 -187 q 624 -190 621 -187 l 628 -194 z "},"æ":{"ha":1103,"x_min":74,"x_max":1025,"o":"m 1011 390 q 994 516 1011 462 q 947 606 976 569 q 877 660 917 642 q 792 678 837 678 q 689 657 735 678 q 611 599 644 636 q 560 508 579 561 q 538 390 542 455 l 1011 390 m 521 376 q 330 357 411 373 q 196 315 249 342 q 117 253 143 289 q 90 174 90 217 q 104 95 90 128 q 142 42 118 63 q 199 12 166 22 q 271 3 232 3 q 368 20 322 3 q 447 72 413 38 q 501 152 481 105 q 521 257 521 199 l 521 376 m 108 583 q 212 664 158 636 q 336 692 265 692 q 422 675 385 692 q 483 629 458 659 q 520 555 508 599 q 533 458 533 512 q 566 554 544 511 q 621 628 588 597 q 696 675 653 658 q 790 692 738 692 q 882 672 839 692 q 956 614 924 653 q 1007 518 988 576 q 1025 385 1025 460 q 1018 378 1025 378 l 537 378 q 536 366 536 372 q 536 354 536 360 q 555 205 536 269 q 607 95 573 140 q 688 28 640 51 q 793 6 735 6 q 881 18 844 6 q 943 46 918 31 q 982 74 968 61 q 999 86 995 86 q 1004 83 1001 86 l 1007 81 q 975 50 997 66 q 926 22 954 35 q 863 0 897 8 q 793 -8 829 -8 q 622 57 688 -8 q 533 241 555 122 q 503 120 530 169 q 436 43 476 72 q 353 1 397 14 q 271 -11 308 -11 q 195 -2 231 -11 q 133 30 160 8 q 90 87 106 51 q 74 174 74 122 q 100 258 74 219 q 182 325 127 297 q 322 370 238 353 q 521 390 406 388 l 521 450 q 509 546 521 503 q 474 617 497 588 q 417 662 451 647 q 336 678 382 678 q 271 670 300 678 q 219 651 242 663 q 179 627 196 640 q 149 603 162 614 q 129 584 137 592 q 118 576 122 576 q 111 581 115 576 l 108 583 z "},"b":{"ha":755,"x_min":128,"x_max":669,"o":"m 144 135 q 244 35 189 64 q 371 6 300 6 q 496 32 443 6 q 584 105 549 58 q 636 216 619 151 q 653 358 653 281 q 588 596 653 515 q 406 678 523 678 q 325 667 363 678 q 255 635 288 656 q 195 585 223 615 q 144 519 167 556 l 144 135 m 144 541 q 254 651 190 610 q 406 692 318 692 q 517 670 468 692 q 600 606 567 648 q 652 501 634 563 q 669 360 669 440 q 650 209 669 277 q 593 93 631 141 q 500 18 556 44 q 372 -8 444 -8 q 240 22 296 -8 q 144 114 183 51 l 142 10 q 140 3 142 6 q 133 0 139 0 l 128 0 l 128 1000 l 144 1000 l 144 541 z "},"c":{"ha":648,"x_min":85,"x_max":586,"o":"m 571 617 q 565 614 568 614 q 550 624 561 614 q 516 646 538 634 q 461 668 494 658 q 382 678 428 678 q 264 654 316 678 q 176 587 212 631 q 120 481 140 543 q 101 340 101 418 q 120 198 101 260 q 175 93 140 135 q 260 28 210 50 q 371 6 310 6 q 463 18 425 6 q 524 46 500 31 q 561 74 549 61 q 578 86 574 86 q 583 83 581 86 l 586 81 q 556 50 576 65 q 508 21 535 34 q 445 0 480 8 q 371 -8 410 -8 q 252 15 305 -8 q 162 84 199 39 q 105 193 125 128 q 85 340 85 258 q 105 484 85 419 q 163 595 125 549 q 257 666 201 641 q 382 692 312 692 q 492 672 444 692 q 575 621 540 652 l 571 617 z "},"ç":{"ha":648,"x_min":85,"x_max":586,"o":"m 586 81 q 558 51 576 66 q 513 24 539 36 q 455 2 488 11 q 386 -8 423 -6 l 365 -76 q 419 -87 394 -81 q 460 -104 443 -94 q 488 -129 478 -114 q 497 -165 497 -144 q 489 -201 497 -185 q 467 -227 481 -216 q 432 -243 452 -237 q 389 -249 413 -249 q 333 -239 360 -249 q 289 -212 305 -228 l 292 -210 q 299 -206 296 -206 q 308 -210 301 -206 q 325 -221 314 -215 q 352 -231 336 -226 q 393 -236 369 -236 q 458 -218 435 -236 q 482 -167 482 -199 q 472 -131 482 -145 q 443 -109 461 -117 q 401 -95 425 -100 q 349 -87 376 -91 l 374 -8 l 371 -8 q 252 15 305 -8 q 162 84 199 39 q 105 193 125 128 q 85 340 85 258 q 105 484 85 419 q 163 595 125 549 q 257 666 201 641 q 382 692 312 692 q 492 672 444 692 q 575 621 540 652 l 571 617 q 565 614 568 614 q 550 624 561 614 q 516 646 538 634 q 461 668 494 658 q 382 678 428 678 q 264 654 316 678 q 176 587 212 631 q 120 481 140 543 q 101 340 101 418 q 120 198 101 260 q 175 93 140 135 q 260 28 210 50 q 371 6 310 6 q 463 18 425 6 q 524 46 500 31 q 561 74 549 61 q 578 86 574 86 q 583 83 581 86 l 586 81 z "},"d":{"ha":755,"x_min":85,"x_max":627,"o":"m 610 548 q 564 608 588 583 q 511 649 539 633 q 452 671 483 664 q 384 678 420 678 q 260 652 313 678 q 172 580 207 626 q 119 472 137 534 q 102 339 102 410 q 167 88 102 169 q 358 6 232 6 q 498 48 433 6 q 610 165 563 90 l 610 548 m 627 1000 l 627 0 l 623 0 q 613 11 613 0 l 610 143 q 500 32 565 73 q 358 -8 435 -8 q 155 77 225 -8 q 85 339 85 162 q 104 477 85 413 q 160 589 123 542 q 254 664 198 637 q 384 692 310 692 q 610 570 534 692 l 610 1000 l 627 1000 z "},"ď":{"ha":755,"x_min":85,"x_max":788,"o":"m 610 548 q 564 608 588 583 q 511 649 539 633 q 452 671 483 664 q 384 678 420 678 q 260 652 313 678 q 172 580 207 626 q 119 472 137 534 q 102 339 102 410 q 167 88 102 169 q 358 6 232 6 q 498 48 433 6 q 610 165 563 90 l 610 548 m 627 1000 l 627 0 l 623 0 q 613 11 613 0 l 610 143 q 500 32 565 73 q 358 -8 435 -8 q 155 77 225 -8 q 85 339 85 162 q 104 477 85 413 q 160 589 123 542 q 254 664 198 637 q 384 692 310 692 q 610 570 534 692 l 610 1000 l 627 1000 m 777 1001 q 788 986 788 1001 q 786 965 788 978 q 779 932 783 952 q 768 883 774 911 q 752 817 761 855 q 749 810 751 813 q 742 807 748 807 l 738 807 l 770 1001 l 777 1001 z "},"đ":{"ha":755,"x_min":85,"x_max":737,"o":"m 610 548 q 564 608 588 583 q 511 649 539 633 q 452 671 483 664 q 384 678 420 678 q 260 652 313 678 q 172 580 207 626 q 119 472 137 534 q 102 339 102 410 q 167 88 102 169 q 358 6 232 6 q 498 48 433 6 q 610 165 563 90 l 610 548 m 737 813 l 627 813 l 627 0 l 623 0 q 613 11 613 0 l 610 143 q 500 32 565 73 q 358 -8 435 -8 q 155 77 225 -8 q 85 339 85 162 q 104 477 85 413 q 160 589 123 542 q 254 664 198 637 q 384 692 310 692 q 610 570 534 692 l 610 813 l 431 813 l 431 826 l 610 826 l 610 1000 l 627 1000 l 627 826 l 737 826 l 737 813 z "},"ð":{"ha":772,"x_min":86,"x_max":674,"o":"m 374 7 q 497 35 444 7 q 585 115 549 64 q 639 235 620 165 q 660 389 658 306 q 627 470 649 428 q 571 545 606 512 q 489 601 537 579 q 381 622 442 622 q 260 598 312 622 q 173 532 208 574 q 120 433 138 490 q 103 310 103 376 q 125 182 103 238 q 184 87 147 126 q 270 27 222 48 q 374 7 319 7 m 467 860 q 549 789 512 830 q 615 692 587 747 q 658 567 642 637 q 674 413 674 498 q 656 242 674 319 q 601 110 638 165 q 507 24 564 55 q 374 -7 451 -7 q 263 15 315 -7 q 171 78 210 38 q 109 178 132 119 q 86 310 86 237 q 105 438 86 378 q 162 541 124 497 q 254 611 199 585 q 381 636 309 636 q 460 625 419 636 q 541 588 502 613 q 611 521 579 562 q 661 422 643 481 q 645 569 660 503 q 603 688 630 635 q 539 782 576 741 q 459 852 503 822 l 357 743 l 354 746 q 350 751 351 748 q 353 758 349 755 l 448 859 q 343 910 399 891 q 231 939 288 929 q 225 941 228 939 q 222 947 221 943 l 224 953 q 343 923 283 943 q 457 868 403 903 l 551 971 l 554 968 q 556 961 556 965 q 552 953 556 958 l 467 860 z "},"e":{"ha":716,"x_min":85,"x_max":640,"o":"m 625 404 q 606 521 625 470 q 555 607 588 572 q 477 660 522 642 q 382 678 433 678 q 272 658 321 678 q 188 603 223 639 q 131 516 152 567 q 103 404 110 466 l 625 404 m 621 81 q 586 50 609 66 q 531 22 563 35 q 462 0 499 8 q 385 -8 424 -8 q 259 16 315 -8 q 165 88 203 41 q 106 201 126 134 q 85 354 85 269 q 105 491 85 429 q 163 598 125 553 q 257 667 201 642 q 382 692 312 692 q 483 673 435 692 q 565 616 530 653 q 620 524 600 578 q 640 399 640 469 q 638 393 640 395 q 632 392 635 392 l 103 392 q 102 373 102 382 q 101 354 101 364 q 122 205 101 269 q 179 95 142 140 q 268 28 216 51 q 385 6 321 6 q 483 18 442 6 q 553 46 525 31 q 595 74 581 61 q 613 86 610 86 q 618 83 615 86 l 621 81 z "},"ę":{"ha":716,"x_min":85,"x_max":640,"o":"m 625 404 q 606 521 625 470 q 555 607 588 572 q 477 660 522 642 q 382 678 433 678 q 272 658 321 678 q 188 603 223 639 q 131 516 152 567 q 103 404 110 466 l 625 404 m 543 -194 q 498 -222 525 -212 q 442 -232 471 -232 q 365 -208 396 -232 q 335 -136 335 -183 q 342 -97 335 -115 q 361 -62 349 -78 q 388 -32 373 -46 q 418 -7 403 -18 q 401 -8 410 -8 q 385 -8 393 -8 q 259 16 315 -8 q 165 88 203 41 q 106 201 126 134 q 85 354 85 269 q 105 491 85 429 q 163 598 125 553 q 257 667 201 642 q 382 692 312 692 q 483 673 435 692 q 565 616 530 653 q 620 524 600 578 q 640 399 640 469 q 638 393 640 395 q 632 392 635 392 l 103 392 q 102 373 102 382 q 101 354 101 364 q 122 205 101 269 q 179 95 142 140 q 268 28 216 51 q 385 6 321 6 q 483 18 442 6 q 553 46 525 31 q 595 74 581 61 q 613 86 610 86 q 618 83 615 86 l 621 81 q 595 56 612 69 q 555 32 578 44 q 504 11 532 21 q 447 -3 476 2 q 415 -24 432 -11 q 384 -54 399 -37 q 360 -92 369 -71 q 350 -136 350 -112 q 377 -197 350 -175 q 443 -218 403 -218 q 481 -213 465 -218 q 507 -203 497 -208 q 524 -192 517 -197 q 533 -187 530 -187 q 539 -190 536 -187 l 543 -194 z "},"f":{"ha":461,"x_min":42,"x_max":428,"o":"m 165 0 l 165 638 l 51 640 q 42 646 42 640 l 42 651 l 165 651 l 165 756 q 178 857 165 814 q 217 927 192 899 q 275 968 241 955 q 350 982 309 982 q 392 978 370 982 q 428 967 413 974 l 426 961 q 421 957 425 956 q 408 960 417 958 q 385 965 399 963 q 350 968 371 968 q 283 957 314 968 q 230 920 252 945 q 194 854 207 894 q 181 756 181 813 l 181 651 l 424 651 l 424 638 l 181 638 l 181 0 l 165 0 z "},"ﬀ":{"ha":871,"x_min":42,"x_max":838,"o":"m 165 0 l 165 638 l 51 640 q 42 646 42 640 l 42 651 l 165 651 l 165 749 q 178 850 165 807 q 217 920 192 892 q 275 961 241 948 q 350 975 309 975 q 392 971 370 975 q 428 960 413 967 l 426 954 q 421 950 425 949 q 408 953 417 951 q 385 958 399 956 q 350 961 371 961 q 283 950 314 961 q 230 913 252 938 q 194 847 207 888 q 181 749 181 806 l 181 651 l 574 651 l 574 756 q 588 857 574 814 q 626 927 602 899 q 685 968 651 955 q 760 982 719 982 q 801 978 780 982 q 838 967 823 974 l 836 961 q 831 957 835 956 q 818 960 826 958 q 795 965 809 963 q 760 968 781 968 q 693 957 724 968 q 639 920 662 945 q 604 854 617 894 q 591 756 591 813 l 591 651 l 833 651 l 833 638 l 591 638 l 591 0 l 574 0 l 574 638 l 181 638 l 181 0 l 165 0 z "},"ﬁ":{"ha":707,"x_min":44,"x_max":571,"o":"m 167 0 l 167 638 l 53 640 q 44 646 44 640 l 44 651 l 167 651 l 167 728 q 184 840 167 791 q 234 922 202 889 q 310 972 266 955 q 408 989 355 989 q 450 985 428 989 q 486 974 472 981 l 485 968 q 480 965 483 964 q 467 967 476 965 q 444 972 458 969 q 408 975 430 975 q 318 960 359 975 q 247 915 277 945 q 200 838 217 884 q 183 728 183 791 l 183 651 l 571 651 l 571 0 l 554 0 l 554 638 l 183 638 l 183 0 l 167 0 z "},"ﬃ":{"ha":1117,"x_min":44,"x_max":981,"o":"m 167 0 l 167 638 l 53 640 q 44 646 44 640 l 44 651 l 167 651 l 167 749 q 181 850 167 807 q 219 920 194 892 q 277 961 243 948 q 352 975 311 975 q 394 971 372 975 q 430 960 415 967 l 428 954 q 423 950 427 949 q 410 953 419 951 q 387 958 401 956 q 352 961 373 961 q 285 950 316 961 q 232 913 254 938 q 196 847 209 888 q 183 749 183 806 l 183 651 l 576 651 l 576 728 q 594 840 576 791 q 644 922 612 889 q 720 972 676 955 q 818 989 765 989 q 860 985 838 989 q 896 974 881 981 l 894 968 q 889 965 893 964 q 877 967 885 965 q 854 972 868 969 q 818 975 840 975 q 728 960 769 975 q 657 915 687 945 q 610 838 626 884 q 593 728 593 791 l 593 651 l 981 651 l 981 0 l 964 0 l 964 638 l 593 638 l 593 0 l 576 0 l 576 638 l 183 638 l 183 0 l 167 0 z "},"ﬂ":{"ha":749,"x_min":44,"x_max":613,"o":"m 167 0 l 167 638 l 53 640 q 44 646 44 640 l 44 651 l 167 651 l 167 704 q 185 820 167 767 q 237 909 203 872 q 320 967 271 947 q 432 988 369 988 q 523 983 478 988 q 604 978 567 978 l 613 978 l 613 0 l 596 0 l 596 967 q 516 970 560 967 q 432 974 472 974 q 327 955 373 974 q 249 900 281 935 q 200 815 217 865 q 183 704 183 765 l 183 651 l 399 651 l 399 638 l 183 638 l 183 0 l 167 0 z "},"ﬄ":{"ha":1156,"x_min":42,"x_max":1020,"o":"m 165 0 l 165 638 l 51 640 q 42 646 42 640 l 42 651 l 165 651 l 165 749 q 178 850 165 807 q 217 920 192 892 q 275 961 241 948 q 350 975 309 975 q 392 971 370 975 q 428 960 413 967 l 426 954 q 421 950 425 949 q 408 953 417 951 q 385 958 399 956 q 350 961 371 961 q 283 950 314 961 q 230 913 252 938 q 194 847 207 888 q 181 749 181 806 l 181 651 l 574 651 l 574 704 q 592 820 574 767 q 644 909 610 872 q 728 967 678 947 q 840 988 777 988 q 930 983 885 988 q 1012 978 975 978 l 1020 978 l 1020 0 l 1003 0 l 1003 967 q 924 970 968 967 q 840 974 880 974 q 734 955 781 974 q 656 900 688 935 q 608 815 624 865 q 591 704 591 765 l 591 651 l 833 651 l 833 638 l 591 638 l 591 0 l 574 0 l 574 638 l 181 638 l 181 0 l 165 0 z "},"g":{"ha":697,"x_min":63,"x_max":651,"o":"m 551 475 q 536 558 551 520 q 494 622 522 595 q 426 663 466 649 q 338 678 387 678 q 249 663 288 678 q 181 622 209 649 q 139 558 153 595 q 124 475 124 520 q 139 392 124 430 q 181 328 153 355 q 249 287 209 301 q 338 272 288 272 q 428 287 388 272 q 495 328 467 301 q 537 392 522 355 q 551 475 551 430 m 626 -54 q 607 8 626 -15 q 556 44 588 31 q 483 62 524 57 q 398 69 442 67 q 310 74 353 72 q 229 83 266 76 q 169 56 197 71 q 121 20 141 40 q 90 -24 101 0 q 79 -78 79 -49 q 98 -144 79 -113 q 151 -198 117 -175 q 235 -234 185 -221 q 346 -247 284 -247 q 451 -233 401 -247 q 541 -193 502 -219 q 603 -133 580 -168 q 626 -54 626 -97 m 651 647 l 651 644 q 648 638 651 640 q 640 635 644 635 l 504 632 q 552 563 535 603 q 568 475 568 524 q 552 386 568 426 q 505 318 535 347 q 433 274 475 290 q 338 258 390 258 q 273 265 303 258 q 218 284 244 272 q 161 235 183 265 q 139 179 139 206 q 160 126 139 144 q 217 99 182 108 q 298 87 253 90 q 390 83 343 85 q 483 76 438 81 q 563 57 528 71 q 620 16 599 42 q 642 -54 642 -10 q 620 -132 642 -95 q 561 -198 599 -169 q 468 -244 522 -227 q 346 -261 413 -261 q 224 -247 277 -261 q 135 -207 172 -232 q 81 -149 99 -182 q 63 -78 63 -115 q 73 -24 63 -49 q 102 22 83 1 q 149 60 122 43 q 209 88 176 76 q 147 118 171 97 q 124 179 124 140 q 130 208 124 193 q 146 239 135 224 q 171 267 156 253 q 205 291 186 281 q 132 366 158 319 q 107 475 107 413 q 123 563 107 523 q 169 631 139 603 q 242 676 199 660 q 338 692 284 692 q 420 680 383 692 q 486 647 457 669 l 651 647 z "},"h":{"ha":755,"x_min":128,"x_max":635,"o":"m 144 539 q 198 602 168 574 q 261 650 227 631 q 333 681 295 670 q 410 692 370 692 q 579 624 523 692 q 635 436 635 557 l 635 0 l 618 0 l 618 436 q 606 538 618 493 q 567 614 593 583 q 502 661 541 645 q 410 678 463 678 q 263 635 330 678 q 144 518 195 593 l 144 0 l 128 0 l 128 1000 l 144 1000 l 144 539 z "},"ĥ":{"ha":755,"x_min":-31,"x_max":635,"o":"m 144 539 q 198 602 168 574 q 261 650 227 631 q 333 681 295 670 q 410 692 370 692 q 579 624 523 692 q 635 436 635 557 l 635 0 l 618 0 l 618 436 q 606 538 618 493 q 567 614 593 583 q 502 661 541 645 q 410 678 463 678 q 263 635 330 678 q 144 518 195 593 l 144 0 l 128 0 l 128 1000 l 144 1000 l 144 539 m 303 1068 l 289 1068 q 282 1069 285 1068 q 275 1074 278 1070 l 139 1229 q 136 1233 138 1231 q 133 1229 135 1231 l -3 1074 q -10 1069 -6 1070 q -17 1068 -13 1068 l -31 1068 l 131 1251 l 142 1251 l 303 1068 z "},"ħ":{"ha":755,"x_min":6,"x_max":635,"o":"m 144 539 q 198 602 168 574 q 261 650 227 631 q 333 681 295 670 q 410 692 370 692 q 579 624 523 692 q 635 436 635 557 l 635 0 l 618 0 l 618 436 q 606 538 618 493 q 567 614 593 583 q 502 661 541 645 q 410 678 463 678 q 263 635 330 678 q 144 518 195 593 l 144 0 l 128 0 l 128 833 l 6 833 l 6 847 l 128 847 l 128 1000 l 144 1000 l 144 847 l 367 847 l 367 833 l 144 833 l 144 539 z "},"i":{"ha":289,"x_min":106,"x_max":183,"o":"m 153 681 l 153 0 l 136 0 l 136 681 l 153 681 m 183 933 q 171 907 183 919 q 144 896 159 896 q 117 907 128 896 q 106 933 106 919 q 117 961 106 949 q 144 972 128 972 q 171 961 159 972 q 183 933 183 949 z "},"į":{"ha":289,"x_min":36,"x_max":244,"o":"m 144 896 q 117 907 128 896 q 106 933 106 919 q 117 961 106 949 q 144 972 128 972 q 171 961 159 972 q 183 933 183 949 q 171 907 183 919 q 144 896 159 896 m 244 -194 q 199 -222 226 -212 q 143 -232 172 -232 q 67 -208 97 -232 q 36 -136 36 -183 q 45 -92 36 -112 q 69 -53 55 -71 q 102 -20 84 -35 q 136 5 119 -6 l 136 681 l 153 681 l 153 0 q 121 -20 139 -8 q 88 -51 103 -33 q 62 -90 72 -68 q 51 -136 51 -111 q 78 -197 51 -175 q 144 -218 105 -218 q 182 -213 167 -218 q 208 -203 198 -208 q 225 -192 219 -197 q 235 -187 231 -187 q 240 -190 238 -187 l 244 -194 z "},"ı":{"ha":289,"x_min":136,"x_max":153,"o":"m 153 681 l 153 0 l 136 0 l 136 681 l 153 681 z "},"j":{"ha":289,"x_min":-42,"x_max":183,"o":"m 153 681 l 153 -119 q 143 -176 153 -150 q 116 -220 133 -201 q 73 -249 98 -239 q 17 -260 48 -260 q -16 -256 -2 -260 q -42 -244 -29 -252 l -39 -239 q -33 -234 -36 -233 q -23 -237 -29 -234 q -7 -243 -17 -240 q 17 -246 3 -246 q 106 -211 76 -246 q 136 -119 136 -176 l 136 681 l 153 681 m 183 933 q 170 907 183 919 q 144 896 158 896 q 116 907 128 896 q 105 933 105 919 q 116 961 105 949 q 144 972 128 972 q 170 961 158 972 q 183 933 183 949 z "},"ȷ":{"ha":289,"x_min":-42,"x_max":153,"o":"m 153 681 l 153 -119 q 143 -176 153 -150 q 116 -220 133 -201 q 73 -249 98 -239 q 17 -260 48 -260 q -16 -256 -2 -260 q -42 -244 -29 -252 l -39 -239 q -33 -234 -36 -233 q -23 -237 -29 -234 q -7 -243 -17 -240 q 17 -246 3 -246 q 106 -211 76 -246 q 136 -119 136 -176 l 136 681 l 153 681 z "},"k":{"ha":623,"x_min":128,"x_max":599,"o":"m 144 1000 l 144 372 l 176 372 q 191 374 183 372 q 210 385 199 375 l 533 669 q 544 678 539 675 q 558 681 550 681 l 571 681 l 226 379 q 209 367 217 371 q 226 360 219 365 q 239 350 233 356 l 599 0 l 586 0 q 576 1 581 0 q 567 8 572 3 l 225 340 q 203 356 213 351 q 172 360 193 360 l 144 360 l 144 0 l 128 0 l 128 1000 l 144 1000 z "},"ĸ":{"ha":623,"x_min":128,"x_max":599,"o":"m 144 681 l 144 372 l 176 372 q 191 374 183 372 q 210 385 199 375 l 533 669 q 544 678 539 675 q 558 681 550 681 l 571 681 l 226 379 q 209 367 217 371 q 226 360 219 365 q 239 350 233 356 l 599 0 l 586 0 q 576 1 581 0 q 567 8 572 3 l 225 340 q 203 356 213 351 q 172 360 193 360 l 144 360 l 144 0 l 128 0 l 128 681 l 144 681 z "},"ł":{"ha":362,"x_min":36,"x_max":344,"o":"m 344 660 l 344 656 q 343 648 344 651 q 336 642 342 645 l 199 574 l 199 0 l 182 0 l 182 567 l 36 496 l 36 500 q 38 508 36 506 q 44 514 39 510 l 182 583 l 182 1000 l 199 1000 l 199 590 l 344 660 z "},"ľ":{"ha":289,"x_min":136,"x_max":314,"o":"m 153 1000 l 153 0 l 136 0 l 136 1000 l 153 1000 m 303 1001 q 314 986 314 1001 q 311 965 314 978 q 305 932 309 952 q 293 883 300 911 q 278 817 287 855 q 275 810 276 813 q 268 807 274 807 l 264 807 l 296 1001 l 303 1001 z "},"m":{"ha":1097,"x_min":128,"x_max":976,"o":"m 128 0 l 128 681 l 132 681 q 142 669 142 681 l 144 541 q 240 651 183 610 q 364 692 297 692 q 492 641 446 692 q 549 497 538 590 q 578 583 558 546 q 628 644 599 619 q 693 680 657 668 q 767 692 728 692 q 853 675 815 692 q 919 626 892 658 q 961 546 947 594 q 976 436 976 498 l 976 0 l 960 0 l 960 436 q 909 616 960 553 q 767 678 859 678 q 688 663 726 678 q 621 617 650 647 q 574 542 592 587 q 557 436 557 497 l 557 0 l 540 0 l 540 436 q 529 538 540 493 q 495 614 517 583 q 439 661 472 645 q 363 678 406 678 q 241 636 297 678 q 144 519 186 594 l 144 0 l 128 0 z "},"n":{"ha":755,"x_min":128,"x_max":635,"o":"m 144 539 q 198 602 168 574 q 261 650 227 631 q 333 681 295 670 q 410 692 370 692 q 579 624 523 692 q 635 436 635 557 l 635 0 l 618 0 l 618 436 q 606 538 618 493 q 567 614 593 583 q 502 661 541 645 q 410 678 463 678 q 263 635 330 678 q 144 518 195 593 l 144 0 l 128 0 l 128 681 l 132 681 q 142 669 142 681 l 144 539 z "},"ŋ":{"ha":755,"x_min":128,"x_max":635,"o":"m 144 539 q 198 602 168 574 q 261 650 227 631 q 333 681 295 670 q 410 692 370 692 q 579 624 523 692 q 635 436 635 557 l 635 -60 q 591 -209 635 -157 q 466 -261 548 -261 q 420 -257 442 -261 q 376 -243 398 -252 l 377 -238 q 381 -233 378 -234 q 384 -233 383 -233 q 409 -240 389 -233 q 465 -247 430 -247 q 578 -200 538 -247 q 618 -60 618 -153 l 618 436 q 606 538 618 493 q 567 614 593 583 q 502 661 541 645 q 410 678 463 678 q 263 635 330 678 q 144 518 195 593 l 144 0 l 128 0 l 128 681 l 132 681 q 142 669 142 681 l 144 539 z "},"o":{"ha":765,"x_min":85,"x_max":679,"o":"m 382 692 q 509 666 453 692 q 602 595 565 641 q 660 484 640 549 q 679 340 679 419 q 660 197 679 261 q 602 87 640 133 q 509 16 565 41 q 382 -8 453 -8 q 255 16 310 -8 q 161 87 199 41 q 104 197 124 133 q 85 340 85 261 q 104 484 85 419 q 161 595 124 549 q 255 666 199 641 q 382 692 310 692 m 382 6 q 504 30 451 6 q 592 98 557 54 q 645 203 627 142 q 663 340 663 265 q 645 477 663 415 q 592 584 627 540 q 504 653 557 628 q 382 678 451 678 q 259 653 312 678 q 172 584 207 628 q 119 477 137 540 q 101 340 101 415 q 119 203 101 265 q 172 98 137 142 q 259 30 207 54 q 382 6 312 6 z "},"ø":{"ha":763,"x_min":85,"x_max":686,"o":"m 201 67 q 280 22 235 38 q 382 6 325 6 q 504 30 451 6 q 592 98 557 54 q 645 203 627 142 q 663 340 663 265 q 644 480 663 417 q 590 588 626 542 l 201 67 m 579 599 q 495 657 544 637 q 382 678 446 678 q 259 653 312 678 q 172 584 207 628 q 119 477 137 540 q 101 340 101 415 q 124 189 101 256 q 190 78 146 122 l 579 599 m 599 600 q 659 488 638 553 q 679 340 679 422 q 660 197 679 261 q 602 87 640 133 q 509 16 565 41 q 382 -8 453 -8 q 276 8 323 -8 q 192 56 228 24 l 118 -43 q 103 -51 112 -51 l 93 -51 l 181 66 q 109 182 133 112 q 85 340 85 251 q 104 484 85 419 q 161 595 124 549 q 255 666 199 641 q 382 692 310 692 q 499 671 448 692 q 588 611 551 650 l 661 708 q 667 715 665 713 q 675 717 669 717 l 686 717 l 599 600 z "},"œ":{"ha":1204,"x_min":85,"x_max":1124,"o":"m 1110 390 q 1094 516 1110 462 q 1048 606 1077 569 q 980 660 1019 642 q 895 678 940 678 q 793 657 838 678 q 715 599 747 636 q 664 508 683 561 q 641 390 645 455 l 1110 390 m 363 6 q 476 30 428 6 q 558 98 525 54 q 607 203 590 142 q 623 340 623 265 q 607 477 623 415 q 558 584 590 540 q 476 653 525 628 q 363 678 428 678 q 249 653 298 678 q 167 584 200 628 q 118 477 135 540 q 102 340 102 415 q 118 203 102 265 q 167 98 135 142 q 249 30 200 54 q 363 6 298 6 m 1110 81 q 1079 50 1100 66 q 1029 22 1058 35 q 967 0 1001 8 q 897 -8 933 -8 q 796 10 841 -8 q 717 65 751 29 q 662 153 683 101 q 632 272 640 206 q 604 156 625 208 q 550 67 583 103 q 469 11 516 31 q 363 -8 422 -8 q 244 16 296 -8 q 157 87 192 41 q 103 197 122 133 q 85 340 85 261 q 103 484 85 419 q 157 595 122 549 q 244 666 192 641 q 363 692 296 692 q 467 673 422 692 q 547 618 513 653 q 602 532 581 582 q 631 419 623 481 q 659 531 638 481 q 713 617 680 581 q 792 672 747 653 q 894 692 838 692 q 984 672 942 692 q 1058 614 1026 653 q 1107 518 1089 576 q 1124 385 1124 460 q 1117 378 1124 378 l 640 378 q 640 366 640 372 q 640 354 640 360 q 658 205 640 269 q 710 95 676 140 q 791 28 744 51 q 897 6 839 6 q 984 18 947 6 q 1047 46 1022 31 q 1085 74 1072 61 q 1102 86 1099 86 q 1108 83 1105 86 l 1110 81 z "},"p":{"ha":755,"x_min":128,"x_max":669,"o":"m 144 135 q 244 35 189 64 q 371 6 299 6 q 495 32 442 6 q 583 103 548 58 q 635 211 618 149 q 653 344 653 273 q 588 596 653 514 q 397 678 523 678 q 257 635 322 678 q 144 519 192 593 l 144 135 m 144 540 q 255 651 190 610 q 397 692 320 692 q 599 607 529 692 q 669 344 669 522 q 650 206 669 270 q 594 94 631 142 q 500 19 556 47 q 371 -8 444 -8 q 144 113 221 -8 l 144 -250 l 128 -250 l 128 681 l 132 681 q 142 669 142 681 l 144 540 z "},"þ":{"ha":755,"x_min":128,"x_max":669,"o":"m 144 135 q 244 35 189 64 q 371 6 299 6 q 495 32 442 6 q 583 103 548 58 q 635 211 618 149 q 653 344 653 273 q 588 596 653 514 q 397 678 523 678 q 257 635 322 678 q 144 519 192 593 l 144 135 m 144 541 q 255 651 190 610 q 397 692 320 692 q 599 607 529 692 q 669 344 669 522 q 650 206 669 270 q 594 94 631 142 q 500 19 556 47 q 371 -8 444 -8 q 144 113 221 -8 l 144 -250 l 128 -250 l 128 1000 l 144 1000 l 144 541 z "},"q":{"ha":753,"x_min":85,"x_max":627,"o":"m 610 548 q 512 647 569 617 q 384 678 456 678 q 260 652 313 678 q 172 580 207 626 q 119 472 137 534 q 102 339 102 410 q 167 88 102 169 q 358 6 232 6 q 498 48 433 6 q 610 165 563 90 l 610 548 m 627 681 l 627 -250 l 610 -250 l 610 142 q 500 32 565 73 q 358 -8 435 -8 q 155 77 225 -8 q 85 339 85 162 q 104 477 85 413 q 160 589 123 542 q 254 664 198 637 q 384 692 310 692 q 516 662 460 692 q 610 569 572 632 l 613 669 q 623 681 613 681 l 627 681 z "},"r":{"ha":478,"x_min":128,"x_max":454,"o":"m 144 481 q 179 570 159 531 q 227 637 199 610 q 292 678 256 664 q 375 692 328 692 q 416 689 395 692 q 454 676 438 685 l 451 671 q 449 667 450 669 q 444 665 448 665 q 435 667 441 665 q 422 671 430 669 q 402 675 414 673 q 375 676 391 676 q 294 662 329 676 q 231 619 258 647 q 182 547 203 590 q 144 447 161 504 l 144 0 l 128 0 l 128 681 l 132 681 q 142 669 142 681 l 144 481 z "},"s":{"ha":581,"x_min":75,"x_max":505,"o":"m 481 621 q 474 617 479 617 q 458 626 469 617 q 427 647 447 635 q 375 668 406 658 q 298 678 344 678 q 219 665 255 678 q 158 630 183 651 q 118 579 132 608 q 103 519 103 551 q 121 458 103 483 q 166 416 138 433 q 231 388 194 399 q 304 364 267 376 q 378 340 342 353 q 442 308 414 327 q 488 260 470 288 q 505 190 505 232 q 490 112 505 149 q 447 48 475 75 q 377 5 418 21 q 283 -11 335 -11 q 217 -5 246 -11 q 163 11 188 1 q 117 37 139 22 q 75 71 96 52 l 79 75 q 83 78 81 77 q 88 79 84 79 q 106 67 93 79 q 141 41 118 56 q 198 15 163 26 q 283 3 233 3 q 371 17 333 3 q 436 57 410 32 q 476 116 463 83 q 490 189 490 150 q 472 255 490 228 q 427 299 455 281 q 363 329 399 317 q 289 352 326 341 q 215 376 251 363 q 151 407 179 388 q 106 452 123 425 q 88 519 88 479 q 103 584 88 553 q 147 639 119 615 q 213 677 174 663 q 298 692 251 692 q 399 676 356 692 q 484 625 443 660 l 481 621 z "},"ş":{"ha":581,"x_min":75,"x_max":505,"o":"m 281 -11 l 260 -76 q 315 -87 290 -81 q 356 -104 339 -94 q 383 -129 374 -114 q 393 -165 393 -144 q 385 -201 393 -185 q 363 -227 377 -216 q 328 -243 348 -237 q 285 -249 308 -249 q 228 -239 256 -249 q 185 -212 201 -228 l 188 -210 q 194 -206 192 -206 q 203 -210 197 -206 q 221 -221 210 -215 q 248 -231 232 -226 q 289 -236 265 -236 q 354 -218 331 -236 q 378 -167 378 -199 q 367 -131 378 -145 q 339 -109 357 -117 q 297 -95 321 -100 q 244 -87 272 -91 l 269 -11 q 208 -3 235 -10 q 158 13 181 3 q 115 38 135 24 q 75 71 94 53 l 79 75 q 83 78 81 77 q 88 79 84 79 q 106 67 93 79 q 141 41 118 56 q 198 15 163 26 q 283 3 233 3 q 371 17 333 3 q 436 57 410 32 q 476 116 463 83 q 490 189 490 150 q 472 255 490 228 q 427 299 455 281 q 363 329 399 317 q 289 352 326 341 q 215 376 251 363 q 151 407 179 388 q 106 452 123 425 q 88 519 88 479 q 103 584 88 553 q 147 639 119 615 q 213 677 174 663 q 298 692 251 692 q 399 676 356 692 q 484 625 443 660 l 481 621 q 474 617 479 617 q 458 626 469 617 q 427 647 447 635 q 375 668 406 658 q 298 678 344 678 q 219 665 255 678 q 158 630 183 651 q 118 579 132 608 q 103 519 103 551 q 121 458 103 483 q 166 416 138 433 q 231 388 194 399 q 304 364 267 376 q 378 340 342 353 q 442 308 414 327 q 488 260 470 288 q 505 190 505 232 q 490 112 505 149 q 447 48 475 75 q 377 5 418 21 q 283 -11 335 -11 l 281 -11 z "},"ß":{"ha":736,"x_min":128,"x_max":674,"o":"m 408 982 q 497 967 457 982 q 566 928 538 953 q 611 872 595 903 q 626 806 626 840 q 609 727 626 760 q 565 668 591 694 q 507 620 538 642 q 449 578 476 599 q 405 535 423 558 q 388 483 388 512 q 400 436 388 455 q 432 405 412 418 q 478 382 452 392 q 531 363 503 373 q 583 340 558 353 q 629 308 609 328 q 661 260 649 288 q 674 190 674 232 q 659 112 674 149 q 615 48 644 75 q 545 5 587 21 q 451 -11 504 -11 q 386 -5 415 -11 q 332 11 357 1 q 286 37 308 22 q 244 71 265 52 l 249 75 q 252 78 251 77 q 257 79 253 79 q 275 67 263 79 q 310 41 288 56 q 367 15 333 26 q 451 3 401 3 q 540 17 501 3 q 605 57 578 32 q 645 116 631 83 q 658 189 658 150 q 646 256 658 229 q 614 302 634 283 q 568 332 594 320 q 515 354 542 344 q 463 374 488 364 q 417 397 437 383 q 384 432 397 411 q 372 483 372 452 q 390 538 372 514 q 434 583 408 562 q 492 626 461 605 q 550 673 524 647 q 595 731 577 699 q 613 807 613 763 q 602 856 613 828 q 568 908 592 883 q 505 951 544 933 q 408 968 465 968 q 309 953 357 968 q 225 906 262 938 q 167 823 189 874 q 144 701 144 773 l 144 0 l 128 0 l 128 701 q 150 823 128 770 q 209 910 172 875 q 298 964 247 946 q 408 982 349 982 z "},"ſ":{"ha":339,"x_min":44,"x_max":431,"o":"m 167 756 q 181 857 167 814 q 219 927 194 899 q 278 968 244 955 q 353 982 312 982 q 394 978 373 982 q 431 967 416 974 l 429 961 q 423 957 428 956 q 408 960 417 958 q 385 965 399 963 q 353 968 371 968 q 286 957 317 968 q 232 920 255 945 q 196 854 209 894 q 183 756 183 813 l 183 0 l 167 0 l 167 638 l 53 640 q 44 646 44 640 l 44 651 l 167 651 l 167 756 z "},"t":{"ha":456,"x_min":44,"x_max":428,"o":"m 294 -11 q 200 22 234 -11 q 166 129 166 54 l 166 638 l 53 638 q 44 644 44 638 l 44 649 l 166 651 l 172 925 q 173 932 172 928 q 178 935 175 935 l 183 935 l 183 651 l 415 651 l 415 638 l 183 638 l 183 129 q 191 70 183 94 q 215 32 200 47 q 251 10 231 17 q 294 3 271 3 q 345 12 323 3 q 382 31 367 21 q 407 51 397 42 q 420 60 416 60 q 426 57 423 60 l 428 54 q 403 28 418 40 q 370 7 388 16 q 333 -6 353 -1 q 294 -11 313 -11 z "},"ť":{"ha":453,"x_min":41,"x_max":459,"o":"m 291 -11 q 197 22 231 -11 q 163 129 163 54 l 163 638 l 51 638 q 41 644 41 638 l 41 649 l 163 651 l 169 925 q 170 932 169 928 q 176 935 172 935 l 180 935 l 180 651 l 412 651 l 412 638 l 180 638 l 180 129 q 189 70 180 94 q 213 32 197 47 q 248 10 228 17 q 291 3 268 3 q 342 12 320 3 q 379 31 364 21 q 404 51 394 42 q 417 60 413 60 q 423 57 420 60 l 426 54 q 400 28 415 40 q 368 7 385 16 q 330 -6 350 -1 q 291 -11 310 -11 m 448 1001 q 459 986 459 1001 q 457 965 459 978 q 450 932 454 952 q 439 883 445 911 q 423 817 432 855 q 420 810 422 813 q 413 807 419 807 l 409 807 l 441 1001 l 448 1001 z "},"ŧ":{"ha":460,"x_min":47,"x_max":431,"o":"m 53 478 l 169 478 l 169 638 l 56 638 q 47 644 47 638 l 47 649 l 169 651 l 174 925 q 176 932 174 928 q 181 935 178 935 l 185 935 l 185 651 l 417 651 l 417 638 l 185 638 l 185 478 l 413 478 l 413 464 l 185 464 l 185 129 q 194 70 185 94 q 218 32 203 47 q 253 10 233 17 q 297 3 274 3 q 348 12 326 3 q 385 31 369 21 q 409 51 400 42 q 423 60 419 60 q 428 57 426 60 l 431 54 q 406 28 421 40 q 373 7 391 16 q 336 -6 356 -1 q 297 -11 316 -11 q 203 22 237 -11 q 169 129 169 54 l 169 464 l 53 464 l 53 478 z "},"u":{"ha":753,"x_min":120,"x_max":627,"o":"m 627 681 l 627 0 l 623 0 q 613 11 613 0 l 610 142 q 557 78 586 107 q 494 30 528 50 q 422 0 460 10 q 345 -11 385 -11 q 176 56 231 -11 q 120 244 120 124 l 120 681 l 137 681 l 137 244 q 149 143 137 188 q 188 67 162 98 q 253 19 214 35 q 345 3 292 3 q 492 45 425 3 q 610 163 560 88 l 610 681 l 627 681 z "},"ų":{"ha":753,"x_min":120,"x_max":719,"o":"m 719 -194 q 674 -222 701 -212 q 617 -232 647 -232 q 541 -208 572 -232 q 510 -136 510 -183 q 520 -91 510 -112 q 545 -51 531 -69 q 579 -18 560 -33 q 614 6 597 -4 q 613 11 613 8 l 610 142 q 557 78 586 107 q 494 30 528 50 q 422 0 460 10 q 345 -11 385 -11 q 176 56 231 -11 q 120 244 120 124 l 120 681 l 137 681 l 137 244 q 149 143 137 188 q 188 67 162 98 q 253 19 214 35 q 345 3 292 3 q 492 45 425 3 q 610 163 560 88 l 610 681 l 627 681 l 627 0 q 595 -20 613 -8 q 562 -51 578 -33 q 536 -90 547 -68 q 526 -136 526 -111 q 552 -197 526 -175 q 619 -218 579 -218 q 657 -213 641 -218 q 683 -203 672 -208 q 699 -192 693 -197 q 709 -187 706 -187 q 715 -190 712 -187 l 719 -194 z "},"v":{"ha":679,"x_min":38,"x_max":642,"o":"m 642 681 l 346 0 l 333 0 l 38 681 l 47 681 q 56 677 53 681 q 60 671 58 674 l 331 47 q 336 34 334 41 q 340 22 338 28 q 343 34 341 28 q 349 47 345 41 l 619 671 q 632 681 624 681 l 642 681 z "},"w":{"ha":1038,"x_min":45,"x_max":992,"o":"m 992 681 l 759 0 l 752 0 q 744 7 746 0 l 526 640 q 519 660 522 651 q 513 640 517 651 l 292 7 q 285 0 290 0 l 278 0 l 45 681 l 55 681 q 63 677 60 681 q 67 671 66 674 l 276 47 q 281 32 278 40 q 285 17 283 25 q 289 32 286 25 q 294 47 291 40 l 510 678 q 517 685 513 685 l 522 685 q 528 678 526 685 l 744 47 q 752 19 749 32 q 757 33 754 26 q 762 47 759 40 l 970 671 q 983 681 975 681 l 992 681 z "},"x":{"ha":617,"x_min":42,"x_max":574,"o":"m 574 0 l 559 0 q 551 4 553 0 q 547 10 549 8 l 308 339 q 306 335 307 337 q 302 329 305 333 l 70 10 q 64 3 67 6 q 58 0 62 0 l 42 0 l 297 347 l 52 681 l 67 681 q 75 677 73 681 q 80 671 78 673 l 309 355 q 315 365 311 360 l 537 671 q 542 677 539 674 q 549 681 545 681 l 565 681 l 319 348 l 574 0 z "},"y":{"ha":680,"x_min":38,"x_max":644,"o":"m 644 681 l 242 -235 q 236 -245 240 -240 q 226 -250 232 -250 l 216 -250 l 333 12 l 38 681 l 48 681 q 57 677 53 681 q 62 671 60 674 l 333 53 q 342 27 338 41 q 345 40 343 33 q 351 53 348 47 l 622 671 q 634 681 626 681 l 644 681 z "},"z":{"ha":606,"x_min":50,"x_max":554,"o":"m 554 681 l 554 674 q 553 670 554 672 q 550 665 552 669 l 74 14 l 533 14 l 533 0 l 50 0 l 50 4 q 51 9 50 8 q 54 14 52 10 l 532 667 l 74 667 l 74 681 l 554 681 z "},"ª":{"ha":511,"x_min":99,"x_max":391,"o":"m 376 782 q 178 750 242 778 q 115 675 115 723 q 123 636 115 652 q 145 609 131 619 q 175 594 158 599 q 210 589 192 589 q 262 595 239 589 q 306 612 285 601 q 343 637 326 623 q 376 667 360 651 l 376 782 m 123 918 q 186 965 153 949 q 262 981 219 981 q 359 943 328 981 q 391 840 391 906 l 391 582 l 385 582 q 378 589 380 582 l 376 650 q 301 595 340 615 q 209 575 263 575 q 169 581 189 575 q 134 598 150 586 q 109 628 119 610 q 99 674 99 647 q 115 722 99 700 q 165 760 131 744 q 251 785 199 776 q 376 796 303 794 l 376 840 q 349 934 376 901 q 262 967 322 967 q 206 958 229 967 q 168 939 183 949 q 144 920 153 928 q 131 911 135 911 q 126 914 128 911 l 123 918 z "},"º":{"ha":564,"x_min":97,"x_max":467,"o":"m 283 981 q 361 966 327 981 q 419 925 396 951 q 455 860 443 898 q 467 776 467 823 q 455 692 467 730 q 419 628 443 655 q 361 588 396 602 q 283 574 327 574 q 203 588 238 574 q 145 628 169 602 q 109 692 121 655 q 97 776 97 730 q 109 860 97 823 q 145 925 121 898 q 203 966 169 951 q 283 981 238 981 m 283 585 q 357 599 325 585 q 410 638 389 613 q 443 698 432 663 q 453 776 453 733 q 443 855 453 819 q 410 916 432 891 q 357 956 389 942 q 283 969 325 969 q 208 956 240 969 q 154 916 176 942 q 121 855 132 891 q 110 776 110 819 q 121 698 110 733 q 154 638 132 663 q 208 599 176 613 q 283 585 240 585 z "},"ⁿ":{"ha":402,"x_min":74,"x_max":332,"o":"m 89 903 q 145 957 113 937 q 219 978 178 978 q 304 944 276 978 q 332 849 332 910 l 332 631 l 317 631 l 317 849 q 292 935 317 904 q 217 965 268 965 q 146 945 178 965 q 89 890 113 925 l 89 631 l 74 631 l 74 972 l 81 972 q 86 965 86 972 l 89 903 z "},"`":{"ha":556,"x_min":172,"x_max":333,"o":"m 190 983 q 208 981 202 983 q 219 968 213 978 l 333 804 l 324 804 q 313 810 316 804 l 172 983 l 190 983 z "},"´":{"ha":556,"x_min":233,"x_max":394,"o":"m 394 983 l 254 810 q 243 804 251 804 l 233 804 l 347 968 q 359 981 353 978 q 376 983 365 983 l 394 983 z "},"ˆ":{"ha":556,"x_min":125,"x_max":431,"o":"m 431 813 l 418 813 q 407 818 413 813 l 282 954 q 278 959 279 957 q 274 954 276 957 l 149 818 q 144 814 147 816 q 138 813 141 813 l 125 813 l 272 972 l 283 972 l 431 813 z "},"ˇ":{"ha":556,"x_min":125,"x_max":431,"o":"m 431 972 l 283 813 l 272 813 l 125 972 l 138 972 q 149 967 143 972 l 274 831 q 278 826 276 828 q 282 831 279 828 l 407 967 q 418 972 413 972 l 431 972 z "},"̕":{"ha":0,"x_min":256,"x_max":306,"o":"m 294 1001 q 306 986 306 1001 q 303 965 306 978 q 296 932 301 952 q 285 883 292 911 q 269 817 278 855 q 267 810 268 813 q 260 807 265 807 l 256 807 l 288 1001 l 294 1001 z "},"˜":{"ha":556,"x_min":122,"x_max":440,"o":"m 360 863 q 411 885 394 863 q 429 942 428 908 l 440 942 q 435 906 440 923 q 421 876 431 889 q 396 856 411 864 q 360 849 381 849 q 318 861 338 849 q 280 889 299 874 q 243 917 261 904 q 204 929 224 929 q 175 923 188 929 q 153 906 162 917 q 140 881 144 895 q 135 850 135 866 l 122 850 q 127 886 122 869 q 143 915 133 903 q 169 935 153 928 q 204 943 184 943 q 247 931 227 943 q 284 903 266 918 q 321 875 303 888 q 360 863 340 863 z "},"¨":{"ha":556,"x_min":125,"x_max":431,"o":"m 203 889 q 191 863 203 874 q 164 851 178 851 q 136 863 148 851 q 125 889 125 874 q 136 916 125 905 q 164 928 148 928 q 191 916 178 928 q 203 889 203 905 m 431 889 q 418 863 431 874 q 392 851 406 851 q 364 863 376 851 q 353 889 353 874 q 364 916 353 905 q 392 928 376 928 q 418 916 406 928 q 431 889 431 905 z "},"¯":{"ha":556,"x_min":97,"x_max":458,"o":"m 97 896 l 458 896 l 458 882 l 97 882 l 97 896 z "},"˘":{"ha":556,"x_min":132,"x_max":424,"o":"m 278 814 q 211 826 239 814 q 166 861 183 839 q 140 911 148 883 q 132 972 132 940 l 146 972 q 153 918 146 944 q 175 872 160 892 q 216 840 191 852 q 278 828 241 828 q 339 840 314 828 q 380 872 365 852 q 403 918 396 892 q 410 972 410 944 l 424 972 q 416 911 424 940 q 390 861 408 883 q 344 826 372 839 q 278 814 317 814 z "},"˚":{"ha":556,"x_min":175,"x_max":381,"o":"m 175 896 q 183 935 175 917 q 205 967 191 953 q 238 988 219 981 q 278 996 256 996 q 318 988 299 996 q 351 967 337 981 q 373 935 365 953 q 381 896 381 917 q 373 856 381 874 q 351 825 365 838 q 318 803 337 811 q 278 796 299 796 q 238 803 256 796 q 205 825 219 811 q 183 856 191 838 q 175 896 175 874 m 190 896 q 197 861 190 877 q 215 833 203 845 q 243 815 227 822 q 278 808 259 808 q 313 815 297 808 q 340 833 328 822 q 359 861 352 845 q 365 896 365 877 q 359 931 365 915 q 340 958 352 947 q 313 977 328 970 q 278 983 297 983 q 243 977 259 983 q 215 958 227 970 q 197 931 203 947 q 190 896 190 915 z "},"˝":{"ha":556,"x_min":188,"x_max":510,"o":"m 346 983 l 208 810 q 197 804 205 804 l 188 804 l 301 968 q 313 981 308 978 q 331 983 319 983 l 346 983 m 510 983 l 356 810 q 344 804 352 804 l 335 804 l 463 968 q 475 981 470 978 q 492 983 480 983 l 510 983 z "},"˙":{"ha":556,"x_min":239,"x_max":317,"o":"m 317 944 q 305 918 317 930 q 278 907 292 907 q 250 918 262 907 q 239 944 239 930 q 250 972 239 960 q 278 983 262 983 q 305 972 292 983 q 317 944 317 960 z "},"¸":{"ha":556,"x_min":189,"x_max":397,"o":"m 265 -76 q 319 -87 294 -81 q 360 -104 343 -94 q 388 -129 378 -114 q 397 -165 397 -144 q 389 -201 397 -185 q 367 -227 381 -216 q 332 -243 352 -237 q 289 -249 313 -249 q 233 -239 260 -249 q 189 -212 205 -228 l 192 -210 q 199 -206 196 -206 q 208 -210 201 -206 q 225 -221 214 -215 q 252 -231 236 -226 q 293 -236 269 -236 q 358 -218 335 -236 q 382 -167 382 -199 q 372 -131 382 -145 q 343 -109 361 -117 q 301 -95 325 -100 q 249 -87 276 -91 l 276 0 l 289 0 l 265 -76 z "},"˛":{"ha":556,"x_min":182,"x_max":390,"o":"m 381 -187 q 386 -190 383 -187 l 390 -194 q 345 -222 372 -212 q 289 -232 318 -232 q 213 -208 243 -232 q 182 -136 182 -183 q 193 -89 182 -111 q 219 -48 203 -67 q 255 -15 235 -29 q 290 10 274 0 l 299 0 q 267 -20 285 -8 q 234 -51 249 -33 q 208 -90 218 -68 q 197 -136 197 -111 q 224 -197 197 -175 q 290 -218 251 -218 q 328 -213 313 -218 q 354 -203 344 -208 q 371 -192 365 -197 q 381 -187 377 -187 z "},"Γ":{"ha":750,"x_min":161,"x_max":729,"o":"m 729 957 l 178 957 l 178 0 l 161 0 l 161 972 l 729 972 l 729 957 z "},"Δ":{"ha":882,"x_min":33,"x_max":849,"o":"m 452 921 q 446 935 449 928 q 441 950 444 942 q 436 935 438 942 q 430 921 433 928 l 52 14 l 831 14 l 452 921 m 846 20 q 848 14 847 17 q 849 7 849 10 l 849 0 l 33 0 l 33 4 q 36 18 33 10 l 434 972 l 448 972 l 846 20 z "},"Θ":{"ha":1089,"x_min":95,"x_max":994,"o":"m 328 508 l 761 508 l 761 492 l 328 492 l 328 508 m 994 486 q 961 279 994 371 q 868 123 928 188 q 726 25 809 59 q 544 -10 644 -10 q 362 25 444 -10 q 220 123 280 59 q 128 279 161 188 q 95 486 95 371 q 128 693 95 601 q 220 849 161 785 q 362 949 280 914 q 544 983 444 983 q 726 949 644 983 q 868 850 809 915 q 961 693 928 785 q 994 486 994 601 m 976 486 q 944 689 976 599 q 856 841 913 778 q 719 936 799 903 q 544 969 640 969 q 370 936 449 969 q 234 841 291 903 q 144 689 176 778 q 112 486 112 599 q 144 284 112 373 q 234 132 176 194 q 370 37 291 70 q 544 4 449 4 q 719 37 640 4 q 856 132 799 70 q 944 284 913 194 q 976 486 976 373 z "},"Λ":{"ha":885,"x_min":30,"x_max":855,"o":"m 855 0 l 842 0 q 834 7 836 0 l 453 921 q 448 935 450 928 q 442 950 445 942 q 437 935 440 942 q 431 921 435 928 l 51 7 q 41 0 49 0 l 30 0 l 435 972 l 449 972 l 855 0 z "},"Ξ":{"ha":848,"x_min":74,"x_max":781,"o":"m 781 972 l 781 957 l 74 957 l 74 972 l 781 972 m 781 15 l 781 0 l 74 0 l 74 15 l 781 15 m 244 508 l 605 508 l 605 492 l 244 492 l 244 508 z "},"Π":{"ha":1039,"x_min":161,"x_max":878,"o":"m 878 0 l 861 0 l 861 957 l 178 957 l 178 0 l 161 0 l 161 972 l 878 972 l 878 0 z "},"Σ":{"ha":831,"x_min":56,"x_max":763,"o":"m 129 957 q 101 958 115 957 q 74 962 88 958 q 96 938 87 949 q 118 909 105 927 l 435 496 q 439 486 439 490 q 435 476 439 481 l 116 63 q 72 12 90 29 q 99 14 85 13 q 129 15 113 15 l 763 15 l 763 0 l 56 0 l 56 6 q 60 15 56 10 l 425 485 l 60 958 q 56 967 56 963 l 56 972 l 763 972 l 763 957 l 129 957 z "},"Φ":{"ha":1096,"x_min":71,"x_max":1025,"o":"m 556 66 q 744 100 660 66 q 886 193 828 135 q 977 328 945 251 q 1008 491 1008 405 q 977 654 1008 577 q 886 790 945 731 q 744 882 828 848 q 556 917 660 917 l 556 66 m 540 917 q 352 882 435 917 q 209 790 268 848 q 119 654 151 731 q 88 491 88 577 q 119 328 88 405 q 209 193 151 251 q 352 100 268 135 q 540 66 435 66 l 540 917 m 556 930 q 755 894 668 930 q 902 798 842 858 q 994 659 963 738 q 1025 491 1025 579 q 994 323 1025 402 q 902 184 963 244 q 755 88 842 124 q 556 53 668 53 l 556 -83 l 540 -83 l 540 53 q 341 88 428 53 q 193 184 253 124 q 102 323 133 244 q 71 491 71 402 q 103 659 71 579 q 196 798 135 738 q 344 894 257 858 q 540 930 431 930 l 540 1056 l 556 1056 l 556 930 z "},"Ψ":{"ha":1079,"x_min":90,"x_max":989,"o":"m 989 972 l 989 631 q 960 472 989 542 q 875 352 931 401 q 736 275 819 302 q 548 249 654 249 l 548 0 l 531 0 l 531 249 q 343 275 425 249 q 204 352 260 302 q 119 472 148 401 q 90 631 90 542 l 90 972 l 99 972 q 105 970 103 972 q 107 964 107 967 l 107 631 q 135 477 107 545 q 217 361 163 408 q 351 288 272 313 q 531 262 430 262 l 531 972 l 548 972 l 548 262 q 728 288 649 262 q 862 361 808 313 q 944 477 916 408 q 972 631 972 545 l 972 964 q 974 970 972 967 q 980 972 976 972 l 989 972 z "},"Ω":{"ha":1099,"x_min":99,"x_max":999,"o":"m 390 17 q 413 16 401 17 q 438 13 425 15 q 308 72 369 30 q 201 179 247 115 q 127 327 154 244 q 99 510 99 411 q 136 714 99 626 q 236 861 174 802 q 379 951 298 921 q 549 982 460 982 q 665 968 608 982 q 771 928 721 955 q 863 861 821 901 q 935 769 905 822 q 982 652 965 717 q 999 510 999 588 q 972 327 999 411 q 898 179 944 244 q 790 72 851 115 q 661 13 728 30 q 686 16 674 15 q 708 17 698 17 l 995 17 l 995 8 q 987 0 995 0 l 641 0 l 641 22 q 780 83 717 40 q 888 191 842 127 q 958 337 933 256 q 983 510 983 419 q 947 708 983 623 q 850 851 910 794 q 711 939 790 909 q 549 968 633 968 q 387 939 465 968 q 249 851 309 909 q 152 708 188 794 q 116 510 116 623 q 141 337 116 419 q 211 191 166 256 q 319 83 256 127 q 458 22 382 40 l 458 0 l 112 0 q 103 8 103 0 l 103 17 l 390 17 z "},"α":{"ha":788,"x_min":84,"x_max":771,"o":"m 624 476 q 594 550 614 514 q 544 615 574 587 q 474 660 515 643 q 380 678 433 678 q 270 655 321 678 q 181 588 219 632 q 122 480 144 544 q 101 333 101 416 q 120 192 101 253 q 174 90 140 131 q 252 27 208 48 q 346 6 297 6 q 435 24 392 6 q 514 78 478 42 q 572 167 549 115 q 602 288 596 220 l 624 476 m 771 10 l 771 3 q 740 -3 771 -3 q 685 5 711 -3 q 639 32 659 13 q 607 81 619 51 q 595 153 595 110 q 597 181 595 167 q 599 210 598 194 q 559 118 584 159 q 502 50 535 78 q 430 7 469 22 q 347 -8 391 -8 q 245 14 293 -8 q 161 81 197 37 q 105 188 126 124 q 84 333 84 251 q 107 487 84 420 q 171 599 131 553 q 265 668 211 644 q 378 692 318 692 q 473 675 431 692 q 547 631 515 658 q 598 570 578 604 q 628 501 619 535 l 647 669 q 650 678 649 676 q 657 681 651 681 l 661 681 l 619 288 q 613 219 615 253 q 610 165 610 186 q 621 93 610 122 q 650 45 631 63 q 694 19 669 27 q 751 10 720 10 l 771 10 z "},"β":{"ha":742,"x_min":127,"x_max":663,"o":"m 144 134 q 185 80 163 104 q 235 40 208 56 q 295 14 262 23 q 369 6 328 6 q 483 26 432 6 q 571 82 535 47 q 626 166 607 118 q 646 271 646 215 q 624 379 646 330 q 561 463 602 428 q 462 517 520 497 q 331 536 403 536 l 289 536 l 289 549 l 330 549 q 421 561 376 549 q 501 600 466 574 q 558 667 536 626 q 579 764 579 708 q 565 846 579 808 q 524 911 551 883 q 457 953 497 938 q 367 969 417 969 q 270 949 312 969 q 200 886 228 929 q 158 776 172 843 q 144 613 144 708 l 144 134 m 127 613 q 143 780 127 710 q 189 894 158 849 q 264 961 219 940 q 367 982 308 982 q 462 966 419 982 q 534 920 504 949 q 580 851 564 891 q 595 764 595 811 q 579 677 595 715 q 536 612 563 640 q 473 568 509 585 q 397 543 437 551 q 507 514 458 535 q 591 459 556 493 q 644 378 626 424 q 663 276 663 332 q 642 164 663 215 q 583 74 621 112 q 491 14 545 35 q 370 -8 437 -8 q 238 22 294 -8 q 144 113 181 51 l 144 -287 l 127 -287 l 127 613 z "},"γ":{"ha":706,"x_min":42,"x_max":658,"o":"m 658 681 q 605 477 631 565 q 546 315 578 390 q 474 173 514 241 q 381 29 434 105 l 381 -250 l 364 -250 l 364 36 q 282 333 319 213 q 209 528 244 454 q 140 635 174 603 q 69 668 106 668 l 42 668 l 42 675 q 45 680 42 678 q 62 682 48 682 q 143 651 106 682 q 218 547 181 621 q 293 351 255 474 q 376 43 332 228 q 462 177 424 109 q 532 321 501 246 q 590 481 564 397 q 638 664 615 566 q 643 677 640 674 q 650 681 646 681 l 658 681 z "},"δ":{"ha":740,"x_min":81,"x_max":659,"o":"m 373 6 q 482 25 432 6 q 567 81 531 44 q 623 170 603 118 q 642 290 642 223 q 620 415 642 360 q 564 511 599 469 q 484 585 528 553 q 395 645 440 617 q 277 599 332 628 q 183 528 223 569 q 120 431 143 486 q 98 306 98 376 q 115 193 98 247 q 166 97 132 138 q 252 30 201 55 q 373 6 304 6 m 568 956 q 565 949 568 950 q 556 948 562 948 q 538 951 554 948 q 498 957 522 953 q 444 963 474 960 q 384 965 414 965 q 299 957 333 965 q 243 933 264 948 q 212 899 222 919 q 203 858 203 880 q 222 795 203 824 q 274 742 242 767 q 347 693 306 717 q 431 641 388 668 q 515 581 474 614 q 588 507 556 549 q 640 414 620 466 q 659 294 659 362 q 637 167 659 223 q 576 72 615 110 q 485 12 538 33 q 373 -8 433 -8 q 245 17 300 -8 q 155 86 191 43 q 100 187 118 130 q 81 308 81 244 q 102 428 81 373 q 161 526 122 483 q 255 601 199 569 q 383 653 311 633 q 309 698 344 676 q 247 744 274 720 q 203 795 219 768 q 187 856 187 823 q 196 901 187 879 q 227 940 205 923 q 287 968 249 958 q 381 979 324 979 q 422 978 399 979 q 469 975 444 977 q 520 969 494 972 q 568 960 545 965 l 568 956 z "},"ε":{"ha":618,"x_min":83,"x_max":552,"o":"m 552 81 q 522 50 542 65 q 475 21 502 34 q 412 0 447 8 q 335 -8 377 -8 q 233 6 279 -8 q 153 47 187 21 q 102 109 120 73 q 83 186 83 144 q 95 249 83 219 q 133 302 108 278 q 197 342 158 326 q 288 364 235 358 q 202 387 237 370 q 145 427 167 404 q 114 475 124 449 q 104 524 104 501 q 118 584 104 554 q 160 638 132 614 q 232 677 189 662 q 335 692 276 692 q 455 672 404 692 q 541 621 506 652 l 537 617 q 531 614 534 614 q 515 624 527 614 q 479 646 502 634 q 420 668 456 658 q 335 678 385 678 q 238 665 278 678 q 171 630 197 651 q 132 581 144 608 q 119 524 119 553 q 135 464 119 492 q 180 415 151 436 q 250 383 209 394 q 341 371 291 371 l 453 371 l 453 357 l 341 357 q 238 344 283 357 q 162 309 193 332 q 115 256 131 287 q 99 187 99 224 q 117 114 99 147 q 165 57 134 81 q 240 19 197 33 q 335 6 283 6 q 430 18 392 6 q 492 46 468 31 q 528 74 516 61 q 544 86 540 86 q 549 83 547 86 l 552 81 z "},"ζ":{"ha":506,"x_min":83,"x_max":532,"o":"m 523 965 q 522 962 523 964 q 516 955 521 960 q 500 939 510 949 q 470 910 490 928 q 336 779 402 848 q 217 634 269 710 q 132 477 165 558 q 100 307 100 395 q 118 200 100 243 q 166 128 135 157 q 239 82 197 99 q 328 51 281 65 q 441 13 400 33 q 501 -26 481 -6 q 527 -64 522 -45 q 532 -99 532 -82 q 518 -177 532 -144 q 487 -241 504 -210 l 474 -233 q 503 -173 490 -205 q 516 -101 516 -141 q 511 -67 516 -84 q 488 -33 506 -49 q 433 1 469 -16 q 334 33 397 17 q 231 67 278 47 q 152 118 185 87 q 101 195 119 149 q 83 307 83 241 q 116 479 83 397 q 205 641 149 561 q 339 799 262 720 q 504 961 415 878 q 360 959 439 959 q 201 958 281 958 l 131 958 q 126 964 126 958 l 126 972 l 522 972 l 523 965 z "},"η":{"ha":781,"x_min":14,"x_max":660,"o":"m 14 679 q 33 686 14 686 q 133 651 97 686 q 169 537 169 617 q 222 601 192 572 q 286 650 252 629 q 358 681 320 670 q 435 692 395 692 q 605 624 549 692 q 660 436 660 557 l 660 -250 l 644 -250 l 644 436 q 631 538 644 493 q 593 614 619 583 q 527 661 567 645 q 435 678 488 678 q 288 635 356 678 q 170 518 221 593 l 170 0 l 153 0 l 153 537 q 125 640 153 608 q 33 672 96 672 l 14 672 l 14 679 z "},"θ":{"ha":813,"x_min":109,"x_max":703,"o":"m 126 482 q 144 278 126 367 q 197 129 162 190 q 284 36 232 68 q 406 5 337 5 q 528 36 476 5 q 616 129 581 68 q 669 278 651 190 q 688 482 688 367 l 126 482 m 688 496 q 669 697 687 608 q 615 845 651 785 q 528 937 580 906 q 406 969 476 969 q 285 937 338 969 q 198 845 233 906 q 144 697 163 785 q 126 496 126 608 l 688 496 m 406 982 q 533 949 478 982 q 627 853 589 917 q 684 698 665 790 q 703 485 703 605 q 684 273 703 365 q 627 118 665 181 q 533 24 589 56 q 406 -8 478 -8 q 279 24 334 -8 q 186 118 224 56 q 128 273 148 181 q 109 485 109 365 q 128 698 109 605 q 186 853 148 790 q 279 949 224 917 q 406 982 334 982 z "},"ι":{"ha":322,"x_min":122,"x_max":310,"o":"m 122 681 l 139 681 l 139 147 q 170 41 139 78 q 269 5 202 5 l 310 5 l 310 -2 q 309 -5 310 -3 q 304 -7 308 -6 q 292 -8 300 -8 q 269 -9 283 -9 q 160 31 197 -9 q 122 147 122 70 l 122 681 z "},"λ":{"ha":715,"x_min":61,"x_max":719,"o":"m 719 9 l 719 2 q 715 -3 719 -1 q 690 -5 710 -5 q 649 -1 668 -5 q 612 14 629 3 q 580 44 595 24 q 553 97 565 64 l 351 610 q 346 623 349 617 q 342 637 344 630 q 333 613 338 624 l 85 10 q 80 3 83 6 q 71 0 76 0 l 61 0 l 333 652 l 240 887 q 222 922 232 907 q 198 948 213 938 q 163 963 183 958 q 115 968 143 968 l 74 968 l 74 975 q 80 980 74 978 q 108 982 85 982 q 204 961 171 982 q 254 897 237 940 l 568 105 q 615 30 590 51 q 678 9 641 9 l 719 9 z "},"μ":{"ha":808,"x_min":127,"x_max":794,"o":"m 794 8 l 794 1 q 764 -6 794 -6 q 709 3 735 -6 q 663 29 683 11 q 631 74 643 47 q 619 142 619 102 q 502 30 571 71 q 352 -11 433 -11 q 210 32 262 -11 q 142 153 159 74 q 143 116 142 135 q 143 78 143 97 q 144 41 144 59 q 144 7 144 22 l 144 -250 l 135 -250 q 129 -248 131 -250 q 127 -242 127 -245 l 127 681 l 144 681 l 144 244 q 156 143 144 188 q 195 67 169 98 q 260 19 221 35 q 352 3 299 3 q 499 44 432 3 q 617 160 567 85 l 617 681 l 634 681 l 634 144 q 644 83 634 108 q 674 41 655 57 q 718 16 692 24 q 775 8 744 8 l 794 8 z "},"ν":{"ha":687,"x_min":38,"x_max":638,"o":"m 638 681 q 601 536 620 603 q 561 412 582 470 q 518 301 541 353 q 468 199 494 249 q 410 100 441 149 q 343 0 379 51 l 333 0 l 38 681 l 47 681 q 56 677 53 681 q 60 671 58 674 l 331 47 q 336 33 334 40 q 340 18 339 26 q 429 157 388 85 q 504 309 469 229 q 567 478 538 390 q 617 667 595 567 q 622 678 619 675 q 630 681 626 681 l 638 681 z "},"ξ":{"ha":515,"x_min":78,"x_max":511,"o":"m 478 966 q 469 957 478 957 l 417 957 q 304 938 356 957 q 216 885 253 918 q 158 810 179 853 q 138 723 138 768 q 154 648 138 683 q 202 589 170 614 q 282 550 235 564 q 393 536 330 536 l 437 536 l 437 522 l 379 522 q 255 504 308 522 q 167 456 202 487 q 114 382 131 425 q 97 287 97 339 q 117 191 97 231 q 173 123 138 151 q 255 75 208 95 q 352 40 301 56 q 438 7 406 22 q 486 -25 470 -9 q 507 -58 502 -41 q 511 -94 511 -75 q 497 -174 511 -139 q 466 -240 483 -209 l 452 -231 q 482 -171 468 -203 q 495 -94 495 -138 q 491 -61 495 -77 q 472 -32 487 -46 q 427 -3 456 -17 q 349 25 399 10 q 248 60 297 40 q 162 110 199 81 q 102 183 124 140 q 80 288 80 226 q 94 374 80 333 q 137 447 108 415 q 208 501 165 479 q 310 531 251 522 q 226 558 262 540 q 167 602 190 576 q 132 658 144 627 q 121 723 121 689 q 136 801 121 763 q 180 871 151 840 q 250 926 208 903 q 343 960 291 950 q 302 959 322 960 q 259 958 281 958 q 212 958 237 958 q 156 958 187 958 l 84 958 q 78 963 78 958 l 78 972 l 478 972 l 478 966 z "},"π":{"ha":805,"x_min":61,"x_max":747,"o":"m 747 658 q 745 653 747 654 q 737 651 743 651 l 602 651 q 601 539 602 590 q 599 443 600 488 q 597 356 598 397 q 597 275 597 315 q 603 140 597 192 q 625 60 610 88 q 664 22 640 31 q 719 12 687 12 l 735 12 l 735 5 q 729 0 735 2 q 706 -2 724 -2 q 652 7 676 -2 q 613 43 629 17 q 589 118 597 70 q 581 244 581 166 q 582 318 581 274 q 584 416 583 363 q 587 530 585 469 q 588 651 588 590 l 247 651 q 228 350 246 475 q 186 147 211 226 q 134 33 162 69 q 84 -3 106 -3 q 71 1 71 -3 l 71 14 l 84 14 q 125 49 100 14 q 173 159 149 83 q 213 357 196 235 q 231 651 231 478 l 61 651 l 61 657 q 64 664 61 660 q 72 667 66 667 l 747 667 l 747 658 z "},"ρ":{"ha":759,"x_min":119,"x_max":674,"o":"m 135 150 q 242 41 181 77 q 376 6 303 6 q 500 32 447 6 q 588 103 553 58 q 640 211 623 149 q 658 344 658 273 q 638 491 658 428 q 583 595 618 554 q 498 657 547 637 q 390 678 449 678 q 290 659 336 678 q 209 603 243 640 q 155 516 174 567 q 135 401 135 465 l 135 150 m 119 401 q 140 523 119 469 q 197 614 160 576 q 283 672 233 651 q 390 692 333 692 q 503 670 451 692 q 594 607 556 649 q 653 498 632 564 q 674 344 674 433 q 655 206 674 270 q 599 94 636 142 q 505 19 561 47 q 376 -8 449 -8 q 238 28 301 -8 q 135 127 175 64 l 135 -250 l 119 -250 l 119 401 z "},"σ":{"ha":776,"x_min":85,"x_max":744,"o":"m 422 660 q 273 636 334 660 q 174 570 212 613 q 119 468 136 528 q 102 338 102 409 q 122 197 102 258 q 177 92 141 135 q 266 28 214 50 q 385 6 319 6 q 506 29 453 6 q 593 97 558 53 q 645 203 628 140 q 663 343 663 265 q 606 567 663 485 q 438 660 548 648 l 422 660 m 744 674 l 744 671 q 741 663 744 667 q 731 660 738 660 l 492 660 q 574 618 539 646 q 633 550 609 590 q 668 457 656 509 q 680 343 680 405 q 661 200 680 265 q 605 89 642 135 q 513 17 567 42 q 385 -8 458 -8 q 262 15 317 -8 q 168 82 207 38 q 107 191 128 126 q 85 339 85 256 q 104 476 85 414 q 164 581 123 538 q 268 649 204 625 q 421 674 331 674 l 744 674 z "},"ς":{"ha":619,"x_min":83,"x_max":574,"o":"m 569 617 q 564 614 567 614 q 548 624 560 614 q 515 646 537 634 q 460 668 493 658 q 381 678 427 678 q 263 655 315 678 q 174 590 210 631 q 119 490 138 548 q 100 363 100 432 q 125 227 100 281 q 192 136 150 172 q 287 78 233 100 q 399 38 341 56 q 485 5 453 21 q 533 -26 517 -10 q 553 -59 549 -42 q 558 -96 558 -76 q 544 -175 558 -140 q 513 -241 530 -210 l 499 -233 q 528 -172 515 -205 q 542 -96 542 -140 q 538 -63 542 -78 q 518 -33 533 -47 q 474 -5 503 -18 q 395 24 445 9 q 270 68 327 43 q 171 131 213 93 q 107 225 130 169 q 83 363 83 281 q 103 494 83 434 q 162 598 124 554 q 255 667 200 642 q 381 692 310 692 q 491 672 442 692 q 574 621 539 652 l 569 617 z "},"τ":{"ha":615,"x_min":33,"x_max":573,"o":"m 573 660 q 570 654 573 656 q 563 651 568 651 l 287 651 l 287 154 q 318 48 287 85 q 417 12 350 12 l 458 12 l 458 5 q 457 2 458 3 q 452 0 456 1 q 440 -1 448 -1 q 417 -2 431 -2 q 308 38 345 -2 q 270 154 270 77 l 270 651 l 33 651 l 33 660 q 41 667 33 667 l 573 667 l 573 660 z "},"υ":{"ha":747,"x_min":120,"x_max":641,"o":"m 599 681 q 616 601 608 638 q 630 528 624 565 q 638 454 635 492 q 641 372 641 416 q 619 199 641 272 q 561 80 598 127 q 475 11 524 33 q 372 -11 426 -11 q 268 6 315 -11 q 189 56 222 24 q 138 136 156 89 q 120 244 120 184 l 120 681 l 137 681 l 137 244 q 153 143 137 188 q 201 67 170 98 q 275 19 232 35 q 372 3 318 3 q 463 23 418 3 q 544 87 508 43 q 602 201 580 131 q 624 372 624 272 q 613 522 624 444 q 583 671 601 599 q 584 678 582 676 q 590 681 586 681 l 599 681 z "},"φ":{"ha":910,"x_min":83,"x_max":827,"o":"m 461 6 q 617 35 551 6 q 726 113 683 63 q 790 227 769 162 q 810 367 810 293 q 794 486 810 430 q 748 585 778 542 q 678 653 719 628 q 588 678 637 678 q 492 638 522 678 q 461 519 461 598 l 461 6 m 444 519 q 479 648 444 603 q 588 692 514 692 q 684 666 640 692 q 759 597 728 641 q 809 494 791 553 q 827 367 827 435 q 805 220 827 289 q 736 101 782 152 q 622 22 690 51 q 461 -8 553 -8 l 461 -250 l 444 -250 l 444 -8 q 285 21 353 -8 q 172 98 217 50 q 105 209 127 146 q 83 340 83 272 q 97 456 83 401 q 139 554 112 510 q 207 632 167 598 q 297 688 247 666 l 299 681 q 299 675 301 678 q 294 671 298 672 q 209 615 245 649 q 148 537 172 581 q 111 443 124 493 q 99 340 99 393 q 119 216 99 276 q 182 109 140 156 q 290 34 224 63 q 444 6 355 6 l 444 519 z "},"χ":{"ha":619,"x_min":-1,"x_max":640,"o":"m 640 -240 l 640 -247 q 636 -251 640 -249 q 619 -253 633 -253 q 585 -250 602 -253 q 552 -235 569 -246 q 520 -204 536 -224 q 490 -152 505 -184 l 316 228 q 305 200 311 215 q 292 174 298 186 l 77 -238 q 73 -244 76 -241 q 64 -248 69 -248 l 54 -248 l 307 239 l 147 589 q 127 624 138 609 q 102 650 117 640 q 67 665 87 660 q 19 670 47 670 l -1 670 l -1 677 q 2 682 -1 680 q 19 684 5 684 q 108 663 76 684 q 160 599 140 642 l 318 253 q 342 309 329 283 l 529 671 q 534 677 531 674 q 542 681 537 681 l 552 681 l 327 243 l 506 -144 q 530 -189 518 -170 q 556 -218 542 -207 q 585 -235 569 -230 q 619 -240 601 -240 l 640 -240 z "},"ψ":{"ha":978,"x_min":117,"x_max":874,"o":"m 833 681 q 850 601 842 638 q 863 528 858 565 q 871 454 868 492 q 874 372 874 416 q 859 245 874 301 q 816 147 843 190 q 752 75 788 105 q 673 27 715 46 q 586 -1 631 8 q 498 -11 542 -10 l 498 -250 l 481 -250 l 481 -11 q 342 9 408 -10 q 226 67 276 29 q 147 162 176 106 q 117 293 117 219 l 117 681 l 127 681 q 132 678 131 681 q 134 672 134 675 l 134 293 q 160 176 134 229 q 232 85 185 123 q 341 25 278 47 q 481 3 405 3 l 481 972 l 498 972 l 498 3 q 577 12 536 3 q 659 38 619 20 q 735 84 699 56 q 799 152 772 112 q 843 247 826 193 q 859 372 859 301 q 847 522 859 444 q 817 671 835 599 q 817 678 815 676 q 823 681 819 681 l 833 681 z "},"ω":{"ha":968,"x_min":86,"x_max":882,"o":"m 772 681 q 814 597 794 639 q 849 511 834 556 q 873 416 864 466 q 882 310 882 367 q 861 163 882 224 q 809 64 841 102 q 735 7 776 25 q 654 -11 694 -11 q 601 -3 628 -11 q 550 25 574 6 q 509 78 526 45 q 484 161 491 112 q 459 78 477 112 q 418 25 442 45 q 367 -3 394 6 q 314 -11 340 -11 q 232 7 273 -11 q 159 64 192 25 q 107 163 127 102 q 86 310 86 224 q 95 416 86 367 q 119 511 103 466 q 154 597 134 556 q 197 681 174 639 l 205 681 q 211 678 208 681 q 211 671 213 675 q 129 488 157 576 q 101 310 101 401 q 111 204 101 250 q 139 124 122 158 q 177 67 156 90 q 223 30 199 44 q 270 9 247 15 q 313 3 293 3 q 381 18 351 3 q 432 60 410 33 q 464 127 453 88 q 476 216 476 167 l 476 449 l 492 449 l 492 216 q 504 127 492 167 q 536 60 515 88 q 588 18 558 33 q 655 3 617 3 q 698 9 674 3 q 745 30 722 15 q 791 67 769 44 q 830 124 813 90 q 857 204 847 158 q 867 310 867 250 q 839 488 867 401 q 757 671 811 576 q 757 678 755 675 q 763 681 760 681 l 772 681 z "},"΄":{"ha":556,"x_min":270,"x_max":359,"o":"m 270 805 l 333 1008 l 346 1008 q 356 1002 352 1008 q 356 989 359 997 l 286 805 l 270 805 z "},"΅":{"ha":556,"x_min":127,"x_max":488,"o":"m 270 805 l 333 1008 l 346 1008 q 356 1002 352 1008 q 356 989 359 997 l 286 805 l 270 805 m 488 868 q 476 842 488 853 q 449 831 464 831 q 422 842 433 831 q 410 868 410 853 q 422 895 410 884 q 449 907 433 907 q 476 895 464 907 q 488 868 488 884 m 205 868 q 193 842 205 853 q 166 831 181 831 q 139 842 150 831 q 127 868 127 853 q 139 895 127 884 q 166 907 150 907 q 193 895 181 907 q 205 868 205 884 z "},"ʹ":{"ha":257,"x_min":92,"x_max":160,"o":"m 159 1038 q 159 973 160 1006 q 152 906 158 939 q 132 842 145 873 q 96 783 119 810 l 93 787 q 92 789 92 788 q 93 793 92 790 q 136 883 122 833 q 140 983 150 933 l 140 1027 q 141 1034 140 1031 q 149 1038 143 1038 l 159 1038 z "},"͵":{"ha":257,"x_min":92,"x_max":160,"o":"m 159 156 q 159 91 160 124 q 152 24 158 57 q 132 -40 145 -9 q 96 -99 119 -72 l 93 -95 q 92 -93 92 -94 q 93 -89 92 -92 q 136 1 122 -49 q 140 101 150 51 l 140 145 q 141 152 140 149 q 149 156 143 156 l 159 156 z "},"Б":{"ha":831,"x_min":161,"x_max":746,"o":"m 438 14 q 654 78 579 14 q 729 263 729 142 q 654 441 729 382 q 439 500 579 500 l 178 500 l 178 14 l 438 14 m 439 514 q 667 450 588 514 q 746 263 746 386 q 726 152 746 201 q 666 69 706 103 q 569 18 627 35 q 438 0 512 0 l 161 0 l 161 972 l 718 972 l 718 958 l 178 958 l 178 514 l 439 514 z "},"Г":{"ha":736,"x_min":161,"x_max":715,"o":"m 715 957 l 178 957 l 178 0 l 161 0 l 161 972 l 715 972 l 715 957 z "},"Ґ":{"ha":736,"x_min":161,"x_max":715,"o":"m 715 957 l 178 957 l 178 0 l 161 0 l 161 972 l 700 972 l 700 1201 l 715 1201 l 715 957 z "},"Д":{"ha":1022,"x_min":10,"x_max":987,"o":"m 792 15 l 792 957 l 340 957 q 322 669 333 797 q 297 443 311 542 q 264 272 282 344 q 224 148 246 199 q 178 65 203 97 q 127 15 154 33 l 792 15 m 987 15 l 987 -242 q 979 -250 987 -250 l 972 -250 l 972 0 l 26 0 l 26 -242 q 18 -250 26 -250 l 10 -250 l 10 15 l 92 15 q 147 50 120 24 q 197 124 174 76 q 240 244 220 172 q 277 420 260 317 q 305 660 293 524 q 324 972 317 797 l 809 972 l 809 15 l 987 15 z "},"Ж":{"ha":1351,"x_min":36,"x_max":1315,"o":"m 1315 0 l 1305 0 q 1290 8 1296 0 l 932 437 q 886 475 912 461 q 819 489 861 489 l 684 489 l 684 0 l 667 0 l 667 489 l 533 489 q 465 475 490 489 q 419 437 440 461 l 63 8 q 47 0 56 0 l 36 0 l 406 444 q 444 478 423 465 q 497 497 466 492 q 446 515 466 502 q 407 551 426 528 l 48 972 l 58 972 q 67 969 63 972 q 74 963 71 967 l 423 555 q 451 528 437 538 q 479 513 465 518 q 510 505 494 507 q 544 503 526 503 l 667 503 l 667 972 l 684 972 l 684 503 l 807 503 q 842 505 826 503 q 872 513 858 507 q 901 528 887 518 q 928 555 915 538 l 1277 963 q 1284 969 1281 967 q 1293 972 1288 972 l 1303 972 l 944 551 q 906 515 926 528 q 855 497 885 502 q 907 478 885 492 q 946 444 928 465 l 1315 0 z "},"З":{"ha":780,"x_min":59,"x_max":684,"o":"m 103 885 q 158 928 130 910 q 217 958 186 946 q 285 975 249 969 q 364 981 321 981 q 483 963 430 981 q 573 914 535 945 q 630 839 610 882 q 649 747 649 797 q 632 661 649 699 q 586 596 615 624 q 523 551 558 569 q 451 527 488 534 q 552 497 508 519 q 625 440 595 474 q 669 363 654 406 q 684 274 684 321 q 662 163 684 214 q 598 73 640 111 q 495 12 556 34 q 356 -10 434 -10 q 259 -1 302 -10 q 181 24 217 8 q 116 64 146 40 q 59 117 86 87 l 62 119 q 65 123 64 122 q 70 124 67 124 q 83 115 74 124 q 107 93 92 106 q 144 64 122 79 q 196 35 166 49 q 266 13 226 22 q 356 4 306 4 q 489 25 431 4 q 586 83 547 47 q 647 168 626 119 q 667 271 667 216 q 650 367 667 322 q 598 446 632 413 q 512 500 563 480 q 395 519 461 519 l 272 519 l 272 535 l 405 535 q 488 550 447 535 q 561 591 528 564 q 613 658 593 618 q 633 747 633 697 q 614 835 633 795 q 561 905 595 876 q 477 951 526 935 q 367 967 428 967 q 285 961 321 967 q 223 944 250 954 q 178 922 197 934 q 147 900 159 910 q 126 884 134 890 q 113 877 118 877 q 106 881 108 877 l 103 885 z "},"И":{"ha":1039,"x_min":161,"x_max":878,"o":"m 878 972 l 878 0 l 861 0 l 861 893 q 861 922 861 908 q 863 950 861 935 q 849 930 855 938 q 835 911 842 921 l 181 5 q 172 0 178 0 l 161 0 l 161 972 l 178 972 l 178 79 q 178 51 178 65 q 176 22 178 37 q 190 43 184 34 q 203 61 197 51 l 858 967 q 867 972 861 972 l 878 972 z "},"К":{"ha":852,"x_min":161,"x_max":825,"o":"m 825 0 l 815 0 q 802 3 807 0 q 790 13 797 6 l 416 441 q 396 462 406 453 q 375 477 387 471 q 349 486 364 483 q 313 489 333 489 l 178 489 l 178 0 l 161 0 l 161 972 l 178 972 l 178 503 l 301 503 q 335 505 319 503 q 364 512 350 506 q 390 527 377 517 q 417 554 403 538 l 767 963 q 788 972 775 972 l 797 972 l 433 550 q 395 515 414 528 q 349 497 377 502 q 394 480 376 492 q 430 448 412 468 l 825 0 z "},"Л":{"ha":951,"x_min":-9,"x_max":790,"o":"m 790 0 l 773 0 l 773 957 l 321 957 q 298 610 312 759 q 265 355 284 462 q 220 178 245 248 q 166 67 195 108 q 101 9 136 26 q 28 -7 67 -7 q 17 -7 24 -7 q 5 -6 10 -6 q -5 -3 -1 -5 q -9 -1 -9 -2 l -9 9 l 28 9 q 96 26 64 9 q 156 85 128 43 q 207 198 184 127 q 249 376 231 269 q 282 630 268 483 q 305 972 296 777 l 790 972 l 790 0 z "},"Љ":{"ha":1424,"x_min":-9,"x_max":1358,"o":"m 1049 14 q 1266 78 1191 14 q 1341 263 1341 142 q 1266 441 1341 382 q 1051 500 1191 500 l 790 500 l 790 14 l 1049 14 m 1051 514 q 1278 450 1199 514 q 1358 263 1358 386 q 1338 152 1358 201 q 1278 69 1317 103 q 1181 18 1239 35 q 1049 0 1124 0 l 773 0 l 773 957 l 321 957 q 298 610 312 759 q 265 355 284 462 q 220 178 245 248 q 166 67 195 108 q 101 9 136 26 q 28 -7 67 -7 q 17 -7 24 -7 q 5 -6 10 -6 q -5 -3 -1 -5 q -9 -1 -9 -2 l -9 9 l 28 9 q 96 26 64 9 q 156 85 128 43 q 207 198 184 127 q 249 376 231 269 q 282 630 268 483 q 305 972 296 777 l 790 972 l 790 514 l 1051 514 z "},"Њ":{"ha":1513,"x_min":161,"x_max":1446,"o":"m 1138 14 q 1354 78 1279 14 q 1429 263 1429 142 q 1354 441 1429 382 q 1139 500 1279 500 l 878 500 l 878 14 l 1138 14 m 1139 514 q 1367 450 1288 514 q 1446 263 1446 386 q 1426 152 1446 201 q 1366 69 1406 103 q 1269 18 1327 35 q 1138 0 1212 0 l 861 0 l 861 486 l 178 486 l 178 0 l 161 0 l 161 972 l 178 972 l 178 501 l 861 501 l 861 972 l 878 972 l 878 514 l 1139 514 z "},"Ѳ":{"ha":1089,"x_min":95,"x_max":994,"o":"m 112 486 q 144 284 112 373 q 234 132 176 194 q 370 37 291 70 q 544 4 449 4 q 719 37 640 4 q 856 132 799 70 q 944 284 913 194 q 976 486 976 373 l 976 492 l 112 492 l 112 486 m 976 508 q 940 701 972 616 q 850 847 907 787 q 715 938 793 906 q 544 969 638 969 q 374 938 452 969 q 239 847 297 906 q 149 701 182 787 q 112 508 115 616 l 976 508 m 544 983 q 726 949 644 983 q 868 850 809 915 q 961 693 928 785 q 994 486 994 601 q 961 279 994 371 q 868 123 928 188 q 726 25 809 59 q 544 -10 644 -10 q 362 25 444 -10 q 220 123 280 59 q 128 279 161 188 q 95 486 95 371 q 128 693 95 601 q 220 849 161 785 q 362 949 280 914 q 544 983 444 983 z "},"П":{"ha":990,"x_min":161,"x_max":829,"o":"m 829 0 l 813 0 l 813 957 l 178 957 l 178 0 l 161 0 l 161 972 l 829 972 l 829 0 z "},"У":{"ha":809,"x_min":39,"x_max":781,"o":"m 781 972 l 379 106 q 316 20 351 47 q 227 -7 281 -7 q 216 -7 223 -7 q 204 -6 210 -6 q 194 -3 199 -5 q 190 -1 190 -2 l 190 9 l 227 9 q 307 34 274 9 q 363 111 340 60 l 431 264 l 39 972 l 53 972 q 63 967 59 972 l 420 317 q 432 297 426 308 q 441 274 438 285 q 450 296 444 285 q 460 318 455 307 l 757 967 q 767 972 760 972 l 781 972 z "},"Ѵ":{"ha":923,"x_min":30,"x_max":899,"o":"m 750 885 q 770 923 758 906 q 799 950 783 940 q 831 967 814 961 q 863 972 847 972 q 873 972 867 972 q 885 971 880 972 q 895 969 891 970 q 899 966 899 967 l 899 959 l 863 959 q 807 938 833 959 q 767 881 780 917 l 449 0 l 435 0 l 30 972 l 42 972 q 51 965 49 972 l 431 51 q 438 37 435 44 q 442 22 440 30 q 448 37 445 30 q 453 51 450 44 l 750 885 z "},"Ф":{"ha":1018,"x_min":78,"x_max":939,"o":"m 517 136 q 685 167 610 136 q 813 249 760 197 q 894 371 865 301 q 922 517 922 440 q 894 664 922 594 q 813 785 865 733 q 685 868 760 837 q 517 899 610 899 l 517 136 m 501 899 q 332 868 407 899 q 205 785 258 837 q 124 664 152 733 q 96 517 96 594 q 124 371 96 440 q 205 249 152 301 q 332 167 258 197 q 501 136 407 136 l 501 899 m 517 912 q 697 880 618 912 q 829 794 775 848 q 911 668 883 740 q 939 517 939 597 q 911 366 939 438 q 829 240 883 294 q 697 154 775 186 q 517 122 618 122 l 517 0 l 501 0 l 501 122 q 322 154 400 122 q 189 240 243 186 q 107 366 135 294 q 78 517 78 438 q 108 668 78 597 q 191 794 137 740 q 324 880 246 848 q 501 912 403 912 l 501 1025 l 517 1025 l 517 912 z "},"Ц":{"ha":1038,"x_min":161,"x_max":1000,"o":"m 1000 15 l 1000 -242 q 992 -250 1000 -250 l 985 -250 l 985 0 l 161 0 l 161 972 l 178 972 l 178 15 l 813 15 l 813 972 l 829 972 l 829 15 l 1000 15 z "},"Џ":{"ha":990,"x_min":161,"x_max":829,"o":"m 829 972 l 829 0 l 503 0 l 503 -242 q 495 -250 503 -250 l 488 -250 l 488 0 l 161 0 l 161 972 l 178 972 l 178 15 l 813 15 l 813 972 l 829 972 z "},"Ч":{"ha":872,"x_min":85,"x_max":711,"o":"m 711 972 l 711 0 l 694 0 l 694 498 q 544 457 619 474 q 402 435 469 440 q 276 437 334 429 q 176 471 218 445 q 109 544 133 497 q 85 663 85 591 l 85 972 l 101 972 l 101 663 q 122 556 101 599 q 182 488 143 513 q 274 454 220 463 q 393 450 328 445 q 535 471 459 455 q 694 513 612 488 l 694 972 l 711 972 z "},"Ш":{"ha":1468,"x_min":161,"x_max":1307,"o":"m 1307 972 l 1307 0 l 161 0 l 161 972 l 178 972 l 178 15 l 722 15 l 722 972 l 739 972 l 739 15 l 1290 15 l 1290 972 l 1307 972 z "},"Щ":{"ha":1516,"x_min":161,"x_max":1478,"o":"m 1478 15 l 1478 -242 q 1470 -250 1478 -250 l 1463 -250 l 1463 0 l 161 0 l 161 972 l 178 972 l 178 15 l 722 15 l 722 972 l 739 972 l 739 15 l 1290 15 l 1290 972 l 1307 972 l 1307 15 l 1478 15 z "},"Ъ":{"ha":963,"x_min":20,"x_max":897,"o":"m 588 14 q 805 78 730 14 q 880 263 880 142 q 805 441 880 382 q 590 500 730 500 l 328 500 l 328 14 l 588 14 m 590 514 q 817 450 738 514 q 897 263 897 386 q 876 152 897 201 q 817 69 856 103 q 720 18 778 35 q 588 0 663 0 l 312 0 l 312 957 l 20 957 l 20 972 l 328 972 l 328 514 l 590 514 z "},"Ы":{"ha":1188,"x_min":161,"x_max":1026,"o":"m 438 14 q 654 78 579 14 q 729 263 729 142 q 654 441 729 382 q 439 500 579 500 l 178 500 l 178 14 l 438 14 m 439 514 q 667 450 588 514 q 746 263 746 386 q 726 152 746 201 q 666 69 706 103 q 569 18 627 35 q 438 0 512 0 l 161 0 l 161 972 l 178 972 l 178 514 l 439 514 m 1026 0 l 1010 0 l 1010 972 l 1026 972 l 1026 0 z "},"Ь":{"ha":813,"x_min":161,"x_max":746,"o":"m 438 14 q 654 78 579 14 q 729 263 729 142 q 654 441 729 382 q 439 500 579 500 l 178 500 l 178 14 l 438 14 m 439 514 q 667 450 588 514 q 746 263 746 386 q 726 152 746 201 q 666 69 706 103 q 569 18 627 35 q 438 0 512 0 l 161 0 l 161 972 l 178 972 l 178 514 l 439 514 z "},"Э":{"ha":961,"x_min":71,"x_max":867,"o":"m 90 869 q 158 918 124 897 q 231 954 192 940 q 311 976 269 969 q 401 983 353 983 q 591 948 505 983 q 738 846 676 912 q 833 689 799 781 q 867 486 867 597 q 833 279 867 371 q 739 122 799 187 q 596 23 678 58 q 415 -11 513 -11 q 305 -1 355 -11 q 213 27 255 9 q 136 69 172 44 q 71 124 101 94 l 77 129 q 82 131 79 131 q 88 128 84 131 q 152 75 119 98 q 224 35 185 51 q 309 11 263 19 q 415 3 356 3 q 588 36 508 3 q 726 131 667 69 q 817 283 784 194 q 850 486 850 373 l 850 492 l 268 492 l 268 508 l 850 508 q 812 700 847 615 q 718 845 778 785 q 578 937 659 905 q 401 969 497 969 q 273 953 327 969 q 181 916 218 936 q 125 879 144 896 q 100 863 105 863 q 93 865 94 863 l 90 869 z "},"Є":{"ha":962,"x_min":94,"x_max":890,"o":"m 879 131 q 884 129 882 131 l 890 124 q 825 69 860 94 q 748 27 790 44 q 656 -1 706 9 q 546 -11 606 -11 q 365 23 448 -11 q 222 122 283 58 q 128 279 162 187 q 94 486 94 371 q 128 689 94 597 q 223 846 162 781 q 370 948 285 912 q 560 983 456 983 q 650 976 608 983 q 730 954 692 969 q 803 918 768 940 q 871 869 838 897 l 868 865 q 861 863 867 863 q 836 879 856 863 q 780 916 817 896 q 689 953 743 936 q 560 969 634 969 q 383 937 464 969 q 243 845 302 905 q 149 700 183 785 q 111 508 115 615 l 694 508 l 694 492 l 111 492 l 111 486 q 144 283 111 373 q 235 131 177 194 q 373 36 294 69 q 546 3 453 3 q 651 11 605 3 q 736 35 698 19 q 808 75 775 51 q 874 128 841 98 q 879 131 877 131 z "},"Ю":{"ha":1380,"x_min":161,"x_max":1283,"o":"m 876 6 q 1033 38 962 6 q 1157 133 1105 71 q 1237 284 1208 194 q 1266 486 1266 373 q 1237 689 1266 599 q 1157 841 1208 778 q 1033 936 1105 903 q 876 969 962 969 q 719 936 791 969 q 596 841 648 903 q 516 689 544 778 q 487 486 487 599 q 516 284 487 373 q 596 133 544 194 q 719 38 648 71 q 876 6 791 6 m 470 497 q 502 700 472 610 q 587 852 533 790 q 714 949 640 915 q 876 983 788 983 q 1040 949 965 983 q 1168 849 1115 914 q 1252 693 1222 785 q 1283 486 1283 601 q 1252 279 1283 371 q 1168 124 1222 188 q 1040 26 1115 60 q 876 -8 965 -8 q 713 25 788 -8 q 585 123 639 59 q 501 277 531 186 q 470 482 471 368 l 178 482 l 178 0 l 161 0 l 161 972 l 178 972 l 178 497 l 470 497 z "},"Я":{"ha":880,"x_min":14,"x_max":719,"o":"m 702 472 l 702 958 l 442 958 q 226 897 301 958 q 151 716 151 835 q 225 534 151 595 q 441 472 299 472 l 702 472 m 719 0 l 702 0 l 702 458 l 493 458 q 454 456 472 458 q 418 444 435 453 q 382 420 400 435 q 344 380 364 405 l 40 8 q 25 0 34 0 l 14 0 l 331 387 q 381 436 357 419 q 428 460 404 453 q 209 530 283 464 q 134 717 134 597 q 213 907 134 841 q 442 972 292 972 l 719 972 l 719 0 z "},"Ђ":{"ha":988,"x_min":17,"x_max":924,"o":"m 617 514 q 844 450 765 514 q 924 263 924 386 q 903 152 924 201 q 844 69 883 103 q 747 18 805 35 q 615 0 690 0 l 534 0 l 534 14 l 615 14 q 832 78 757 14 q 907 263 907 142 q 832 441 907 382 q 617 500 757 500 l 342 500 l 342 0 l 325 0 l 325 957 l 17 957 l 17 972 l 712 972 l 712 957 l 342 957 l 342 514 l 617 514 z "},"Ћ":{"ha":1004,"x_min":17,"x_max":917,"o":"m 342 509 q 489 550 417 533 q 625 572 561 567 q 742 570 689 578 q 835 536 796 562 q 895 463 874 510 q 917 344 917 416 l 917 0 l 900 0 l 900 344 q 880 451 900 408 q 825 520 860 494 q 738 554 789 545 q 625 558 688 563 q 491 536 563 553 q 342 494 419 519 l 342 0 l 325 0 l 325 957 l 17 957 l 17 972 l 712 972 l 712 957 l 342 957 l 342 509 z "},"Ѣ":{"ha":976,"x_min":50,"x_max":908,"o":"m 600 14 q 817 78 742 14 q 892 263 892 142 q 817 441 892 382 q 601 500 742 500 l 340 500 l 340 14 l 600 14 m 601 514 q 829 450 750 514 q 908 263 908 386 q 888 152 908 201 q 829 69 868 103 q 732 18 790 35 q 600 0 674 0 l 324 0 l 324 771 l 50 771 l 50 786 l 324 786 l 324 972 l 340 972 l 340 786 l 678 786 l 678 771 l 340 771 l 340 514 l 601 514 z "},"б":{"ha":795,"x_min":108,"x_max":710,"o":"m 406 5 q 529 28 475 5 q 619 93 583 51 q 674 193 656 135 q 693 324 693 252 q 675 454 693 395 q 623 556 658 513 q 538 621 589 598 q 419 644 487 644 q 305 625 358 644 q 213 568 251 605 q 151 480 174 532 q 129 362 129 427 q 148 216 129 282 q 201 104 166 151 q 288 31 237 57 q 406 5 340 5 m 449 933 q 305 887 366 923 q 203 789 243 851 q 143 637 163 726 q 122 429 123 547 q 161 527 133 485 q 229 599 189 570 q 318 643 269 628 q 419 658 367 658 q 543 634 489 658 q 634 566 597 610 q 690 460 671 522 q 710 324 710 399 q 689 188 710 249 q 629 83 668 127 q 533 16 590 40 q 406 -8 476 -8 q 294 12 348 -8 q 199 82 240 32 q 133 218 158 133 q 108 432 108 303 q 129 640 108 548 q 192 797 150 731 q 298 900 234 862 q 449 949 362 939 l 695 977 l 696 971 q 688 961 697 962 l 449 933 z "},"в":{"ha":671,"x_min":128,"x_max":590,"o":"m 351 14 q 444 26 403 14 q 514 61 485 38 q 559 116 543 83 q 574 188 574 148 q 561 255 574 224 q 522 306 549 285 q 452 339 494 327 q 353 350 410 350 l 145 350 l 145 14 l 351 14 m 145 667 l 145 364 l 333 364 q 414 376 376 364 q 477 409 451 388 q 519 460 504 430 q 534 526 534 490 q 524 578 534 553 q 490 623 513 603 q 428 655 467 643 q 333 667 390 667 l 145 667 m 334 681 q 435 668 394 681 q 501 634 476 655 q 538 584 526 613 q 549 526 549 556 q 541 477 549 503 q 516 427 534 451 q 467 385 497 403 q 390 358 436 366 q 485 340 447 355 q 546 303 523 326 q 580 251 569 280 q 590 189 590 222 q 574 111 590 146 q 527 52 558 76 q 451 14 496 27 q 351 0 407 0 l 128 0 l 128 681 l 334 681 z "},"г":{"ha":550,"x_min":128,"x_max":524,"o":"m 524 667 l 144 667 l 144 0 l 128 0 l 128 681 l 524 681 l 524 667 z "},"ґ":{"ha":550,"x_min":128,"x_max":524,"o":"m 524 862 l 524 667 l 144 667 l 144 0 l 128 0 l 128 681 l 510 681 l 510 862 l 524 862 z "},"д":{"ha":810,"x_min":24,"x_max":774,"o":"m 633 14 l 633 665 l 303 665 q 287 453 298 546 q 260 291 276 360 q 226 172 244 221 q 187 90 207 123 q 147 40 167 58 q 109 14 127 22 l 633 14 m 774 14 l 774 -242 q 766 -250 774 -250 l 760 -250 l 760 0 l 38 0 l 38 -245 q 33 -250 38 -250 l 24 -250 l 24 14 l 54 14 q 105 26 79 14 q 155 68 131 38 q 200 147 178 98 q 240 270 222 197 q 270 446 258 344 q 289 681 283 547 l 649 681 l 649 14 l 774 14 z "},"ж":{"ha":1003,"x_min":32,"x_max":971,"o":"m 971 0 l 959 0 q 943 6 947 0 l 735 275 q 681 322 712 306 q 611 338 650 338 l 510 338 l 510 -1 l 493 -1 l 493 338 l 392 338 q 322 322 353 338 q 267 275 291 306 l 60 6 q 44 0 56 0 l 32 0 l 256 285 q 301 327 277 311 q 357 347 326 342 q 310 370 330 355 q 274 405 290 385 l 54 681 l 65 681 q 79 674 74 681 l 292 408 q 342 368 312 383 q 401 352 372 352 l 493 352 l 493 681 l 510 681 l 510 352 l 602 352 q 661 368 631 352 q 710 408 691 383 l 924 674 q 938 681 928 681 l 949 681 l 728 405 q 693 370 713 385 q 646 347 673 355 q 701 327 677 342 q 747 285 726 311 l 971 0 z "},"з":{"ha":618,"x_min":66,"x_max":535,"o":"m 77 621 q 164 672 112 652 q 285 692 215 692 q 387 677 344 692 q 459 638 431 662 q 500 584 487 614 q 514 525 514 555 q 504 475 514 501 q 473 427 494 449 q 416 387 451 404 q 330 364 381 370 q 421 342 383 358 q 485 302 460 326 q 523 249 510 278 q 535 186 535 219 q 516 109 535 144 q 465 47 498 73 q 386 6 431 21 q 286 -8 340 -8 q 209 0 244 -8 q 145 21 174 8 q 97 50 117 34 q 66 81 76 65 l 69 83 q 74 86 72 86 q 92 74 78 86 q 130 46 105 61 q 193 18 155 31 q 285 6 231 6 q 381 19 338 6 q 454 56 424 32 q 502 113 485 80 q 519 186 519 147 q 503 255 519 224 q 456 309 487 286 q 380 344 425 331 q 277 357 335 357 l 200 357 l 200 371 l 277 371 q 368 383 327 371 q 438 415 409 394 q 483 464 467 436 q 499 525 499 492 q 486 580 499 553 q 447 630 474 608 q 381 665 421 651 q 285 678 340 678 q 198 668 234 678 q 139 646 163 658 q 103 624 116 634 q 87 614 91 614 q 81 617 84 614 l 77 621 z "},"и":{"ha":776,"x_min":128,"x_max":649,"o":"m 649 681 l 649 0 l 632 0 l 632 625 q 632 638 632 632 q 633 651 632 644 q 620 633 625 640 q 610 618 619 631 q 583 583 600 606 q 543 531 566 561 q 494 467 520 501 q 438 393 467 432 q 379 316 409 355 q 142 5 275 178 q 135 0 139 0 l 128 0 l 128 681 l 144 681 l 144 56 q 144 42 144 49 q 144 29 144 36 q 156 48 151 40 q 178 77 157 49 q 233 149 199 105 q 310 250 267 193 q 397 365 353 306 q 634 676 501 502 q 642 681 638 681 l 649 681 z "},"к":{"ha":638,"x_min":128,"x_max":606,"o":"m 558 674 q 565 678 561 676 q 572 681 568 681 l 583 681 l 363 405 q 327 370 347 385 q 281 347 308 355 q 381 285 340 337 l 606 0 l 594 0 q 578 6 584 0 l 370 275 q 316 322 347 306 q 246 338 285 338 l 144 338 l 144 -1 l 128 -1 l 128 681 l 144 681 l 144 352 l 237 352 q 296 368 266 352 q 345 408 326 383 l 558 674 z "},"л":{"ha":772,"x_min":-6,"x_max":644,"o":"m 644 0 l 628 0 l 628 665 l 299 665 q 277 423 292 526 q 239 244 261 319 q 191 121 217 169 q 136 44 165 72 q 77 4 107 15 q 20 -7 48 -7 q 4 -6 14 -7 q -6 -3 -6 -5 l -6 8 l 20 8 q 74 20 46 8 q 129 60 101 31 q 181 138 156 89 q 227 261 206 187 q 263 439 248 336 q 284 681 278 542 l 644 681 l 644 0 z "},"љ":{"ha":1145,"x_min":-6,"x_max":1083,"o":"m 850 14 q 947 27 906 14 q 1014 65 988 41 q 1054 120 1041 88 q 1067 191 1067 153 q 1056 259 1067 227 q 1019 314 1045 290 q 951 350 994 337 q 846 364 909 364 l 644 364 l 644 14 l 850 14 m 846 378 q 961 362 915 378 q 1033 320 1006 346 q 1072 260 1060 294 q 1083 192 1083 227 q 1068 116 1083 151 q 1025 55 1053 81 q 952 15 996 29 q 850 0 908 0 l 628 0 l 628 665 l 299 665 q 277 423 292 526 q 239 244 261 319 q 191 121 217 169 q 136 44 165 72 q 77 4 107 15 q 20 -7 48 -7 q 4 -6 14 -7 q -6 -3 -6 -5 l -6 8 l 20 8 q 74 20 46 8 q 129 60 101 31 q 181 138 156 89 q 227 261 206 187 q 263 439 248 336 q 284 681 278 542 l 644 681 l 644 378 l 846 378 z "},"м":{"ha":946,"x_min":128,"x_max":818,"o":"m 818 685 l 818 0 l 804 0 l 804 634 q 805 643 804 638 q 806 651 805 647 l 486 134 q 483 130 485 132 q 479 127 482 127 l 476 127 q 473 130 474 127 q 469 134 471 132 l 140 651 q 141 643 141 647 q 142 634 142 638 l 142 0 l 128 0 l 128 685 l 132 685 q 139 681 135 685 l 472 157 q 475 151 474 154 q 478 147 476 149 q 481 151 479 149 q 483 157 482 154 l 808 681 q 815 685 810 685 l 818 685 z "},"н":{"ha":763,"x_min":128,"x_max":635,"o":"m 635 681 l 635 0 l 618 0 l 618 362 l 144 362 l 144 0 l 128 0 l 128 681 l 144 681 l 144 376 l 618 376 l 618 681 l 635 681 z "},"њ":{"ha":1137,"x_min":128,"x_max":1073,"o":"m 840 14 q 937 27 896 14 q 1005 65 978 41 q 1044 120 1031 88 q 1057 191 1057 153 q 1046 259 1057 227 q 1010 314 1035 290 q 942 350 984 337 q 836 364 899 364 l 635 364 l 635 14 l 840 14 m 836 378 q 951 362 906 378 q 1024 320 997 346 q 1062 260 1051 294 q 1073 192 1073 227 q 1058 116 1073 151 q 1015 55 1044 81 q 942 15 986 29 q 840 0 899 0 l 618 0 l 618 362 l 144 362 l 144 0 l 128 0 l 128 681 l 144 681 l 144 376 l 618 376 l 618 681 l 635 681 l 635 378 l 836 378 z "},"ѳ":{"ha":765,"x_min":85,"x_max":679,"o":"m 101 333 q 120 199 102 259 q 173 96 138 139 q 261 29 208 53 q 382 6 313 6 q 503 29 451 6 q 591 96 556 53 q 644 199 626 139 q 663 333 662 259 l 101 333 m 663 347 q 644 481 662 420 q 591 586 626 542 q 503 654 556 630 q 382 678 451 678 q 261 654 313 678 q 173 586 208 630 q 120 481 138 542 q 101 347 102 420 l 663 347 m 382 692 q 509 666 453 692 q 602 595 565 641 q 660 484 640 549 q 679 340 679 419 q 660 197 679 261 q 602 87 640 133 q 509 16 565 41 q 382 -8 453 -8 q 255 16 310 -8 q 161 87 199 41 q 104 197 124 133 q 85 340 85 261 q 104 484 85 419 q 161 595 124 549 q 255 666 199 641 q 382 692 310 692 z "},"п":{"ha":763,"x_min":128,"x_max":635,"o":"m 635 0 l 618 0 l 618 667 l 144 667 l 144 0 l 128 0 l 128 681 l 635 681 l 635 0 z "},"т":{"ha":678,"x_min":25,"x_max":653,"o":"m 653 667 l 347 667 l 347 0 l 331 0 l 331 667 l 25 667 l 25 681 l 653 681 l 653 667 z "},"ѵ":{"ha":713,"x_min":37,"x_max":680,"o":"m 556 606 q 578 647 567 631 q 603 672 590 663 q 630 683 617 680 q 657 685 644 685 q 674 684 667 685 q 680 681 680 683 l 680 672 l 662 672 q 607 656 627 672 q 572 603 586 640 l 336 0 l 324 0 l 37 681 l 47 681 q 55 677 52 681 q 59 671 58 674 l 321 47 q 326 34 324 40 q 330 20 328 28 q 334 34 331 27 q 339 47 336 40 l 556 606 z "},"ф":{"ha":897,"x_min":83,"x_max":814,"o":"m 457 6 q 609 32 545 7 q 715 100 674 56 q 777 205 757 144 q 797 340 797 266 q 777 476 797 414 q 715 582 757 538 q 609 651 674 626 q 457 678 545 676 l 457 6 m 440 678 q 288 651 352 676 q 182 582 224 626 q 120 476 140 538 q 100 340 100 414 q 120 205 100 266 q 182 100 140 144 q 288 32 224 56 q 440 6 352 7 l 440 678 m 457 692 q 614 665 547 690 q 726 593 681 639 q 792 482 770 547 q 814 340 814 418 q 792 198 814 262 q 726 89 770 135 q 614 18 681 44 q 457 -8 547 -7 l 457 -250 l 440 -250 l 440 -8 q 283 18 350 -7 q 172 89 216 44 q 105 198 127 135 q 83 340 83 262 q 105 482 83 418 q 172 593 127 547 q 283 665 216 639 q 440 692 350 690 l 440 972 l 457 972 l 457 692 z "},"ц":{"ha":795,"x_min":128,"x_max":759,"o":"m 759 14 l 759 -242 q 751 -250 759 -250 l 745 -250 l 745 0 l 128 0 l 128 681 l 144 681 l 144 14 l 618 14 l 618 681 l 635 681 l 635 14 l 759 14 z "},"џ":{"ha":763,"x_min":128,"x_max":635,"o":"m 635 681 l 635 0 l 388 0 l 388 -242 q 381 -250 388 -250 l 374 -250 l 374 0 l 128 0 l 128 681 l 144 681 l 144 14 l 618 14 l 618 681 l 635 681 z "},"ч":{"ha":676,"x_min":76,"x_max":549,"o":"m 549 681 l 549 0 l 532 0 l 532 341 q 420 313 476 325 q 313 298 364 301 q 219 300 263 294 q 144 325 176 306 q 94 377 113 344 q 76 460 76 410 l 76 681 l 93 681 l 93 460 q 109 385 93 415 q 155 338 126 355 q 225 314 184 320 q 314 312 265 308 q 418 326 363 315 q 532 355 474 338 l 532 681 l 549 681 z "},"ш":{"ha":1114,"x_min":128,"x_max":986,"o":"m 986 681 l 986 0 l 128 0 l 128 681 l 144 681 l 144 14 l 549 14 l 549 681 l 565 681 l 565 14 l 969 14 l 969 681 l 986 681 z "},"щ":{"ha":1147,"x_min":128,"x_max":1111,"o":"m 969 681 l 986 681 l 986 0 l 128 0 l 128 681 l 144 681 l 144 14 l 549 14 l 549 681 l 565 681 l 565 14 l 969 14 l 969 681 m 1111 14 l 1111 -242 q 1103 -250 1111 -250 l 1097 -250 l 1097 0 l 987 0 l 987 14 l 1111 14 z "},"ъ":{"ha":782,"x_min":25,"x_max":719,"o":"m 487 14 q 583 27 542 14 q 651 65 624 41 q 691 120 678 88 q 703 191 703 153 q 693 259 703 227 q 656 314 682 290 q 588 350 631 337 q 483 364 546 364 l 281 364 l 281 14 l 487 14 m 483 378 q 598 362 552 378 q 670 320 643 346 q 708 260 697 294 q 719 192 719 227 q 705 116 719 151 q 661 55 690 81 q 589 15 633 29 q 487 0 545 0 l 264 0 l 264 665 l 25 665 l 25 681 l 281 681 l 281 378 l 483 378 z "},"ы":{"ha":939,"x_min":128,"x_max":811,"o":"m 351 14 q 447 27 406 14 q 515 65 488 41 q 555 120 542 88 q 567 191 567 153 q 557 259 567 227 q 520 314 546 290 q 452 350 494 337 q 347 364 410 364 l 144 364 l 144 14 l 351 14 m 347 378 q 461 362 416 378 q 534 320 507 346 q 572 260 561 294 q 583 192 583 227 q 569 116 583 151 q 525 55 554 81 q 453 15 497 29 q 351 0 409 0 l 128 0 l 128 681 l 144 681 l 144 378 l 347 378 m 811 681 l 811 0 l 794 0 l 794 681 l 811 681 z "},"ь":{"ha":646,"x_min":128,"x_max":583,"o":"m 351 14 q 447 27 406 14 q 515 65 488 41 q 555 120 542 88 q 567 191 567 153 q 557 259 567 227 q 520 314 546 290 q 452 350 494 337 q 347 364 410 364 l 145 364 l 145 14 l 351 14 m 347 378 q 461 362 416 378 q 534 320 507 346 q 572 260 561 294 q 583 192 583 227 q 569 116 583 151 q 525 55 554 81 q 453 15 497 29 q 351 0 409 0 l 128 0 l 128 681 l 145 681 l 145 378 l 347 378 z "},"э":{"ha":655,"x_min":69,"x_max":570,"o":"m 80 621 q 163 672 115 652 q 273 692 211 692 q 398 666 343 692 q 492 595 453 641 q 550 484 530 549 q 570 340 570 419 q 550 193 570 258 q 493 84 530 128 q 402 15 456 39 q 284 -8 349 -8 q 210 0 244 -8 q 147 21 175 8 q 99 50 119 34 q 69 81 79 65 l 72 83 q 77 86 74 86 q 94 74 81 86 q 131 46 106 61 q 192 18 155 31 q 284 6 230 6 q 395 28 345 6 q 480 93 444 50 q 534 198 515 135 q 553 340 553 260 l 553 341 l 153 341 l 153 355 l 553 355 q 532 489 551 429 q 476 591 512 549 q 389 655 440 633 q 273 678 338 678 q 193 668 226 678 q 139 646 160 658 q 105 624 117 634 q 90 614 94 614 q 84 617 87 614 l 80 621 z "},"є":{"ha":655,"x_min":85,"x_max":586,"o":"m 571 617 q 565 614 568 614 q 550 624 561 614 q 516 646 538 634 q 461 668 494 658 q 382 678 428 678 q 266 655 317 678 q 179 591 215 633 q 123 489 143 549 q 101 355 103 429 l 502 355 l 502 341 l 101 341 l 101 340 q 120 198 101 260 q 175 93 140 135 q 260 28 210 50 q 371 6 310 6 q 463 18 425 6 q 524 46 500 31 q 561 74 549 61 q 578 86 574 86 q 583 83 581 86 l 586 81 q 556 50 576 65 q 508 21 535 34 q 445 0 480 8 q 371 -8 410 -8 q 252 15 305 -8 q 162 84 199 39 q 105 193 125 128 q 85 340 85 258 q 105 484 85 419 q 163 595 125 549 q 257 666 201 641 q 382 692 312 692 q 492 672 444 692 q 575 621 540 652 l 571 617 z "},"ю":{"ha":1024,"x_min":128,"x_max":939,"o":"m 661 6 q 775 30 726 6 q 857 98 824 54 q 906 203 890 142 q 922 340 922 265 q 906 477 922 415 q 857 584 890 540 q 775 653 824 628 q 661 678 726 678 q 547 653 596 678 q 465 584 498 628 q 416 477 433 540 q 400 340 400 415 q 416 203 400 265 q 465 98 433 142 q 547 30 498 54 q 661 6 596 6 m 383 347 q 403 488 384 424 q 457 597 422 551 q 543 667 492 642 q 661 692 594 692 q 780 666 728 692 q 867 595 832 641 q 921 484 903 549 q 939 340 939 419 q 921 197 939 261 q 867 87 903 133 q 780 16 832 41 q 661 -8 728 -8 q 543 16 594 -8 q 457 85 492 40 q 403 192 422 129 q 383 333 384 255 l 144 333 l 144 0 l 128 0 l 128 681 l 144 681 l 144 347 l 383 347 z "},"я":{"ha":640,"x_min":32,"x_max":512,"o":"m 494 336 l 494 667 l 320 667 q 225 651 264 667 q 164 610 187 635 q 130 555 140 585 q 119 496 119 525 q 135 428 119 458 q 182 378 151 399 q 255 347 212 358 q 353 336 299 336 l 494 336 m 512 681 l 512 0 l 494 0 l 494 322 l 385 322 q 358 321 369 322 q 337 316 347 319 q 320 306 328 313 q 303 289 312 299 l 60 6 q 44 0 56 0 l 32 0 l 292 299 q 333 326 306 320 q 228 342 272 328 q 158 379 185 356 q 118 433 131 402 q 105 501 105 465 q 116 563 105 531 q 152 621 127 595 q 219 664 178 647 q 319 681 260 681 l 512 681 z "},"ђ":{"ha":733,"x_min":-28,"x_max":642,"o":"m 144 490 q 198 553 168 525 q 261 602 227 582 q 333 632 295 622 q 410 643 370 643 q 510 624 467 643 q 583 569 553 604 q 627 484 612 533 q 642 374 642 434 q 627 204 642 284 q 585 50 613 124 q 517 -97 558 -25 q 424 -240 476 -168 l 412 -231 q 499 -95 460 -165 q 567 48 539 -26 q 610 202 594 122 q 625 374 625 283 q 611 477 625 431 q 570 558 597 524 q 503 610 543 592 q 410 629 463 629 q 263 587 330 629 q 144 469 195 544 l 144 0 l 128 0 l 128 796 l -28 796 l -28 811 l 128 811 l 128 1000 l 144 1000 l 144 811 l 443 811 l 443 796 l 144 796 l 144 490 z "},"ѣ":{"ha":763,"x_min":25,"x_max":705,"o":"m 472 14 q 569 27 528 14 q 636 65 610 41 q 676 120 663 88 q 689 191 689 153 q 678 259 689 227 q 642 314 667 290 q 574 350 616 337 q 468 364 531 364 l 252 364 l 252 14 l 472 14 m 468 378 q 583 362 538 378 q 656 320 628 346 q 694 260 683 294 q 705 192 705 227 q 690 116 705 151 q 647 55 676 81 q 574 15 618 29 q 472 0 531 0 l 235 0 l 235 665 l 25 665 l 25 681 l 235 681 l 235 905 l 252 905 l 252 681 l 496 681 l 496 665 l 252 665 l 252 378 l 468 378 z "},"!":{"ha":336,"x_min":122,"x_max":212,"o":"m 178 972 l 178 575 q 178 518 178 544 q 177 463 178 491 q 176 403 177 435 q 174 331 175 372 l 163 331 q 161 403 162 372 q 160 463 160 435 q 159 518 160 491 q 159 575 159 544 l 159 972 l 178 972 m 122 33 q 134 66 122 52 q 166 79 147 79 q 198 66 185 79 q 212 33 212 52 q 198 2 212 15 q 166 -11 185 -11 q 134 2 147 -11 q 122 33 122 15 z "},"?":{"ha":582,"x_min":73,"x_max":505,"o":"m 73 889 q 111 923 90 906 q 158 954 132 940 q 215 975 184 967 q 283 983 246 983 q 365 970 325 983 q 436 931 406 956 q 486 869 467 906 q 505 786 505 833 q 488 695 505 734 q 445 628 471 657 q 389 577 419 599 q 333 535 359 555 q 290 495 308 515 q 272 450 272 475 l 267 331 l 256 331 l 256 451 q 273 500 256 478 q 316 541 290 521 q 372 583 342 561 q 428 633 402 604 q 471 698 454 661 q 488 786 488 735 q 471 863 488 829 q 425 921 453 897 q 359 957 397 944 q 283 969 322 969 q 197 956 233 969 q 136 925 161 942 q 99 894 112 908 q 83 881 85 881 q 77 883 80 881 l 73 889 m 217 33 q 230 66 217 52 q 262 79 243 79 q 294 66 281 79 q 308 33 308 52 q 294 2 308 15 q 262 -11 281 -11 q 230 2 243 -11 q 217 33 217 15 z "},"‽":{"ha":603,"x_min":89,"x_max":528,"o":"m 265 79 q 297 66 283 79 q 310 33 310 52 q 297 2 310 15 q 265 -11 283 -11 q 233 2 246 -11 q 220 33 220 15 q 233 66 220 52 q 265 79 246 79 m 224 944 q 301 955 260 955 q 392 941 351 955 q 464 902 434 927 q 511 841 494 877 q 528 762 528 806 q 508 676 528 712 q 455 614 487 640 q 387 567 424 587 q 319 529 351 547 q 266 492 288 511 q 244 448 244 473 l 271 301 l 260 301 q 231 414 245 358 q 202 526 217 469 l 89 969 l 105 973 l 212 553 q 220 516 215 542 q 232 461 226 491 q 260 505 238 485 q 314 543 283 524 q 380 582 345 562 q 444 628 415 602 q 493 688 474 654 q 512 767 512 721 q 497 838 512 806 q 453 893 481 870 q 386 928 426 916 q 299 941 347 941 q 254 938 269 941 q 234 934 239 934 q 226 938 228 934 l 224 944 z "},",":{"ha":294,"x_min":106,"x_max":192,"o":"m 108 -163 q 106 -158 106 -161 q 108 -153 106 -157 q 125 -132 114 -147 q 148 -96 137 -117 q 169 -49 160 -75 q 178 8 178 -22 q 147 -6 167 -6 q 119 6 130 -6 q 108 36 108 17 q 119 66 108 53 q 149 79 131 79 q 180 65 168 79 q 192 25 192 51 q 169 -78 192 -28 q 110 -165 146 -128 l 108 -163 z "},";":{"ha":335,"x_min":123,"x_max":213,"o":"m 126 -163 q 124 -158 124 -161 q 126 -153 124 -157 q 143 -132 132 -147 q 166 -96 155 -117 q 187 -49 178 -75 q 197 8 196 -22 q 165 -6 185 -6 q 137 6 148 -6 q 126 36 126 17 q 137 66 126 53 q 167 79 149 79 q 198 65 186 79 q 210 25 210 51 q 187 -78 210 -28 q 128 -165 164 -128 l 126 -163 m 123 615 q 136 648 123 634 q 167 661 149 661 q 200 648 186 661 q 213 615 213 634 q 200 584 213 597 q 167 571 186 571 q 136 584 149 571 q 123 615 123 597 z "},":":{"ha":322,"x_min":116,"x_max":206,"o":"m 116 33 q 129 66 116 52 q 160 79 142 79 q 193 66 179 79 q 206 33 206 52 q 193 2 206 15 q 160 -11 179 -11 q 129 2 142 -11 q 116 33 116 15 m 116 615 q 129 648 116 634 q 160 661 142 661 q 193 648 179 661 q 206 615 206 634 q 193 584 206 597 q 160 571 179 571 q 129 584 142 571 q 116 615 116 597 z "},".":{"ha":322,"x_min":116,"x_max":206,"o":"m 116 33 q 129 66 116 52 q 160 79 142 79 q 193 66 179 79 q 206 33 206 52 q 193 2 206 15 q 160 -11 179 -11 q 129 2 142 -11 q 116 33 116 15 z "},"…":{"ha":975,"x_min":116,"x_max":859,"o":"m 116 33 q 129 66 116 52 q 160 79 142 79 q 193 66 179 79 q 206 33 206 52 q 193 2 206 15 q 160 -11 179 -11 q 129 2 142 -11 q 116 33 116 15 m 769 33 q 782 66 769 52 q 813 79 794 79 q 845 66 832 79 q 859 33 859 52 q 845 2 859 15 q 813 -11 832 -11 q 782 2 794 -11 q 769 33 769 15 m 442 33 q 455 66 442 52 q 487 79 468 79 q 519 66 506 79 q 533 33 533 52 q 519 2 533 15 q 487 -11 506 -11 q 455 2 468 -11 q 442 33 442 15 z "},"‘":{"ha":276,"x_min":104,"x_max":176,"o":"m 138 693 q 111 773 119 729 q 109 859 104 816 q 128 941 113 901 q 170 1010 144 981 l 173 1007 q 173 1000 176 1004 q 136 926 147 965 q 123 848 124 886 q 131 774 122 809 q 153 713 139 739 q 156 706 156 709 q 152 700 156 702 l 138 693 z "},"’":{"ha":274,"x_min":105,"x_max":176,"o":"m 142 1039 q 169 959 162 1002 q 172 873 176 916 q 152 791 167 831 q 110 722 136 751 l 108 725 q 108 732 105 728 q 145 806 133 767 q 157 884 156 846 q 150 958 158 923 q 127 1019 142 993 q 125 1026 125 1023 q 128 1032 124 1030 l 142 1039 z "},"“":{"ha":442,"x_min":104,"x_max":342,"o":"m 138 693 q 111 773 119 729 q 109 859 104 816 q 128 941 113 901 q 170 1010 144 981 l 173 1007 q 173 1000 176 1004 q 136 926 147 965 q 123 848 124 886 q 131 774 122 809 q 153 713 139 739 q 156 706 156 709 q 152 700 156 702 l 138 693 m 305 693 q 278 773 285 729 q 275 859 271 816 q 295 941 280 901 q 337 1010 310 981 l 340 1007 q 340 1000 342 1004 q 302 926 314 965 q 290 848 291 886 q 297 774 289 809 q 320 713 306 739 q 323 706 322 709 q 319 700 323 702 l 305 693 z "},"”":{"ha":441,"x_min":105,"x_max":343,"o":"m 142 1039 q 169 959 162 1002 q 172 873 176 916 q 152 791 167 831 q 110 722 136 751 l 108 725 q 108 732 105 728 q 145 806 133 767 q 157 884 156 846 q 150 958 158 923 q 127 1019 142 993 q 125 1026 125 1023 q 128 1032 124 1030 l 142 1039 m 309 1039 q 336 959 328 1002 q 339 873 343 916 q 318 791 334 831 q 277 722 303 751 l 274 725 q 274 732 272 728 q 311 806 300 767 q 324 884 323 846 q 317 958 325 923 q 294 1019 308 993 q 291 1026 292 1023 q 295 1032 291 1030 l 309 1039 z "},"‚":{"ha":292,"x_min":108,"x_max":179,"o":"m 145 115 q 172 35 165 78 q 175 -50 179 -8 q 155 -133 170 -93 q 113 -201 139 -172 l 110 -199 q 110 -192 108 -196 q 148 -117 136 -157 q 160 -39 159 -78 q 153 34 161 -1 q 130 96 144 69 q 127 103 128 99 q 131 108 127 106 l 145 115 z "},"„":{"ha":458,"x_min":108,"x_max":346,"o":"m 145 115 q 172 35 165 78 q 175 -50 179 -8 q 155 -133 170 -93 q 113 -201 139 -172 l 110 -199 q 110 -192 108 -196 q 148 -117 136 -157 q 160 -39 159 -78 q 153 34 161 -1 q 130 96 144 69 q 127 103 128 99 q 131 108 127 106 l 145 115 m 312 115 q 339 35 331 78 q 341 -50 346 -8 q 321 -133 337 -93 q 280 -201 306 -172 l 277 -199 q 277 -192 274 -196 q 314 -117 303 -157 q 327 -39 326 -78 q 319 34 328 -1 q 297 96 311 69 q 294 103 294 99 q 298 108 294 106 l 312 115 z "},"‹":{"ha":360,"x_min":85,"x_max":258,"o":"m 253 115 q 257 105 258 109 q 252 99 256 101 l 248 96 l 85 353 l 85 356 l 248 613 l 252 610 q 257 603 256 608 q 253 593 258 599 l 112 369 q 99 354 103 357 q 112 339 103 351 l 253 115 z "},"›":{"ha":362,"x_min":104,"x_max":276,"o":"m 276 356 l 276 353 l 114 96 l 110 99 q 105 105 106 101 q 108 115 104 109 l 250 339 q 263 354 258 351 q 250 369 258 357 l 108 593 q 105 603 104 599 q 110 610 106 608 l 114 613 l 276 356 z "},"«":{"ha":513,"x_min":85,"x_max":410,"o":"m 253 115 q 257 105 258 109 q 252 99 256 101 l 248 96 l 85 353 l 85 356 l 248 613 l 252 610 q 257 603 256 608 q 253 593 258 599 l 112 369 q 99 354 103 357 q 112 339 103 351 l 253 115 m 406 115 q 409 105 410 109 q 405 99 408 101 l 401 96 l 238 353 l 238 356 l 401 613 l 405 610 q 409 603 408 608 q 406 593 410 599 l 265 369 q 252 354 256 357 q 265 339 256 351 l 406 115 z "},"»":{"ha":515,"x_min":104,"x_max":429,"o":"m 276 356 l 276 353 l 114 96 l 110 99 q 105 105 106 101 q 108 115 104 109 l 250 339 q 263 354 258 351 q 250 369 258 357 l 108 593 q 105 603 104 599 q 110 610 106 608 l 114 613 l 276 356 m 429 356 l 429 353 l 267 96 l 263 99 q 258 105 259 101 q 261 115 257 109 l 403 339 q 415 354 411 351 q 403 369 411 357 l 261 593 q 258 603 257 599 q 263 610 259 608 l 267 613 l 429 356 z "},"/":{"ha":583,"x_min":59,"x_max":524,"o":"m 80 -46 q 73 -53 78 -51 q 65 -54 69 -54 l 59 -54 l 503 992 q 517 1000 508 1000 l 524 1000 l 80 -46 z "},"|":{"ha":317,"x_min":151,"x_max":165,"o":"m 151 1043 l 165 1043 l 165 -251 l 151 -251 l 151 1043 z "},"¦":{"ha":321,"x_min":153,"x_max":167,"o":"m 153 1043 l 167 1043 l 167 514 l 153 514 l 153 1043 m 153 279 l 167 279 l 167 -250 l 153 -250 l 153 279 z "},"\\":{"ha":583,"x_min":59,"x_max":524,"o":"m 59 1000 l 66 1000 q 80 992 76 1000 l 524 -54 l 519 -54 q 510 -53 515 -54 q 503 -46 506 -51 l 59 1000 z "},"-":{"ha":513,"x_min":103,"x_max":409,"o":"m 103 415 l 409 415 l 409 401 l 103 401 l 103 415 z "},"–":{"ha":806,"x_min":133,"x_max":672,"o":"m 133 401 l 672 401 l 672 388 l 133 388 l 133 401 z "},"—":{"ha":1088,"x_min":103,"x_max":984,"o":"m 103 401 l 984 401 l 984 388 l 103 388 l 103 401 z "},"_":{"ha":615,"x_min":34,"x_max":581,"o":"m 581 -167 l 581 -182 l 34 -182 l 34 -167 l 581 -167 z "},"•":{"ha":806,"x_min":246,"x_max":560,"o":"m 246 415 q 258 477 246 448 q 292 527 271 506 q 341 561 313 549 q 401 574 369 574 q 463 561 434 574 q 513 527 492 549 q 547 477 535 506 q 560 415 560 448 q 547 355 560 383 q 513 306 535 327 q 463 272 492 285 q 401 260 434 260 q 341 272 369 260 q 292 306 313 285 q 258 355 271 327 q 246 415 246 383 z "},"·":{"ha":315,"x_min":116,"x_max":199,"o":"m 116 410 q 128 440 116 428 q 156 453 140 453 q 187 440 174 453 q 199 410 199 428 q 187 382 199 394 q 156 369 174 369 q 128 382 140 369 q 116 410 116 394 z "},"(":{"ha":348,"x_min":89,"x_max":291,"o":"m 104 439 q 150 132 104 277 q 288 -151 196 -14 q 290 -158 291 -156 q 288 -162 290 -161 l 281 -167 q 190 -8 226 -84 q 131 141 153 67 q 99 287 108 214 q 89 439 89 360 q 99 590 89 517 q 131 737 108 664 q 190 886 153 810 q 281 1044 226 962 l 288 1040 q 290 1036 290 1039 q 288 1029 291 1033 q 150 746 196 892 q 104 439 104 600 z "},")":{"ha":348,"x_min":57,"x_max":259,"o":"m 244 439 q 198 746 244 600 q 60 1029 152 892 q 58 1036 57 1033 q 60 1040 58 1039 l 67 1044 q 158 886 122 962 q 217 737 195 810 q 249 590 240 664 q 259 439 259 517 q 249 287 259 360 q 217 141 240 214 q 158 -8 195 67 q 67 -167 122 -84 l 60 -162 q 58 -158 58 -161 q 60 -151 57 -156 q 198 132 152 -14 q 244 439 244 277 z "},"[":{"ha":401,"x_min":153,"x_max":343,"o":"m 168 1031 l 168 -156 l 333 -156 q 343 -164 343 -156 l 343 -168 l 153 -168 l 153 1043 l 343 1043 l 343 1039 q 333 1031 343 1031 l 168 1031 z "},"]":{"ha":401,"x_min":58,"x_max":249,"o":"m 249 -168 l 58 -168 l 58 -164 q 68 -156 58 -156 l 233 -156 l 233 1031 l 68 1031 q 58 1039 58 1031 l 58 1043 l 249 1043 l 249 -168 z "},"{":{"ha":403,"x_min":65,"x_max":343,"o":"m 304 1031 q 244 1019 272 1031 q 196 985 217 1007 q 164 933 176 963 q 153 864 153 902 q 160 786 153 824 q 176 709 167 747 q 193 632 185 670 q 200 554 200 593 q 191 507 200 528 q 166 472 181 487 q 133 449 151 458 q 98 438 115 440 q 133 426 115 435 q 166 403 151 417 q 191 368 181 388 q 200 321 200 347 q 193 243 200 282 q 176 166 185 205 q 160 89 167 128 q 153 11 153 51 q 164 -58 153 -27 q 196 -110 176 -88 q 244 -144 217 -132 q 304 -156 272 -156 l 335 -156 q 343 -162 343 -156 l 343 -168 l 304 -168 q 236 -154 267 -168 q 184 -116 206 -140 q 150 -59 162 -92 q 138 11 138 -26 q 145 91 138 52 q 161 167 152 129 q 177 242 170 204 q 185 321 185 280 q 176 365 185 344 q 151 399 167 385 q 113 422 135 414 q 65 431 91 431 l 65 444 q 113 452 91 444 q 151 475 135 460 q 176 510 167 490 q 185 554 185 530 q 177 633 185 594 q 161 708 170 671 q 145 784 152 746 q 138 864 138 823 q 150 934 138 901 q 184 991 162 967 q 236 1029 206 1015 q 304 1043 267 1043 l 343 1043 l 343 1038 q 335 1031 343 1031 l 304 1031 z "},"}":{"ha":403,"x_min":60,"x_max":338,"o":"m 338 431 q 290 422 312 431 q 252 399 268 414 q 227 365 236 385 q 218 321 218 344 q 225 242 218 280 q 242 167 233 204 q 258 91 251 129 q 265 11 265 52 q 253 -59 265 -26 q 219 -116 241 -92 q 166 -154 197 -140 q 99 -168 135 -168 l 60 -168 l 60 -162 q 68 -156 60 -156 l 99 -156 q 158 -144 131 -156 q 207 -110 186 -132 q 239 -58 227 -88 q 250 11 250 -27 q 243 89 250 51 q 226 166 235 128 q 210 243 217 205 q 203 321 203 282 q 212 368 203 347 q 236 403 222 388 q 269 426 251 417 q 305 438 288 435 q 269 449 288 440 q 236 472 251 458 q 212 507 222 487 q 203 554 203 528 q 210 632 203 593 q 226 709 217 670 q 243 786 235 747 q 250 864 250 824 q 239 933 250 902 q 207 985 227 963 q 158 1019 186 1007 q 99 1031 131 1031 l 68 1031 q 60 1038 60 1031 l 60 1043 l 99 1043 q 166 1029 135 1043 q 219 991 197 1015 q 253 934 241 967 q 265 864 265 901 q 258 784 265 823 q 242 708 251 746 q 225 633 233 671 q 218 554 218 594 q 227 510 218 530 q 252 475 236 490 q 290 452 268 460 q 338 444 312 444 l 338 431 z "},"*":{"ha":590,"x_min":119,"x_max":471,"o":"m 471 743 l 464 731 l 322 813 q 316 816 319 815 q 311 819 314 817 q 306 824 309 821 q 297 832 302 826 q 300 815 299 819 q 301 801 301 810 l 301 643 l 288 643 l 288 801 q 289 815 288 809 q 292 831 290 820 q 280 819 283 822 q 268 813 276 817 l 128 731 l 121 743 l 261 825 q 273 831 268 829 q 290 835 278 832 q 273 842 278 840 q 261 847 268 843 l 119 929 l 126 942 l 268 860 q 274 856 272 858 q 278 852 276 854 q 284 847 281 850 q 292 839 287 844 q 289 857 290 851 q 288 871 288 863 l 288 1029 l 301 1029 l 301 871 q 301 857 301 863 q 298 840 301 851 q 311 852 307 849 q 322 860 315 856 l 463 942 l 469 929 l 329 847 q 317 841 322 843 q 301 835 313 838 q 318 831 313 832 q 329 825 322 829 l 471 743 z "},"†":{"ha":806,"x_min":139,"x_max":667,"o":"m 410 640 l 410 249 l 413 -251 q 408 -253 410 -253 q 403 -254 406 -254 q 397 -253 399 -254 q 393 -251 395 -253 l 396 249 l 396 640 l 139 640 l 139 646 q 142 652 139 649 q 149 656 144 656 l 396 651 l 393 983 q 397 985 395 985 q 403 986 399 986 q 408 985 406 986 q 413 983 410 985 l 410 651 l 657 656 q 664 652 661 656 q 667 646 667 649 l 667 640 l 410 640 z "},"‡":{"ha":806,"x_min":139,"x_max":667,"o":"m 410 92 l 667 92 l 667 86 q 664 80 667 83 q 657 76 661 76 l 410 81 l 413 -251 q 408 -253 410 -253 q 403 -254 406 -254 q 397 -253 399 -254 q 393 -251 395 -253 l 396 81 l 149 76 q 142 80 144 76 q 139 86 139 83 l 139 92 l 396 92 l 396 640 l 139 640 l 139 646 q 142 652 139 649 q 149 656 144 656 l 396 651 l 393 983 q 397 985 395 985 q 403 986 399 986 q 408 985 406 986 q 413 983 410 985 l 410 651 l 657 656 q 664 652 661 656 q 667 646 667 649 l 667 640 l 410 640 l 410 92 z "},"§":{"ha":661,"x_min":90,"x_max":569,"o":"m 105 506 q 121 445 105 472 q 164 399 137 419 q 225 360 190 378 q 298 327 260 343 q 373 293 335 310 q 442 256 410 276 q 527 323 501 283 q 553 413 553 362 q 539 478 553 450 q 501 529 525 507 q 445 568 476 551 q 380 601 414 585 q 310 632 345 617 q 245 664 276 647 q 136 594 168 633 q 105 506 105 555 m 534 913 q 527 908 532 908 q 511 918 522 908 q 480 939 500 927 q 428 960 459 950 q 351 969 397 969 q 272 956 308 969 q 210 921 236 943 q 170 871 185 899 q 156 811 156 842 q 174 747 156 774 q 221 699 192 720 q 287 661 250 678 q 363 627 324 644 q 438 591 401 610 q 504 547 475 572 q 551 490 533 522 q 569 414 569 458 q 539 314 569 355 q 456 247 508 273 q 517 188 494 222 q 541 107 541 154 q 526 28 541 65 q 483 -35 511 -8 q 413 -78 454 -62 q 319 -94 372 -94 q 253 -89 282 -94 q 200 -72 224 -83 q 154 -47 175 -62 q 112 -12 133 -31 l 116 -8 q 119 -5 118 -6 q 124 -4 121 -4 q 142 -16 130 -4 q 177 -42 155 -28 q 234 -69 200 -57 q 319 -81 269 -81 q 407 -66 369 -81 q 472 -26 446 -51 q 512 33 499 -1 q 526 106 526 67 q 507 174 526 145 q 458 226 488 203 q 388 268 427 249 q 308 303 349 286 q 227 340 267 321 q 158 382 188 358 q 108 435 127 405 q 90 506 90 465 q 97 554 90 531 q 122 599 105 578 q 165 639 138 620 q 232 672 192 657 q 195 698 212 684 q 167 729 178 712 q 148 766 155 746 q 141 811 141 787 q 156 876 141 845 q 199 931 172 907 q 266 969 227 955 q 351 983 304 983 q 452 968 408 983 q 537 917 496 952 l 534 913 z "},"¶":{"ha":860,"x_min":57,"x_max":811,"o":"m 811 957 l 651 957 l 651 -125 l 635 -125 l 635 957 l 376 957 l 376 -125 l 360 -125 l 360 508 q 232 526 288 508 q 137 576 176 544 q 77 652 98 608 q 57 747 57 696 q 77 841 57 799 q 137 912 98 883 q 232 957 176 941 q 360 972 288 972 l 811 972 l 811 957 z "},"^":{"ha":806,"x_min":144,"x_max":661,"o":"m 661 508 l 651 508 q 638 518 642 508 l 415 925 q 408 939 412 932 q 403 953 405 945 q 397 939 401 945 q 390 925 394 932 l 168 518 q 163 511 167 515 q 154 508 160 508 l 144 508 l 399 972 l 407 972 l 661 508 z "},"~":{"ha":806,"x_min":113,"x_max":697,"o":"m 555 367 q 607 377 584 367 q 647 407 631 388 q 673 451 664 426 q 683 506 682 476 l 697 506 q 687 448 697 475 q 660 399 678 420 q 615 365 642 378 q 555 353 589 353 q 481 368 519 353 q 403 403 442 384 q 326 437 364 422 q 255 453 288 453 q 202 442 226 453 q 163 413 179 431 q 137 368 146 394 q 127 314 128 343 l 113 314 q 123 372 113 344 q 150 420 132 399 q 194 454 168 442 q 255 467 221 467 q 329 451 290 467 q 407 417 368 435 q 484 382 446 398 q 555 367 522 367 z "},"'":{"ha":261,"x_min":124,"x_max":138,"o":"m 138 972 l 138 768 l 136 663 q 131 657 136 657 q 125 663 125 657 l 124 768 l 124 972 l 138 972 z "},"\"":{"ha":438,"x_min":124,"x_max":314,"o":"m 138 972 l 138 768 l 136 663 q 131 657 136 657 q 125 663 125 657 l 124 768 l 124 972 l 138 972 m 314 972 l 314 768 l 313 663 q 307 657 313 657 q 301 663 301 657 l 300 768 l 300 972 l 314 972 z "},"&":{"ha":954,"x_min":85,"x_max":923,"o":"m 349 529 q 251 483 296 513 q 173 416 206 454 q 121 333 140 378 q 102 239 102 288 q 126 134 102 178 q 187 60 150 90 q 269 17 224 31 q 355 3 314 3 q 464 18 413 3 q 558 58 515 33 q 636 118 601 84 q 699 192 672 153 l 367 511 l 349 529 m 923 0 l 912 0 q 901 1 906 0 q 891 7 897 1 l 709 182 q 644 107 681 142 q 563 46 607 72 q 466 4 518 19 q 355 -11 414 -11 q 257 5 306 -11 q 171 53 209 22 q 109 131 133 85 q 85 239 85 178 q 105 338 85 291 q 159 425 124 385 q 239 493 193 464 q 339 540 285 523 q 288 597 310 569 q 252 652 267 624 q 230 708 238 679 q 223 771 223 738 q 240 856 223 817 q 288 923 257 895 q 361 967 319 951 q 455 983 403 983 q 533 968 495 983 q 600 928 571 953 q 648 870 630 903 q 666 800 666 837 l 662 800 q 655 802 658 800 q 651 811 652 805 q 637 857 649 830 q 600 909 624 884 q 540 952 576 934 q 455 969 503 969 q 368 955 408 969 q 300 914 328 940 q 256 852 272 888 q 240 771 240 815 q 274 647 240 706 q 377 522 308 588 l 708 206 q 763 315 743 259 q 790 421 783 371 q 792 429 791 426 q 799 432 794 432 l 805 432 q 782 318 803 381 q 719 195 760 256 l 923 0 z "},"@":{"ha":1141,"x_min":93,"x_max":1058,"o":"m 774 601 q 753 607 763 604 q 733 611 743 609 q 710 613 722 613 q 683 614 699 614 q 594 601 635 614 q 518 565 552 588 q 457 511 483 542 q 411 445 430 481 q 383 373 393 410 q 374 299 374 335 q 382 241 374 268 q 405 194 390 214 q 445 162 421 174 q 501 150 469 150 q 560 160 530 150 q 619 195 591 169 q 673 264 648 220 q 715 376 697 308 l 774 601 m 731 374 q 713 255 711 300 q 728 186 714 210 q 767 154 743 162 q 817 146 790 146 q 902 168 861 146 q 974 231 943 190 q 1024 332 1006 272 q 1043 465 1043 391 q 1007 655 1043 574 q 909 789 970 735 q 767 867 847 842 q 599 893 687 893 q 473 876 534 893 q 357 827 411 859 q 257 748 302 794 q 178 643 211 701 q 127 516 145 585 q 108 369 108 447 q 149 146 108 243 q 260 -16 190 49 q 423 -115 330 -82 q 619 -149 516 -149 q 809 -124 720 -149 q 976 -47 897 -99 q 984 -45 980 -44 q 989 -49 988 -46 l 993 -57 q 821 -137 913 -110 q 619 -164 728 -164 q 415 -129 510 -164 q 247 -27 319 -94 q 134 140 176 41 q 93 369 93 240 q 133 586 93 488 q 243 757 174 685 q 403 867 312 828 q 599 907 495 907 q 716 895 659 907 q 825 859 774 883 q 919 798 876 835 q 993 713 962 762 q 1041 601 1024 663 q 1058 465 1058 540 q 1039 327 1058 389 q 986 223 1019 266 q 909 156 953 179 q 815 132 865 132 q 755 143 779 132 q 717 176 731 155 q 700 226 703 197 q 701 290 697 255 q 614 173 666 210 q 499 136 561 136 q 435 149 462 136 q 391 184 409 162 q 365 235 374 206 q 357 299 357 265 q 367 377 357 338 q 397 454 377 417 q 444 522 416 490 q 509 577 473 554 q 589 614 545 601 q 683 628 633 628 q 741 623 712 628 q 792 607 771 617 l 731 374 z "},"©":{"ha":1179,"x_min":94,"x_max":1085,"o":"m 813 267 q 819 268 816 268 l 827 261 q 783 228 806 243 q 732 201 760 213 q 670 184 703 190 q 597 178 637 178 q 475 199 531 178 q 380 261 420 221 q 318 358 340 301 q 295 486 295 415 q 318 613 295 556 q 381 710 340 669 q 480 773 422 751 q 606 796 537 796 q 670 791 642 796 q 723 778 699 787 q 770 756 748 769 q 815 725 792 742 l 812 721 q 805 718 810 718 q 789 728 801 718 q 754 750 777 738 q 695 772 731 762 q 606 782 659 782 q 487 761 541 782 q 394 702 433 741 q 333 609 355 664 q 312 486 312 554 q 333 362 312 417 q 393 270 355 308 q 483 212 431 232 q 597 192 535 192 q 667 197 636 192 q 723 211 698 201 q 770 234 749 220 q 813 267 792 249 m 94 486 q 133 679 94 589 q 239 837 172 769 q 397 943 306 904 q 590 982 487 982 q 783 943 692 982 q 940 837 873 904 q 1047 679 1008 769 q 1085 486 1085 589 q 1047 293 1085 383 q 940 135 1008 203 q 783 29 873 68 q 590 -10 692 -10 q 397 29 487 -10 q 239 135 306 68 q 133 293 172 203 q 94 486 94 383 m 110 486 q 148 299 110 387 q 250 147 185 212 q 403 44 315 82 q 590 7 490 7 q 717 24 656 7 q 832 72 778 41 q 929 147 885 103 q 1005 244 973 191 q 1053 358 1036 297 q 1070 486 1070 419 q 1053 614 1070 552 q 1005 728 1036 675 q 929 826 973 782 q 832 901 885 869 q 717 950 778 933 q 590 967 656 967 q 462 950 524 967 q 348 901 401 933 q 251 826 294 869 q 176 728 207 782 q 127 614 144 675 q 110 486 110 552 z "},"℗":{"ha":1179,"x_min":94,"x_max":1085,"o":"m 583 461 q 675 473 636 461 q 738 507 713 485 q 775 559 763 529 q 787 625 787 589 q 740 738 787 699 q 591 778 692 778 l 460 778 l 460 461 l 583 461 m 591 792 q 750 748 697 792 q 803 625 803 703 q 790 555 803 587 q 749 498 776 522 q 680 461 722 474 q 583 447 638 447 l 460 447 l 460 181 l 444 181 l 444 792 l 591 792 m 590 7 q 717 24 656 7 q 832 72 778 41 q 929 147 885 103 q 1005 244 973 191 q 1053 358 1036 297 q 1070 486 1070 419 q 1053 614 1070 552 q 1005 728 1036 675 q 929 826 973 782 q 832 901 885 869 q 717 950 778 933 q 590 967 656 967 q 462 950 524 967 q 348 901 401 933 q 251 826 294 869 q 176 728 207 782 q 127 614 144 675 q 110 486 110 552 q 148 299 110 387 q 250 147 185 212 q 403 44 315 82 q 590 7 490 7 m 590 982 q 783 943 692 982 q 940 837 873 904 q 1047 679 1008 769 q 1085 486 1085 589 q 1047 293 1085 383 q 940 135 1008 203 q 783 29 873 68 q 590 -10 692 -10 q 397 29 487 -10 q 239 135 306 68 q 133 293 172 203 q 94 486 94 383 q 133 679 94 589 q 239 837 172 769 q 397 943 306 904 q 590 982 487 982 z "},"®":{"ha":1179,"x_min":94,"x_max":1085,"o":"m 562 489 q 702 528 652 489 q 752 639 752 567 q 707 745 752 713 q 570 778 661 778 l 440 778 l 440 489 l 562 489 m 570 792 q 717 755 665 792 q 769 639 769 717 q 755 573 769 602 q 715 522 740 543 q 654 489 690 501 q 575 475 618 477 q 598 457 587 470 l 830 181 l 816 181 q 810 181 813 181 q 805 186 808 182 l 576 460 q 562 470 570 466 q 534 475 554 475 l 440 475 l 440 181 l 423 181 l 423 792 l 570 792 m 590 7 q 717 24 656 7 q 832 72 778 41 q 929 147 885 103 q 1005 244 973 191 q 1053 358 1036 297 q 1070 486 1070 419 q 1053 614 1070 552 q 1005 728 1036 675 q 929 826 973 782 q 832 901 885 869 q 717 950 778 933 q 590 967 656 967 q 462 950 524 967 q 348 901 401 933 q 251 826 294 869 q 176 728 207 782 q 127 614 144 675 q 110 486 110 552 q 148 299 110 387 q 250 147 185 212 q 403 44 315 82 q 590 7 490 7 m 590 982 q 783 943 692 982 q 940 837 873 904 q 1047 679 1008 769 q 1085 486 1085 589 q 1047 293 1085 383 q 940 135 1008 203 q 783 29 873 68 q 590 -10 692 -10 q 397 29 487 -10 q 239 135 306 68 q 133 293 172 203 q 94 486 94 383 q 133 679 94 589 q 239 837 172 769 q 397 943 306 904 q 590 982 487 982 z "},"™":{"ha":1024,"x_min":72,"x_max":888,"o":"m 72 972 l 390 972 l 390 958 l 240 958 l 240 582 l 223 582 l 223 958 l 72 958 l 72 972 m 888 972 l 888 582 l 874 582 l 874 938 l 875 949 l 702 660 q 695 656 700 656 l 692 656 q 685 660 688 656 l 508 948 l 509 938 l 509 582 l 494 582 l 494 972 l 503 972 q 508 971 507 972 q 512 968 510 970 l 691 679 q 693 676 692 678 q 694 672 693 674 q 696 676 695 674 q 698 679 697 678 l 872 968 q 878 972 874 972 l 888 972 z "},"℠":{"ha":994,"x_min":122,"x_max":859,"o":"m 337 935 q 332 932 336 932 q 324 937 329 932 q 309 949 319 942 q 284 961 299 956 q 247 966 269 966 q 207 959 224 966 q 178 941 190 953 q 160 915 166 930 q 154 884 154 901 q 169 840 154 856 q 206 814 183 824 q 253 796 228 803 q 301 778 278 789 q 338 749 323 767 q 352 699 352 731 q 344 654 352 675 q 320 618 336 633 q 282 594 305 603 q 231 585 260 585 q 167 598 192 585 q 122 635 142 611 l 125 640 q 131 644 127 644 q 140 636 133 644 q 157 620 146 629 q 187 605 169 612 q 231 597 205 597 q 276 605 256 597 q 309 627 296 613 q 330 658 323 640 q 338 697 338 676 q 323 742 338 726 q 286 768 308 758 q 239 785 264 778 q 191 803 213 792 q 154 833 169 815 q 140 883 140 851 q 147 919 140 902 q 168 950 154 937 q 201 971 181 963 q 247 979 221 979 q 340 941 303 979 l 337 935 m 859 972 l 859 582 l 845 582 l 845 938 l 846 949 l 673 660 q 666 656 671 656 l 663 656 q 656 660 658 656 l 478 948 l 480 938 l 480 582 l 465 582 l 465 972 l 474 972 q 479 971 478 972 q 483 968 481 970 l 662 679 q 664 676 663 678 q 665 672 664 674 q 667 676 666 674 q 669 679 667 678 l 842 968 q 849 972 844 972 l 859 972 z "},"°":{"ha":574,"x_min":92,"x_max":481,"o":"m 92 792 q 108 867 92 832 q 149 927 123 901 q 210 968 175 953 q 287 983 246 983 q 363 968 327 983 q 425 927 399 953 q 466 867 451 901 q 481 792 481 832 q 466 716 481 751 q 425 655 451 681 q 363 614 399 629 q 287 599 327 599 q 210 614 246 599 q 149 655 175 629 q 108 716 123 681 q 92 792 92 751 m 109 792 q 123 722 109 755 q 161 666 137 690 q 217 628 185 642 q 287 614 250 614 q 356 628 324 614 q 413 666 389 642 q 451 722 437 690 q 465 792 465 755 q 451 861 465 828 q 413 918 437 894 q 356 956 389 942 q 287 969 324 969 q 217 956 250 969 q 161 918 185 942 q 123 861 137 894 q 109 792 109 828 z "},"¤":{"ha":806,"x_min":126,"x_max":679,"o":"m 188 465 q 205 382 188 421 q 251 313 222 342 q 319 267 280 284 q 403 250 358 250 q 487 267 447 250 q 556 313 526 284 q 602 382 585 342 q 619 465 619 421 q 602 549 619 510 q 556 618 585 589 q 487 665 526 648 q 403 682 447 682 q 319 665 358 682 q 251 618 280 648 q 205 549 222 589 q 188 465 188 510 m 571 624 q 617 552 600 592 q 633 465 633 511 q 616 379 633 419 q 570 308 599 339 l 679 199 l 669 189 l 560 298 q 489 252 529 269 q 403 236 449 236 q 317 253 357 236 q 246 299 277 269 l 136 189 l 126 199 l 236 308 q 190 380 207 340 q 174 465 174 419 q 190 551 174 511 q 235 623 206 592 l 126 732 l 136 742 l 245 633 q 317 679 276 662 q 403 696 357 696 q 489 679 449 696 q 561 633 530 663 l 669 742 l 679 732 l 571 624 z "},"€":{"ha":806,"x_min":11,"x_max":778,"o":"m 11 578 l 136 578 q 174 749 145 674 q 250 876 203 824 q 360 955 297 928 q 501 982 424 982 q 580 975 544 982 q 647 954 616 968 q 706 918 678 940 q 761 868 734 897 l 758 864 q 753 861 757 861 q 742 869 749 861 q 721 889 734 877 q 689 915 708 901 q 643 940 670 928 q 581 960 617 952 q 501 968 546 968 q 368 943 428 968 q 264 868 308 917 q 190 745 219 818 q 153 578 162 672 l 603 578 l 603 572 q 601 566 603 568 q 593 564 599 564 l 151 564 q 149 526 150 545 q 149 486 149 506 q 151 419 149 451 l 540 419 l 540 414 q 531 406 540 406 l 152 406 q 188 232 160 307 q 260 106 215 156 q 365 29 305 55 q 499 3 426 3 q 584 12 547 3 q 649 36 621 22 q 698 67 678 50 q 732 98 718 83 q 755 121 747 112 q 768 131 763 131 q 775 126 771 131 l 778 124 q 724 69 753 94 q 661 27 696 44 q 586 -1 627 9 q 497 -11 546 -11 q 357 16 420 -11 q 247 96 294 43 q 172 226 201 149 q 135 406 143 304 l 11 406 l 11 419 l 134 419 q 132 486 132 451 q 133 526 132 506 q 135 564 133 545 l 11 564 l 11 578 z "},"$":{"ha":806,"x_min":116,"x_max":685,"o":"m 400 3 q 514 27 464 5 q 599 86 565 49 q 652 170 634 122 q 670 271 670 217 q 649 366 670 328 q 592 429 627 403 q 511 471 556 454 q 418 503 465 488 l 400 3 m 419 968 q 316 948 361 967 q 241 899 272 930 q 194 829 210 869 q 178 746 178 789 q 197 658 178 694 q 247 597 216 622 q 319 555 278 572 q 403 524 360 538 l 419 968 m 418 519 q 515 485 467 503 q 601 441 563 468 q 662 375 639 415 q 685 274 685 335 q 666 165 685 215 q 610 75 647 114 q 520 14 574 37 q 400 -11 467 -9 l 394 -179 q 385 -190 394 -190 l 378 -190 l 385 -11 q 298 -2 336 -11 q 227 23 259 7 q 168 63 195 39 q 116 115 141 86 l 119 118 q 122 121 121 120 q 127 122 124 122 q 139 114 131 122 q 161 92 147 105 q 194 63 174 78 q 241 34 214 47 q 304 12 269 21 q 385 3 340 3 l 403 508 q 314 540 357 522 q 238 583 271 557 q 184 649 204 610 q 163 746 163 688 q 180 834 163 792 q 230 909 197 876 q 310 961 263 941 q 419 982 358 981 l 424 1113 q 433 1124 424 1124 l 440 1124 l 435 982 q 555 958 502 981 q 653 886 607 935 l 651 882 q 644 878 649 878 q 624 891 637 878 q 588 922 612 905 q 527 952 564 938 q 434 968 490 967 l 418 519 z "},"¢":{"ha":806,"x_min":130,"x_max":680,"o":"m 680 81 q 648 50 669 66 q 596 22 626 35 q 528 1 566 9 q 448 -8 491 -8 l 442 -175 q 434 -186 442 -186 l 427 -186 l 433 -8 q 307 18 363 -6 q 212 87 251 42 q 151 196 172 132 q 130 340 130 260 q 152 484 130 419 q 216 595 174 549 q 318 666 258 641 q 456 692 379 692 l 462 851 q 470 863 462 863 l 477 863 l 472 692 q 583 670 534 689 q 667 621 632 651 l 663 617 q 658 614 660 614 q 642 623 653 614 q 608 644 630 633 q 552 666 585 656 q 471 678 518 676 l 449 6 q 548 19 507 6 q 614 46 588 31 q 654 74 640 61 q 672 86 667 86 q 677 83 674 86 l 680 81 m 456 678 q 326 654 383 678 q 228 587 268 631 q 168 481 189 543 q 147 340 147 418 q 167 200 147 262 q 225 96 188 139 q 316 31 263 53 q 433 6 369 8 l 456 678 z "},"£":{"ha":806,"x_min":50,"x_max":756,"o":"m 50 456 q 53 462 50 460 q 60 464 56 464 l 193 464 l 193 688 q 210 806 193 751 q 262 899 228 860 q 347 960 296 938 q 464 982 397 982 q 554 969 515 982 q 622 936 593 957 q 669 887 650 915 q 703 828 689 859 l 696 826 q 683 833 689 824 q 652 883 669 858 q 610 926 635 907 q 550 956 585 944 q 464 968 515 968 q 354 947 401 968 q 274 889 306 926 q 226 800 242 852 q 210 688 210 749 l 210 464 l 565 464 l 565 457 q 563 452 565 453 q 557 450 560 450 l 210 450 l 210 201 q 201 136 210 165 q 178 85 193 108 q 141 44 163 62 q 92 13 119 26 q 118 15 106 15 q 143 15 129 15 l 756 15 l 756 8 q 753 2 756 5 q 746 0 750 0 l 68 0 l 68 15 q 115 42 92 26 q 155 79 138 57 q 183 131 172 101 q 193 201 193 161 l 193 450 l 50 450 l 50 456 z "},"¥":{"ha":806,"x_min":88,"x_max":718,"o":"m 416 422 l 681 422 l 681 408 l 411 408 l 411 319 l 681 319 l 681 306 l 411 306 l 411 0 l 394 0 l 394 306 l 125 306 l 125 319 l 394 319 l 394 408 l 125 408 l 125 422 l 390 422 l 88 972 l 101 972 q 111 967 108 972 l 393 446 q 398 436 396 440 q 403 427 401 433 q 407 436 405 433 q 413 446 410 440 l 694 967 q 704 972 698 972 l 718 972 l 416 422 z "},"℅":{"ha":1084,"x_min":67,"x_max":1018,"o":"m 867 967 q 878 972 871 972 l 888 972 l 202 6 q 191 0 199 0 l 181 0 l 867 967 m 458 565 q 462 563 460 565 l 468 556 q 397 507 438 526 q 295 488 356 488 q 203 506 245 488 q 132 555 162 523 q 84 634 101 588 q 67 738 67 680 q 84 839 67 793 q 132 918 101 885 q 206 969 163 951 q 301 987 249 987 q 388 972 351 987 q 458 929 426 958 l 454 923 q 449 921 453 921 q 437 929 447 921 q 409 947 427 937 q 365 965 392 957 q 301 973 338 973 q 214 957 253 973 q 145 910 174 940 q 100 835 116 879 q 84 738 84 792 q 100 639 84 682 q 144 565 116 595 q 211 518 173 534 q 295 502 250 502 q 346 506 324 502 q 388 517 369 510 q 422 536 406 525 q 454 562 438 547 q 458 565 457 565 m 1018 237 q 1001 133 1018 179 q 955 55 985 88 q 883 6 925 23 q 790 -12 841 -12 q 698 6 740 -12 q 626 55 656 23 q 580 133 597 88 q 563 237 563 179 q 580 340 563 294 q 626 418 597 386 q 698 468 656 451 q 790 486 740 486 q 883 469 841 486 q 955 419 925 451 q 1001 340 985 386 q 1018 237 1018 294 m 1001 237 q 985 335 1001 292 q 942 409 970 379 q 876 456 915 440 q 790 472 837 472 q 706 456 744 472 q 639 409 667 440 q 595 335 611 379 q 580 237 580 292 q 595 138 580 181 q 639 64 611 94 q 706 18 667 34 q 790 2 744 2 q 876 18 837 2 q 942 64 915 34 q 985 138 970 94 q 1001 237 1001 181 z "},"№":{"ha":1549,"x_min":169,"x_max":1452,"o":"m 1253 971 q 1180 957 1213 971 q 1122 917 1146 943 q 1084 852 1098 890 q 1071 767 1071 815 q 1084 682 1071 719 q 1122 618 1098 644 q 1180 578 1146 592 q 1253 565 1213 565 q 1327 578 1293 565 q 1384 618 1360 592 q 1422 682 1408 644 q 1435 767 1435 719 q 1422 852 1435 815 q 1384 917 1408 890 q 1327 957 1360 943 q 1253 971 1293 971 m 1253 553 q 1173 568 1209 553 q 1111 610 1138 583 q 1071 678 1085 638 q 1057 767 1057 718 q 1071 856 1057 817 q 1111 924 1085 896 q 1173 967 1138 952 q 1253 983 1209 983 q 1333 968 1297 983 q 1395 925 1369 953 q 1436 857 1422 897 q 1450 767 1450 817 q 1436 678 1450 718 q 1395 610 1422 638 q 1333 568 1369 583 q 1253 553 1297 553 m 872 972 l 886 972 l 886 0 l 882 0 q 874 5 878 0 l 183 947 q 183 938 183 942 q 183 929 183 933 l 183 0 l 169 0 l 169 972 l 175 972 q 185 967 181 972 l 873 30 q 872 37 872 33 q 872 44 872 41 l 872 972 m 1452 417 l 1452 405 l 1054 405 l 1054 417 l 1452 417 z "},"#":{"ha":806,"x_min":72,"x_max":733,"o":"m 553 640 l 315 640 l 247 332 l 485 332 l 553 640 m 733 653 l 733 649 q 723 640 733 640 l 568 640 l 500 332 l 684 332 q 694 324 694 332 l 694 319 l 499 319 l 427 0 l 423 0 q 415 2 417 0 q 415 11 413 3 l 483 319 l 246 319 l 177 11 q 166 0 175 0 l 159 0 l 231 319 l 81 319 q 72 328 72 319 l 72 332 l 232 332 l 300 640 l 110 640 l 110 644 q 120 653 110 653 l 301 653 l 370 961 q 383 972 372 972 l 388 972 l 317 653 l 554 653 l 626 972 l 633 972 q 638 958 642 972 l 569 653 l 733 653 z "},"₀":{"ha":464,"x_min":58,"x_max":406,"o":"m 406 86 q 392 -25 406 22 q 354 -102 378 -72 q 299 -148 331 -133 q 232 -162 267 -162 q 164 -148 196 -162 q 109 -102 133 -133 q 72 -25 85 -72 q 58 86 58 22 q 72 197 58 150 q 109 275 85 244 q 164 321 133 306 q 232 336 196 336 q 299 321 267 336 q 354 275 331 306 q 392 197 378 244 q 406 86 406 150 m 389 86 q 376 193 389 148 q 342 266 364 238 q 292 309 321 295 q 232 322 264 322 q 171 309 199 322 q 120 266 142 295 q 86 193 99 238 q 74 86 74 148 q 86 -20 74 24 q 121 -93 99 -64 q 172 -135 143 -122 q 232 -149 200 -149 q 292 -135 264 -149 q 342 -93 321 -122 q 376 -20 364 -64 q 389 86 389 24 z "},"₁":{"ha":464,"x_min":113,"x_max":375,"o":"m 375 -144 l 375 -157 l 129 -157 l 129 -144 l 246 -144 l 246 290 l 249 313 l 126 203 q 117 203 122 198 l 113 210 l 251 333 l 263 333 l 263 -144 l 375 -144 z "},"₂":{"ha":464,"x_min":75,"x_max":382,"o":"m 376 -143 q 382 -149 382 -143 l 382 -157 l 75 -157 l 75 -151 q 79 -143 75 -147 l 251 32 q 292 74 273 53 q 324 115 310 94 q 346 159 338 136 q 354 207 354 181 q 344 259 354 237 q 317 295 333 281 q 278 316 300 309 q 233 322 256 322 q 148 292 181 322 q 104 214 115 262 q 94 207 102 207 l 88 208 q 104 262 92 238 q 135 302 117 285 q 179 327 154 319 q 233 336 204 336 q 284 328 259 336 q 327 305 308 321 q 358 265 347 290 q 369 207 369 241 q 361 155 369 179 q 338 109 352 131 q 303 67 323 88 q 263 25 284 47 l 94 -145 q 138 -143 112 -143 l 376 -143 z "},"₃":{"ha":464,"x_min":72,"x_max":381,"o":"m 88 208 q 105 262 92 238 q 136 302 117 285 q 180 327 155 319 q 234 336 205 336 q 284 329 260 336 q 327 307 308 322 q 356 269 345 292 q 367 214 367 246 q 359 169 367 190 q 336 134 350 149 q 302 110 322 119 q 263 96 283 100 q 351 56 320 88 q 381 -26 381 23 q 370 -80 381 -55 q 338 -123 358 -104 q 289 -152 317 -141 q 227 -162 260 -162 q 156 -150 184 -162 q 111 -120 128 -138 q 85 -81 94 -102 q 72 -40 76 -59 l 77 -37 q 83 -36 79 -36 q 90 -43 88 -37 q 96 -65 91 -47 q 116 -101 101 -82 q 156 -135 130 -119 q 227 -150 183 -150 q 287 -139 261 -150 q 330 -109 313 -127 q 356 -70 347 -92 q 365 -28 365 -48 q 356 18 365 -3 q 330 55 348 39 q 284 79 313 70 q 215 88 255 88 l 215 99 q 316 132 280 101 q 352 213 352 163 q 342 262 352 241 q 316 296 333 283 q 278 316 299 310 q 234 322 257 322 q 149 292 182 322 q 105 214 115 262 q 97 207 103 207 l 88 208 z "},"₄":{"ha":464,"x_min":49,"x_max":410,"o":"m 297 3 l 297 292 q 298 301 297 297 q 299 310 298 305 l 67 3 l 297 3 m 410 3 l 410 -4 q 403 -10 410 -10 l 311 -10 l 311 -157 l 297 -157 l 297 -10 l 58 -10 q 50 -6 50 -10 l 49 1 l 299 331 l 311 331 l 311 3 l 410 3 z "},"₅":{"ha":464,"x_min":85,"x_max":370,"o":"m 125 132 q 213 144 173 144 q 282 134 252 144 q 331 105 312 124 q 360 59 351 85 q 370 0 370 32 q 357 -69 370 -39 q 321 -120 344 -99 q 269 -152 299 -141 q 206 -162 239 -162 q 136 -151 167 -162 q 85 -125 104 -140 l 90 -118 q 95 -115 92 -115 q 107 -120 98 -115 q 129 -132 115 -126 q 162 -143 142 -138 q 206 -149 181 -149 q 263 -139 236 -149 q 310 -110 290 -129 q 342 -64 330 -92 q 353 0 353 -36 q 345 53 353 28 q 319 94 337 77 q 275 122 302 112 q 212 131 249 131 q 120 118 171 131 l 109 122 l 147 331 l 359 331 l 359 324 q 356 318 359 320 q 349 315 353 315 l 158 315 l 125 132 z "},"₆":{"ha":464,"x_min":84,"x_max":390,"o":"m 231 -150 q 291 -140 265 -150 q 335 -112 317 -130 q 363 -69 353 -94 q 373 -15 373 -44 q 363 40 373 15 q 336 82 353 65 q 295 108 319 99 q 242 117 271 117 q 181 105 208 117 q 136 75 155 94 q 109 33 118 56 q 99 -12 99 10 q 109 -67 99 -42 q 135 -111 118 -92 q 177 -140 153 -129 q 231 -150 201 -150 m 163 136 q 137 99 149 116 q 118 67 126 83 q 172 113 138 96 q 244 129 205 129 q 303 119 276 129 q 350 89 331 108 q 379 43 369 70 q 390 -15 390 17 q 378 -75 390 -48 q 345 -122 366 -102 q 295 -152 324 -141 q 231 -162 266 -162 q 172 -152 199 -162 q 125 -122 145 -142 q 95 -72 106 -101 q 84 -6 84 -43 q 99 57 84 21 q 148 139 113 93 l 287 326 q 295 331 289 331 l 308 331 l 163 136 z "},"₇":{"ha":464,"x_min":74,"x_max":395,"o":"m 395 331 l 395 325 q 394 318 395 321 q 391 311 393 315 l 156 -149 q 152 -155 155 -152 q 145 -157 149 -157 l 134 -157 l 370 301 q 374 309 372 305 q 378 315 376 313 l 80 315 q 74 322 74 315 l 74 331 l 395 331 z "},"₈":{"ha":464,"x_min":77,"x_max":387,"o":"m 233 -150 q 288 -142 263 -150 q 332 -118 314 -133 q 361 -80 351 -102 q 372 -31 372 -58 q 358 29 372 6 q 323 66 344 52 q 278 85 302 79 q 233 90 253 90 q 187 85 211 90 q 142 66 163 79 q 107 29 121 52 q 94 -31 94 6 q 104 -80 94 -58 q 132 -118 114 -102 q 176 -142 151 -133 q 233 -150 202 -150 m 110 214 q 118 173 110 192 q 141 137 126 153 q 179 112 156 122 q 233 103 202 103 q 286 112 263 103 q 324 137 309 122 q 346 173 339 153 q 353 214 353 192 q 345 258 353 238 q 321 292 337 278 q 283 315 306 307 q 233 324 260 324 q 181 315 204 324 q 143 292 158 307 q 119 258 127 278 q 110 214 110 238 m 272 97 q 316 84 295 93 q 352 58 337 74 q 377 20 368 42 q 387 -32 387 -2 q 375 -86 387 -62 q 343 -127 364 -110 q 295 -153 323 -144 q 233 -162 267 -162 q 169 -153 198 -162 q 120 -127 141 -144 q 89 -86 100 -110 q 77 -32 77 -62 q 86 20 77 -2 q 111 59 96 43 q 148 84 127 74 q 194 97 169 93 q 121 139 147 107 q 95 214 95 171 q 105 262 95 240 q 132 301 114 284 q 175 327 149 317 q 233 336 200 336 q 290 327 265 336 q 332 301 315 317 q 359 262 350 284 q 369 214 369 240 q 344 139 369 171 q 272 97 319 107 z "},"₉":{"ha":464,"x_min":80,"x_max":374,"o":"m 222 67 q 280 78 254 67 q 323 107 306 90 q 350 147 341 125 q 359 190 359 169 q 349 244 359 219 q 323 285 340 268 q 282 313 306 303 q 231 322 259 322 q 177 313 201 322 q 134 287 152 303 q 107 247 117 270 q 97 194 97 223 q 106 141 97 165 q 131 101 115 117 q 170 75 147 84 q 222 67 193 67 m 299 49 q 325 87 314 69 q 345 121 337 104 q 292 72 326 90 q 220 54 258 54 q 163 65 188 54 q 118 93 137 75 q 90 137 100 112 q 80 193 80 163 q 91 250 80 224 q 123 295 103 276 q 171 325 144 315 q 231 336 199 336 q 288 325 262 336 q 334 295 315 315 q 364 248 353 275 q 374 186 374 220 q 370 152 374 168 q 358 119 366 135 q 339 84 351 102 q 313 44 328 66 l 178 -154 q 172 -157 177 -157 l 158 -157 l 299 49 z "},"₊":{"ha":464,"x_min":72,"x_max":392,"o":"m 392 69 l 238 69 l 238 -93 l 226 -93 l 226 69 l 72 69 l 72 82 l 226 82 l 226 243 l 238 243 l 238 82 l 392 82 l 392 69 z "},"₋":{"ha":464,"x_min":91,"x_max":373,"o":"m 91 82 l 373 82 l 373 69 l 91 69 l 91 82 z "},"₌":{"ha":464,"x_min":92,"x_max":372,"o":"m 92 32 l 372 32 l 372 19 l 92 19 l 92 32 m 92 136 l 372 136 l 372 124 l 92 124 l 92 136 z "},"₍":{"ha":232,"x_min":67,"x_max":175,"o":"m 83 90 q 172 -203 83 -69 q 170 -211 175 -208 l 163 -215 q 118 -136 137 -174 q 89 -61 100 -98 q 72 14 77 -24 q 67 90 67 51 q 72 166 67 129 q 89 240 77 203 q 118 315 100 277 q 163 394 137 353 l 170 390 q 173 388 172 389 q 172 382 174 386 q 83 90 83 248 z "},"₎":{"ha":232,"x_min":56,"x_max":165,"o":"m 151 90 q 127 242 151 170 q 60 382 104 314 q 59 388 58 386 q 62 390 60 389 l 69 394 q 114 315 96 353 q 144 240 133 277 q 160 166 155 203 q 165 90 165 129 q 160 14 165 51 q 144 -61 155 -24 q 114 -136 133 -98 q 69 -215 96 -174 l 62 -211 q 60 -203 56 -208 q 127 -62 104 -135 q 151 90 151 10 z "},"⁄":{"ha":194,"x_min":-185,"x_max":382,"o":"m -162 8 q -170 1 -166 3 q -178 0 -174 0 l -185 0 l 360 964 q 374 972 364 972 l 382 972 l -162 8 z "},"⅔":{"ha":1003,"x_min":85,"x_max":922,"o":"m 265 8 q 257 1 261 3 q 249 0 253 0 l 242 0 l 787 964 q 801 972 791 972 l 809 972 l 265 8 m 387 499 q 392 493 392 499 l 392 485 l 85 485 l 85 490 q 90 499 85 494 l 262 674 q 302 716 283 695 q 335 757 321 736 q 357 800 349 778 q 365 849 365 823 q 354 900 365 878 q 327 936 344 922 q 289 957 310 951 q 244 964 267 964 q 158 934 192 964 q 115 856 125 903 q 105 849 113 849 l 98 850 q 115 903 102 880 q 146 944 127 927 q 190 969 165 960 q 244 978 215 978 q 294 970 269 978 q 338 947 319 963 q 368 907 357 931 q 380 849 380 883 q 371 797 380 821 q 348 751 363 773 q 314 709 333 729 q 273 667 294 688 l 105 497 q 148 499 122 499 l 387 499 m 628 365 q 645 419 633 395 q 676 459 658 442 q 720 484 695 476 q 774 493 745 493 q 824 486 800 493 q 867 464 849 478 q 897 426 885 449 q 908 371 908 403 q 899 326 908 347 q 876 291 890 306 q 843 267 862 276 q 803 253 824 257 q 891 213 860 245 q 922 131 922 180 q 910 77 922 102 q 878 34 899 53 q 829 5 857 16 q 767 -6 801 -6 q 697 7 724 -6 q 652 37 669 19 q 626 76 635 55 q 612 117 617 98 l 617 119 q 624 120 619 121 q 630 114 628 120 q 636 92 631 110 q 656 56 642 75 q 697 22 670 38 q 767 7 723 7 q 827 18 801 7 q 870 48 853 30 q 896 87 888 65 q 905 129 905 109 q 897 175 905 153 q 870 211 888 196 q 824 236 853 227 q 755 244 795 244 l 755 256 q 856 289 820 258 q 892 369 892 319 q 883 419 892 398 q 856 453 873 440 q 818 473 840 467 q 774 479 797 479 q 689 449 722 479 q 645 371 656 419 q 637 364 643 364 l 628 365 z "},"⅖":{"ha":998,"x_min":85,"x_max":908,"o":"m 265 8 q 257 1 261 3 q 249 0 253 0 l 242 0 l 787 964 q 801 972 791 972 l 809 972 l 265 8 m 387 499 q 392 493 392 499 l 392 485 l 85 485 l 85 490 q 90 499 85 494 l 262 674 q 302 716 283 695 q 335 757 321 736 q 357 800 349 778 q 365 849 365 823 q 354 900 365 878 q 327 936 344 922 q 289 957 310 951 q 244 964 267 964 q 158 934 192 964 q 115 856 125 903 q 105 849 113 849 l 98 850 q 115 903 102 880 q 146 944 127 927 q 190 969 165 960 q 244 978 215 978 q 294 970 269 978 q 338 947 319 963 q 368 907 357 931 q 380 849 380 883 q 371 797 380 821 q 348 751 363 773 q 314 709 333 729 q 273 667 294 688 l 105 497 q 148 499 122 499 l 387 499 m 663 289 q 750 301 710 301 q 819 291 790 301 q 869 261 849 281 q 898 216 888 242 q 908 157 908 189 q 894 88 908 118 q 859 37 881 58 q 806 5 836 16 q 744 -6 776 -6 q 673 6 705 -6 q 623 32 642 17 l 627 39 q 633 42 630 42 q 644 36 635 42 q 666 25 653 31 q 699 14 680 19 q 744 8 719 8 q 801 18 774 8 q 848 47 828 28 q 879 93 867 65 q 891 157 891 121 q 883 210 891 185 q 857 251 874 234 q 813 278 840 269 q 749 288 786 288 q 658 275 708 288 l 647 279 l 684 488 l 897 488 l 897 481 q 894 475 897 477 q 887 472 891 472 l 696 472 l 663 289 z "},"+":{"ha":806,"x_min":83,"x_max":724,"o":"m 724 458 l 410 458 l 410 131 l 396 131 l 396 458 l 83 458 l 83 472 l 396 472 l 396 799 l 410 799 l 410 472 l 724 472 l 724 458 z "},"−":{"ha":806,"x_min":124,"x_max":681,"o":"m 124 472 l 681 472 l 681 458 l 124 458 l 124 472 z "},"×":{"ha":806,"x_min":123,"x_max":683,"o":"m 414 465 l 683 196 l 673 186 l 403 455 l 133 185 l 123 194 l 393 465 l 123 735 l 134 746 l 403 476 l 672 744 l 683 733 l 414 465 z "},"÷":{"ha":806,"x_min":82,"x_max":722,"o":"m 82 472 l 722 472 l 722 458 l 82 458 l 82 472 m 357 711 q 370 743 357 730 q 401 757 383 757 q 434 743 420 757 q 447 711 447 730 q 434 680 447 692 q 401 667 420 667 q 370 680 383 667 q 357 711 357 692 m 357 217 q 370 249 357 235 q 401 263 383 263 q 434 249 420 263 q 447 217 447 235 q 434 185 447 198 q 401 172 420 172 q 370 185 383 172 q 357 217 357 198 z "},"=":{"ha":806,"x_min":125,"x_max":681,"o":"m 125 375 l 681 375 l 681 361 l 125 361 l 125 375 m 125 579 l 681 579 l 681 565 l 125 565 l 125 579 z "},"≠":{"ha":806,"x_min":126,"x_max":682,"o":"m 460 565 l 383 375 l 682 375 l 682 361 l 378 361 l 297 161 l 282 161 l 363 361 l 126 361 l 126 375 l 368 375 l 445 565 l 126 565 l 126 579 l 451 579 l 532 781 l 547 781 l 466 579 l 682 579 l 682 565 l 460 565 z "},"≈":{"ha":806,"x_min":152,"x_max":655,"o":"m 540 533 q 600 548 572 533 q 645 586 628 563 l 655 579 q 606 536 637 552 q 540 519 575 519 q 470 533 504 519 q 401 563 435 547 q 334 592 367 578 q 267 606 301 606 q 206 591 233 606 q 162 553 178 576 l 152 560 q 200 603 170 587 q 267 619 230 619 q 339 606 303 619 q 407 576 374 592 q 474 547 441 560 q 540 533 507 533 m 540 328 q 600 343 572 328 q 645 381 628 358 l 655 374 q 606 330 637 347 q 540 314 575 314 q 470 327 504 314 q 401 357 435 341 q 334 386 367 373 q 267 400 301 400 q 206 385 233 400 q 162 347 178 370 l 152 354 q 200 398 170 381 q 267 414 230 414 q 339 400 303 414 q 407 371 374 387 q 474 341 441 355 q 540 328 507 328 z "},"<":{"ha":806,"x_min":128,"x_max":635,"o":"m 176 479 q 143 465 159 470 q 160 459 151 463 q 176 451 168 456 l 622 225 q 635 210 635 218 l 635 203 l 128 461 l 128 469 l 635 728 l 635 720 q 622 706 635 712 l 176 479 z "},">":{"ha":806,"x_min":170,"x_max":677,"o":"m 677 469 l 677 461 l 170 203 l 170 210 q 183 225 170 218 l 630 451 q 663 465 647 460 q 646 471 654 467 q 630 479 638 475 l 183 706 q 170 720 170 712 l 170 728 l 677 469 z "},"±":{"ha":806,"x_min":83,"x_max":723,"o":"m 83 69 l 723 69 l 723 56 l 83 56 l 83 69 m 723 472 l 723 458 l 409 458 l 409 158 l 395 158 l 395 458 l 83 458 l 83 472 l 395 472 l 395 771 l 409 771 l 409 472 l 723 472 z "},"≤":{"ha":806,"x_min":148,"x_max":655,"o":"m 148 69 l 655 69 l 655 56 l 148 56 l 148 69 m 195 479 q 163 465 178 470 q 195 451 178 460 l 642 225 q 655 210 655 218 l 655 203 l 148 461 l 148 469 l 655 728 l 655 720 q 642 706 655 712 l 195 479 z "},"≥":{"ha":806,"x_min":151,"x_max":658,"o":"m 151 69 l 658 69 l 658 56 l 151 56 l 151 69 m 658 469 l 658 461 l 151 203 l 151 210 q 164 225 151 218 l 610 451 q 643 465 627 460 q 610 479 627 470 l 164 706 q 151 720 151 712 l 151 728 l 658 469 z "},"¬":{"ha":806,"x_min":127,"x_max":684,"o":"m 684 250 l 669 250 l 669 458 l 127 458 l 127 472 l 684 472 l 684 250 z "},"℮":{"ha":1166,"x_min":94,"x_max":1086,"o":"m 114 465 q 129 357 114 412 q 174 250 144 301 q 247 155 203 199 q 346 77 290 110 q 469 25 401 44 q 615 6 537 6 q 741 19 683 6 q 848 56 799 32 q 940 115 898 81 q 1017 193 982 150 l 1028 185 q 949 105 993 140 q 853 44 906 69 q 741 6 801 19 q 614 -7 681 -7 q 398 35 494 -7 q 234 145 302 76 q 131 303 167 215 q 94 488 94 392 q 131 684 94 594 q 234 841 168 775 q 393 945 301 908 q 596 983 485 983 q 793 949 703 983 q 948 852 883 914 q 1050 704 1013 790 q 1086 517 1086 618 l 114 517 l 114 465 m 1069 534 q 1054 648 1069 592 q 1009 751 1038 703 q 938 840 980 799 q 843 909 896 881 q 728 955 791 938 q 596 971 666 971 q 406 936 493 971 q 256 841 319 901 q 155 700 192 781 q 114 528 117 619 l 1069 528 l 1069 534 z "},"ℓ":{"ha":635,"x_min":54,"x_max":603,"o":"m 490 968 q 385 927 436 968 q 293 813 334 885 q 222 643 251 741 q 183 433 193 545 q 349 504 274 463 q 477 597 424 546 q 559 708 530 649 q 588 835 588 768 q 561 935 588 903 q 490 968 534 968 m 54 399 q 111 412 83 405 q 166 427 139 419 q 207 649 176 547 q 282 825 238 751 q 380 941 326 899 q 490 983 434 983 q 543 971 522 983 q 578 938 565 958 q 597 891 591 917 q 603 838 603 865 q 574 705 603 767 q 490 588 544 642 q 358 491 436 535 q 182 417 280 448 q 178 319 178 369 q 186 171 178 232 q 209 72 194 110 q 249 17 225 34 q 306 0 273 0 q 362 11 333 0 q 418 49 391 23 q 472 115 446 74 q 521 215 498 156 l 533 211 q 500 131 522 172 q 450 59 479 91 q 385 6 421 26 q 307 -14 349 -14 q 243 3 270 -14 q 197 59 215 20 q 170 163 179 99 q 161 319 161 226 q 162 366 161 343 q 165 412 163 390 q 57 385 114 397 l 54 399 z "},"∞":{"ha":1040,"x_min":108,"x_max":933,"o":"m 747 226 q 813 239 783 226 q 866 275 844 251 q 902 333 889 299 q 915 410 915 367 q 902 486 915 452 q 866 544 889 520 q 813 581 844 568 q 747 593 783 593 q 682 577 712 593 q 625 536 651 562 q 575 477 599 510 q 528 410 551 444 q 575 342 551 375 q 625 283 599 309 q 682 242 651 258 q 747 226 712 226 m 293 226 q 359 242 328 226 q 415 283 389 258 q 465 342 441 309 q 512 410 489 375 q 465 477 489 444 q 415 536 441 510 q 359 577 389 562 q 293 593 328 593 q 227 581 258 593 q 174 544 197 568 q 138 486 151 520 q 124 410 124 452 q 138 333 124 367 q 174 275 151 299 q 227 239 197 251 q 293 226 258 226 m 747 607 q 818 593 784 607 q 877 555 851 580 q 917 493 902 529 q 933 410 933 456 q 917 327 933 363 q 877 265 902 290 q 818 226 851 240 q 747 213 784 213 q 678 228 710 213 q 619 270 647 244 q 568 329 592 296 q 520 397 544 362 q 472 329 497 362 q 421 270 448 296 q 362 228 394 244 q 293 213 331 213 q 223 226 256 213 q 164 265 189 240 q 123 327 138 290 q 108 410 108 363 q 123 493 108 456 q 164 555 138 529 q 223 593 189 580 q 293 607 256 607 q 362 591 331 607 q 421 550 394 576 q 472 491 448 524 q 520 422 497 458 q 568 491 544 458 q 619 550 592 524 q 678 591 647 576 q 747 607 710 607 z "},"∂":{"ha":781,"x_min":85,"x_max":697,"o":"m 322 7 q 445 36 389 7 q 544 117 501 65 q 616 241 587 169 q 660 399 646 313 q 638 479 654 439 q 594 551 622 519 q 526 602 566 583 q 431 622 485 622 q 294 594 355 622 q 191 515 233 565 q 125 398 148 465 q 102 254 102 331 q 118 150 102 196 q 163 72 134 104 q 232 24 192 40 q 322 7 272 7 m 291 933 q 336 958 315 948 q 377 974 357 968 q 417 983 397 981 q 459 986 437 986 q 562 962 517 986 q 636 891 606 938 q 681 778 666 845 q 697 625 697 711 q 686 457 697 538 q 654 306 675 376 q 601 178 633 235 q 527 79 569 120 q 433 16 485 38 q 319 -7 381 -7 q 223 11 266 -7 q 149 63 180 29 q 102 144 119 96 q 85 253 85 192 q 109 401 85 331 q 178 523 133 471 q 286 606 223 575 q 428 636 350 636 q 504 625 466 636 q 574 589 542 614 q 631 525 606 565 q 667 430 656 486 q 674 487 671 458 q 678 542 676 516 q 680 591 679 569 q 680 626 680 613 q 666 773 680 708 q 624 881 652 837 q 555 948 597 925 q 459 971 514 971 q 394 964 422 971 q 347 948 366 956 q 316 932 328 940 q 299 925 304 925 q 294 929 296 925 l 291 933 z "},"∫":{"ha":716,"x_min":13,"x_max":703,"o":"m 396 876 q 424 990 403 942 q 476 1068 445 1038 q 545 1112 506 1098 q 629 1126 584 1126 q 671 1123 651 1126 q 703 1113 690 1121 l 700 1108 q 693 1102 697 1102 q 681 1105 689 1103 q 660 1110 673 1107 q 629 1113 648 1113 q 551 1100 588 1113 q 487 1059 515 1087 q 440 985 459 1031 q 413 876 421 940 l 319 -6 q 291 -120 312 -72 q 240 -198 270 -167 q 170 -242 209 -228 q 86 -256 131 -256 q 44 -253 64 -256 q 13 -243 25 -251 l 15 -237 q 22 -233 18 -233 q 34 -235 26 -233 q 55 -240 42 -237 q 86 -242 67 -242 q 164 -230 128 -242 q 228 -189 200 -217 q 275 -115 256 -160 q 303 -6 294 -70 l 396 876 z "},"√":{"ha":882,"x_min":51,"x_max":853,"o":"m 853 1199 l 463 0 l 451 0 l 254 496 l 60 496 q 51 504 51 496 l 51 508 l 256 508 q 266 505 263 508 q 270 499 269 502 l 448 47 q 453 33 451 40 q 457 22 456 27 q 460 34 458 28 q 463 47 462 40 l 835 1189 q 848 1199 840 1199 l 853 1199 z "},"∏":{"ha":917,"x_min":49,"x_max":868,"o":"m 868 957 l 708 957 l 708 -250 l 692 -250 l 692 957 l 225 957 l 225 -250 l 208 -250 l 208 957 l 49 957 l 49 972 l 868 972 l 868 957 z "},"∑":{"ha":947,"x_min":55,"x_max":874,"o":"m 874 957 l 81 957 l 573 363 l 573 360 l 81 -235 l 874 -235 l 874 -250 l 55 -250 l 55 -242 q 58 -234 55 -237 l 551 361 l 58 956 q 55 964 55 959 l 55 972 l 874 972 l 874 957 z "},"◊":{"ha":806,"x_min":111,"x_max":694,"o":"m 676 457 l 413 994 q 407 1008 409 1001 q 403 1022 404 1015 q 399 1008 401 1015 q 393 994 397 1001 l 129 457 l 393 -81 q 399 -94 397 -87 q 403 -108 401 -101 q 407 -94 404 -101 q 413 -81 409 -87 l 676 457 m 694 457 l 408 -128 l 397 -128 l 111 457 l 397 1042 l 408 1042 l 694 457 z "},"←":{"ha":1389,"x_min":93,"x_max":1292,"o":"m 93 438 l 465 810 l 469 807 q 471 799 472 802 q 466 792 469 796 l 144 471 q 127 455 135 461 q 113 444 119 448 q 133 445 122 445 q 165 446 144 446 l 1292 446 l 1292 430 l 165 430 q 134 431 144 430 q 113 432 123 431 q 144 405 124 424 l 469 80 q 474 74 473 76 q 472 66 476 71 l 469 62 l 93 438 z "},"→":{"ha":1389,"x_min":97,"x_max":1296,"o":"m 1296 438 l 924 65 l 920 69 q 918 77 917 74 q 923 83 919 80 l 1244 405 q 1276 432 1265 424 q 1256 430 1267 431 q 1224 430 1245 430 l 97 430 l 97 446 l 1224 446 q 1255 445 1244 446 q 1276 444 1266 444 q 1262 455 1270 448 q 1244 471 1254 461 l 919 796 q 915 802 916 799 q 917 810 913 805 l 920 814 l 1296 438 z "},"↑":{"ha":1042,"x_min":146,"x_max":894,"o":"m 894 669 l 890 666 q 882 664 885 663 q 876 669 879 665 l 554 990 q 527 1022 535 1011 q 529 1002 528 1013 q 529 970 529 991 l 529 -157 l 513 -157 l 513 970 q 514 1001 513 990 q 515 1022 515 1012 q 505 1008 511 1016 q 488 990 498 1000 l 164 666 q 158 661 160 663 q 150 663 155 660 l 146 667 l 522 1042 l 894 669 z "},"↓":{"ha":1042,"x_min":149,"x_max":897,"o":"m 897 149 l 521 -226 l 149 146 l 152 149 q 160 151 157 153 q 167 147 163 150 l 488 -175 q 515 -207 508 -196 q 514 -186 514 -197 q 513 -155 513 -176 l 513 972 l 529 972 l 529 -155 q 528 -186 529 -175 q 527 -207 528 -197 q 538 -193 531 -201 q 554 -175 544 -185 l 879 150 q 885 155 883 153 q 893 153 888 156 l 897 149 z "},"↗":{"ha":1042,"x_min":50,"x_max":903,"o":"m 903 847 l 903 320 l 898 321 q 891 325 892 322 q 890 333 890 328 l 890 788 q 890 811 890 801 q 892 829 891 822 q 879 813 886 822 q 858 791 872 805 l 60 -6 l 50 5 l 847 802 q 869 823 860 816 q 885 837 877 831 q 867 835 877 835 q 843 834 857 834 l 383 834 q 375 835 378 835 q 372 842 372 836 l 371 847 l 903 847 z "},"↖":{"ha":1042,"x_min":139,"x_max":992,"o":"m 992 5 l 981 -6 l 184 791 q 163 813 170 805 q 149 829 156 822 q 151 811 151 822 q 152 788 152 801 l 152 333 q 151 325 152 328 q 144 321 150 322 l 139 320 l 139 847 l 671 847 l 670 842 q 667 835 669 836 q 658 834 664 835 l 199 834 q 175 835 185 834 q 157 837 165 835 q 173 823 165 831 q 195 802 181 816 l 992 5 z "},"↘":{"ha":1042,"x_min":50,"x_max":903,"o":"m 903 527 l 903 0 l 371 0 l 372 5 q 375 12 372 11 q 383 13 378 13 l 843 13 q 867 13 857 13 q 885 10 877 12 q 869 24 877 17 q 847 45 860 31 l 50 842 l 60 853 l 858 56 q 879 34 872 42 q 892 18 886 26 q 890 36 891 26 q 890 60 890 46 l 890 515 q 891 523 890 519 q 898 526 892 526 l 903 527 z "},"↙":{"ha":1042,"x_min":139,"x_max":992,"o":"m 139 0 l 139 527 l 144 526 q 151 523 150 526 q 152 515 152 519 l 152 60 q 149 19 152 32 q 163 34 156 26 q 184 56 170 42 l 981 853 l 992 842 l 195 45 q 173 24 181 31 q 158 10 165 17 q 175 13 165 12 q 199 13 185 13 l 658 13 q 667 12 664 13 q 670 5 669 11 l 671 0 l 139 0 z "},"↔":{"ha":1389,"x_min":93,"x_max":1296,"o":"m 1296 438 l 924 65 l 920 69 q 918 77 917 74 q 923 83 919 80 l 1244 405 q 1276 432 1265 424 q 1256 430 1267 431 q 1224 430 1245 430 l 116 430 q 144 405 128 421 l 469 80 q 474 74 473 76 q 472 66 476 71 l 469 62 l 93 438 l 465 810 l 469 807 q 471 799 472 802 q 466 792 469 796 l 144 471 q 115 446 126 454 l 1224 446 q 1255 445 1244 446 q 1276 444 1266 444 q 1262 455 1270 448 q 1244 471 1254 461 l 919 796 q 915 802 916 799 q 917 810 913 805 l 920 814 l 1296 438 z "},"↕":{"ha":1042,"x_min":145,"x_max":898,"o":"m 522 -226 l 149 146 l 153 149 q 161 151 158 153 q 167 147 164 150 l 489 -175 q 503 -190 497 -183 q 513 -203 509 -197 l 513 970 q 514 1001 513 990 q 515 1022 515 1012 q 488 990 507 1009 l 163 665 q 157 660 160 662 q 149 663 154 659 l 145 666 l 522 1042 l 894 669 l 890 666 q 882 664 885 663 q 876 669 879 665 l 554 990 q 538 1008 544 1000 q 527 1022 531 1016 q 529 1001 528 1012 q 529 970 529 990 l 529 -204 q 555 -175 538 -191 l 880 150 q 886 155 883 153 q 894 153 889 156 l 898 149 l 522 -226 z "},"Ơ":{"ha":1139,"x_min":95,"x_max":1091,"o":"m 544 4 q 719 37 640 4 q 856 132 799 70 q 944 284 913 194 q 976 486 976 373 q 944 689 976 599 q 856 841 913 778 q 719 936 799 903 q 544 969 640 969 q 370 936 449 969 q 234 841 291 903 q 144 689 176 778 q 112 486 112 599 q 144 284 112 373 q 234 132 176 194 q 370 37 291 70 q 544 4 449 4 m 1080 1063 q 1088 1029 1085 1047 q 1091 994 1091 1012 q 1074 916 1091 949 q 1029 863 1057 884 q 966 832 1001 842 q 893 821 931 822 q 968 674 942 758 q 994 486 994 590 q 961 279 994 371 q 868 123 928 188 q 726 25 809 59 q 544 -10 644 -10 q 362 25 444 -10 q 220 123 280 59 q 128 279 161 188 q 95 486 95 371 q 128 693 95 601 q 220 849 161 785 q 362 949 280 914 q 544 983 444 983 q 737 944 651 983 q 883 833 824 906 q 956 842 922 833 q 1014 867 990 851 q 1053 905 1039 883 q 1067 953 1067 926 q 1061 982 1067 972 q 1048 999 1055 992 q 1034 1013 1040 1006 q 1028 1033 1028 1019 q 1037 1055 1028 1047 q 1059 1063 1045 1063 l 1080 1063 z "},"Ư":{"ha":1075,"x_min":149,"x_max":1065,"o":"m 1053 1063 q 1062 1029 1059 1047 q 1065 994 1065 1012 q 1046 913 1065 946 q 997 859 1027 879 q 928 829 967 838 q 851 820 890 820 l 851 361 q 827 216 851 284 q 757 97 803 148 q 646 17 711 47 q 500 -12 581 -12 q 354 17 419 -12 q 243 97 289 47 q 173 216 197 148 q 149 361 149 284 l 149 972 l 165 972 l 165 363 q 188 223 165 288 q 254 108 211 157 q 359 31 297 59 q 500 3 422 3 q 641 31 578 3 q 746 108 703 59 q 812 222 789 156 q 835 361 835 287 l 835 972 l 851 972 l 851 833 q 926 841 892 833 q 986 866 960 850 q 1026 904 1012 881 q 1041 953 1041 926 q 1035 982 1041 972 q 1021 999 1028 992 q 1008 1013 1014 1006 q 1002 1033 1002 1019 q 1010 1055 1002 1047 q 1033 1063 1019 1063 l 1053 1063 z "},"ơ":{"ha":807,"x_min":85,"x_max":796,"o":"m 382 6 q 504 30 451 6 q 592 98 557 54 q 645 203 627 142 q 663 340 663 265 q 645 477 663 415 q 592 584 627 540 q 504 653 557 628 q 382 678 451 678 q 259 653 312 678 q 172 584 207 628 q 119 477 137 540 q 101 340 101 415 q 119 203 101 265 q 172 98 137 142 q 259 30 207 54 q 382 6 312 6 m 786 783 q 794 753 792 768 q 796 723 796 738 q 781 653 796 682 q 742 606 767 624 q 687 578 718 587 q 623 567 656 569 q 665 465 651 522 q 679 340 679 408 q 660 197 679 261 q 602 87 640 133 q 509 16 565 41 q 382 -8 453 -8 q 255 16 310 -8 q 161 87 199 41 q 104 197 124 133 q 85 340 85 261 q 104 484 85 419 q 161 595 124 549 q 255 666 199 641 q 382 692 310 692 q 520 662 461 692 q 616 577 578 632 q 679 587 650 578 q 729 610 708 595 q 762 646 750 625 q 774 694 774 667 q 769 715 774 708 q 757 727 764 722 q 745 738 751 732 q 740 756 740 744 q 748 776 740 769 q 767 783 756 783 l 786 783 z "},"ư":{"ha":809,"x_min":120,"x_max":803,"o":"m 794 783 q 801 753 799 768 q 803 723 803 738 q 789 652 803 681 q 749 604 774 623 q 692 576 724 585 q 627 566 660 567 l 627 0 l 623 0 q 613 11 613 0 l 610 142 q 557 78 586 107 q 494 30 528 50 q 422 0 460 10 q 345 -11 385 -11 q 176 56 231 -11 q 120 244 120 124 l 120 681 l 137 681 l 137 244 q 149 143 137 188 q 188 67 162 98 q 253 19 214 35 q 345 3 292 3 q 492 45 425 3 q 610 163 560 88 l 610 681 l 627 681 l 627 577 q 689 587 660 578 q 738 611 717 596 q 770 647 758 626 q 782 694 782 668 q 777 715 782 708 q 765 727 772 722 q 753 738 758 732 q 748 756 748 744 q 756 776 748 769 q 775 783 763 783 l 794 783 z "},"₫":{"ha":802,"x_min":77,"x_max":733,"o":"m 84 -142 l 697 -142 l 697 -156 l 84 -156 l 84 -142 m 602 548 q 555 608 580 583 q 503 649 531 633 q 444 671 475 664 q 377 678 413 678 q 252 652 305 678 q 164 581 199 627 q 111 470 128 535 q 94 327 94 406 q 111 190 94 250 q 160 89 128 130 q 238 27 192 48 q 341 6 283 6 q 490 48 425 6 q 602 165 555 90 l 602 548 m 733 826 l 733 813 l 619 813 l 619 0 l 615 0 q 605 11 605 0 l 602 144 q 547 78 576 106 q 487 31 519 50 q 419 1 455 11 q 342 -8 383 -8 q 229 14 278 -8 q 146 79 180 36 q 95 184 113 122 q 77 327 77 247 q 97 476 77 409 q 154 592 116 544 q 247 666 192 640 q 376 692 303 692 q 507 661 453 692 q 602 569 562 630 l 602 813 l 427 813 l 427 826 l 602 826 l 602 1000 l 619 1000 l 619 826 l 733 826 z "},"○":{"ha":922,"x_min":80,"x_max":841,"o":"m 80 454 q 110 602 80 533 q 191 723 140 672 q 313 805 243 775 q 460 835 382 835 q 608 805 539 835 q 730 723 678 775 q 811 602 781 672 q 841 454 841 533 q 811 306 841 376 q 730 185 781 237 q 608 103 678 133 q 460 74 539 74 q 313 103 382 74 q 191 185 243 133 q 110 306 140 237 q 80 454 80 376 m 95 454 q 124 311 95 378 q 201 195 152 244 q 317 117 251 145 q 460 88 384 88 q 603 117 537 88 q 719 194 670 145 q 797 310 769 244 q 826 453 826 377 q 797 597 826 530 q 719 713 769 663 q 603 791 670 763 q 460 819 537 819 q 317 791 384 819 q 201 713 251 763 q 124 597 152 664 q 95 454 95 531 z "},"◌":{"ha":922,"x_min":106,"x_max":819,"o":"m 441 790 q 447 805 441 799 q 461 810 453 810 q 476 805 469 810 q 482 790 482 799 q 476 776 482 782 q 461 769 469 769 q 447 776 453 769 q 441 790 441 782 m 569 765 q 575 779 569 773 q 589 785 581 785 q 603 779 597 785 q 610 765 610 773 q 603 750 610 756 q 589 744 597 744 q 575 750 581 744 q 569 765 569 756 m 678 692 q 684 707 678 701 q 698 713 690 713 q 713 707 706 713 q 719 692 719 701 q 713 678 719 684 q 698 672 706 672 q 684 678 690 672 q 678 692 678 684 m 749 585 q 755 599 749 593 q 769 605 760 605 q 783 599 777 605 q 790 585 790 593 q 783 570 790 576 q 769 564 777 564 q 755 570 760 564 q 749 585 749 576 m 778 455 q 784 469 778 463 q 798 475 790 475 q 813 469 806 475 q 819 455 819 463 q 813 440 819 447 q 798 434 806 434 q 784 440 790 434 q 778 455 778 447 m 311 765 q 317 779 311 773 q 331 785 323 785 q 346 779 340 785 q 352 765 352 773 q 346 750 352 756 q 331 744 340 744 q 317 750 323 744 q 311 765 311 756 m 203 692 q 209 707 203 701 q 224 713 215 713 q 238 707 232 713 q 244 692 244 701 q 238 678 244 684 q 224 672 232 672 q 209 678 215 672 q 203 692 203 684 m 131 585 q 137 599 131 593 q 151 605 143 605 q 166 599 160 605 q 172 585 172 593 q 166 570 172 576 q 151 564 160 564 q 137 570 143 564 q 131 585 131 576 m 106 455 q 111 469 106 463 q 126 475 117 475 q 140 469 134 475 q 147 455 147 463 q 140 440 147 447 q 126 434 134 434 q 111 440 117 434 q 106 455 106 447 m 749 327 q 755 341 749 335 q 769 347 760 347 q 783 341 777 347 q 790 327 790 335 q 783 313 790 319 q 769 306 777 306 q 755 313 760 306 q 749 327 749 319 m 131 327 q 137 341 131 335 q 151 347 143 347 q 166 341 160 347 q 172 327 172 335 q 166 313 172 319 q 151 306 160 306 q 137 313 143 306 q 131 327 131 319 m 678 218 q 684 232 678 226 q 698 238 690 238 q 713 232 706 238 q 719 218 719 226 q 713 203 719 210 q 698 197 706 197 q 684 203 690 197 q 678 218 678 210 m 203 218 q 209 232 203 226 q 224 238 215 238 q 238 232 232 238 q 244 218 244 226 q 238 203 244 210 q 224 197 232 197 q 209 203 215 197 q 203 218 203 210 m 569 147 q 575 161 569 156 q 589 167 581 167 q 603 161 597 167 q 610 147 610 156 q 603 133 610 139 q 589 126 597 126 q 575 133 581 126 q 569 147 569 139 m 311 147 q 317 161 311 156 q 331 167 323 167 q 346 161 340 167 q 352 147 352 156 q 346 133 352 139 q 331 126 340 126 q 317 133 323 126 q 311 147 311 139 m 441 118 q 447 132 441 126 q 461 138 453 138 q 476 132 469 138 q 482 118 482 126 q 476 103 482 110 q 461 97 469 97 q 447 103 453 97 q 441 118 441 110 z "},"͏":{"ha":0,"x_min":0,"x_max":0,"o":""},"᷂":{"ha":0,"x_min":-61,"x_max":52,"o":"m -61 -59 q -57 -53 -61 -56 q -46 -48 -52 -51 q -33 -44 -40 -46 q -23 -43 -27 -43 q -17 -45 -19 -43 q -13 -50 -15 -47 q -5 -57 -10 -53 q 15 -64 1 -60 q 44 -78 35 -69 q 52 -97 52 -86 q 42 -118 52 -109 q 20 -134 33 -127 q -1 -148 8 -142 q -11 -162 -11 -155 q -2 -177 -11 -170 q 17 -191 6 -183 q 36 -207 27 -198 q 44 -226 44 -215 q 38 -243 44 -236 q 23 -258 31 -251 q 9 -272 15 -265 q 2 -288 2 -279 q 13 -309 2 -300 q 34 -323 24 -317 q 35 -324 35 -324 q 33 -326 35 -326 q 5 -312 18 -323 q -9 -287 -9 -301 q -3 -270 -9 -278 q 11 -255 3 -262 q 25 -241 19 -247 q 31 -228 31 -234 q 22 -213 31 -220 q 2 -198 13 -206 q -17 -183 -8 -191 q -26 -164 -26 -174 q -16 -144 -26 -153 q 6 -128 -6 -135 q 28 -113 18 -120 q 38 -97 38 -106 q 28 -82 38 -88 q 3 -76 19 -76 q -7 -77 -4 -76 q -11 -80 -10 -78 q -15 -82 -13 -81 q -22 -83 -17 -83 q -49 -74 -37 -83 q -61 -59 -61 -65 z "},"Ɓ":{"ha":1026,"x_min":52,"x_max":933,"o":"m 617 14 q 743 29 688 14 q 837 75 799 44 q 896 150 876 105 q 916 256 916 196 q 895 351 916 308 q 835 424 874 394 q 741 470 797 454 q 619 486 686 486 l 344 486 l 344 14 l 617 14 m 344 958 l 344 500 l 587 500 q 719 522 665 500 q 807 577 773 543 q 856 651 841 610 q 872 731 872 692 q 800 899 872 839 q 580 958 728 958 l 344 958 m 580 972 q 811 910 735 972 q 887 731 887 848 q 870 647 887 688 q 823 575 853 607 q 752 522 793 543 q 663 496 711 501 q 775 473 726 492 q 860 424 825 455 q 914 351 895 393 q 933 256 933 308 q 911 146 933 194 q 850 66 890 98 q 750 17 809 33 q 617 0 692 0 l 327 0 l 327 958 l 288 958 q 122 913 178 958 q 67 789 67 867 q 70 751 67 771 q 80 711 74 731 q 82 702 81 706 q 76 697 82 698 l 70 695 q 57 743 61 720 q 52 789 52 766 q 67 865 52 831 q 113 923 83 899 q 187 959 143 947 q 288 972 231 972 l 580 972 z "},"Ƅ":{"ha":849,"x_min":82,"x_max":788,"o":"m 452 14 q 593 35 533 14 q 692 92 653 56 q 752 180 732 129 q 772 290 772 231 q 751 391 772 343 q 691 476 731 440 q 591 534 651 513 q 453 556 531 556 l 192 556 l 192 14 l 452 14 m 453 569 q 597 547 535 569 q 702 487 660 525 q 766 398 744 449 q 788 290 788 347 q 767 175 788 228 q 705 83 747 122 q 600 22 663 44 q 452 0 537 0 l 176 0 l 176 763 l 82 808 l 180 972 l 192 972 l 192 569 l 453 569 z "},"Ɔ":{"ha":962,"x_min":72,"x_max":867,"o":"m 83 131 q 88 128 85 131 q 153 75 120 98 q 225 35 186 51 q 310 11 263 19 q 416 3 356 3 q 589 36 509 3 q 726 131 668 69 q 818 283 785 194 q 851 486 851 373 q 817 687 851 597 q 725 839 784 776 q 583 936 665 902 q 402 969 501 969 q 273 953 328 969 q 182 916 219 936 q 125 879 145 896 q 101 863 106 863 q 94 865 95 863 l 91 869 q 159 918 124 897 q 231 954 193 940 q 312 976 269 969 q 402 983 354 983 q 591 948 506 983 q 739 846 677 912 q 834 689 800 781 q 867 486 867 597 q 834 279 867 371 q 740 122 800 187 q 597 23 679 58 q 416 -11 514 -11 q 306 -1 356 -11 q 214 27 256 9 q 137 69 172 44 q 72 124 102 94 l 78 129 q 83 131 80 131 z "},"Ƈ":{"ha":951,"x_min":95,"x_max":1100,"o":"m 891 124 q 825 69 860 94 q 749 27 790 44 q 657 -1 707 9 q 547 -11 607 -11 q 366 23 449 -11 q 223 122 283 58 q 129 279 163 187 q 95 486 95 371 q 129 689 95 597 q 224 846 163 781 q 371 948 285 912 q 560 983 457 983 q 647 977 606 983 q 724 957 688 970 q 794 924 761 944 q 860 879 828 905 q 858 918 858 900 q 858 954 858 936 q 867 1041 858 1003 q 896 1107 877 1080 q 942 1148 915 1134 q 1006 1163 970 1163 q 1052 1158 1029 1163 q 1100 1144 1075 1153 l 1099 1139 q 1093 1134 1097 1133 q 1084 1135 1090 1134 q 1044 1145 1064 1142 q 1006 1149 1024 1149 q 905 1097 938 1149 q 872 954 872 1044 l 872 869 l 869 865 q 862 863 867 863 q 837 879 857 863 q 781 916 817 896 q 689 953 744 936 q 560 969 635 969 q 380 936 462 969 q 238 839 297 902 q 145 687 178 776 q 112 486 112 597 q 145 283 112 373 q 236 131 178 194 q 374 36 294 69 q 547 3 453 3 q 652 11 606 3 q 737 35 699 19 q 809 75 776 51 q 874 128 842 98 q 880 131 878 131 q 885 129 883 131 l 891 124 z "},"Ɗ":{"ha":1221,"x_min":52,"x_max":1124,"o":"m 674 14 q 850 45 770 14 q 986 137 929 76 q 1075 285 1043 197 q 1106 486 1106 373 q 1075 687 1106 599 q 986 835 1043 775 q 850 927 929 896 q 674 958 770 958 l 344 958 l 344 14 l 674 14 m 674 972 q 857 940 774 972 q 999 844 940 907 q 1091 692 1058 782 q 1124 486 1124 601 q 1091 281 1124 371 q 999 128 1058 190 q 857 33 940 65 q 674 0 774 0 l 327 0 l 327 958 l 288 958 q 122 913 178 958 q 67 789 67 867 q 70 751 67 771 q 80 711 74 731 q 82 702 81 706 q 76 697 82 698 l 70 695 q 57 743 61 720 q 52 789 52 766 q 67 865 52 831 q 113 923 83 899 q 187 959 143 947 q 288 972 231 972 l 674 972 z "},"Ƌ":{"ha":831,"x_min":85,"x_max":670,"o":"m 653 14 l 653 500 l 392 500 q 177 441 251 500 q 102 263 102 382 q 177 78 102 142 q 394 14 252 14 l 653 14 m 670 972 l 670 0 l 394 0 q 262 18 319 0 q 165 69 204 35 q 106 152 126 103 q 85 263 85 201 q 164 450 85 386 q 392 514 243 514 l 653 514 l 653 958 l 113 958 l 113 972 l 670 972 z "},"Ǝ":{"ha":809,"x_min":78,"x_max":648,"o":"m 648 0 l 80 0 l 78 15 l 631 15 l 631 486 l 163 486 l 163 501 l 631 501 l 631 957 l 80 957 l 80 972 l 648 972 l 648 0 z "},"Ə":{"ha":972,"x_min":88,"x_max":874,"o":"m 103 403 q 131 235 103 309 q 206 111 158 162 q 317 34 253 60 q 453 7 381 7 q 611 35 541 7 q 733 115 682 63 q 815 240 784 167 q 854 403 846 313 l 103 403 m 115 859 q 174 907 141 884 q 248 947 206 930 q 339 974 289 964 q 449 985 389 985 q 627 950 548 985 q 761 849 706 915 q 845 688 816 783 q 874 472 874 592 q 846 277 874 365 q 764 126 817 189 q 632 28 710 63 q 453 -7 553 -7 q 310 20 377 -7 q 194 101 244 48 q 116 231 145 153 q 88 408 88 308 q 91 415 88 413 q 99 418 95 418 l 856 418 q 858 472 858 444 q 828 684 858 591 q 744 841 798 777 q 615 938 690 904 q 449 971 540 971 q 347 962 392 971 q 268 940 302 953 q 208 912 233 927 q 167 883 183 897 q 140 861 150 870 q 126 853 131 853 q 119 856 122 853 l 115 859 z "},"Ɛ":{"ha":821,"x_min":97,"x_max":747,"o":"m 747 114 q 704 70 732 92 q 638 30 676 48 q 551 0 599 12 q 448 -11 503 -11 q 301 10 367 -11 q 191 67 236 31 q 121 156 145 104 q 97 269 97 207 q 114 358 97 313 q 166 439 131 402 q 254 502 201 476 q 381 538 308 528 q 264 564 313 544 q 184 611 215 583 q 140 672 153 638 q 126 743 126 706 q 148 838 126 794 q 211 914 169 881 q 311 964 252 946 q 445 982 371 982 q 614 955 544 982 q 731 883 683 927 l 728 879 q 722 876 725 876 q 699 891 716 876 q 650 922 682 905 q 567 954 617 940 q 445 968 517 968 q 314 950 371 968 q 219 901 258 932 q 161 830 181 871 q 142 743 142 789 q 167 655 142 692 q 235 593 192 618 q 335 557 278 569 q 454 544 392 544 l 609 544 l 609 531 l 454 531 q 308 509 372 531 q 201 452 244 488 q 136 369 158 416 q 113 269 113 322 q 137 161 113 210 q 205 77 161 113 q 311 23 249 42 q 448 3 373 3 q 573 21 520 3 q 661 61 626 39 q 713 100 696 83 q 730 118 730 118 q 735 122 733 122 q 740 119 738 122 l 747 114 z "},"Ƒ":{"ha":783,"x_min":-67,"x_max":729,"o":"m 178 957 l 178 488 l 660 488 l 660 472 l 178 472 l 178 -53 q 168 -140 178 -101 q 138 -206 158 -178 q 91 -247 119 -233 q 26 -261 63 -261 q -19 -257 3 -261 q -67 -243 -42 -252 l -66 -237 q -61 -232 -65 -232 q -51 -234 -57 -233 q -11 -244 -31 -241 q 26 -247 8 -247 q 127 -195 94 -247 q 161 -53 161 -143 l 161 972 l 729 972 l 729 957 l 178 957 z "},"Ɠ":{"ha":1030,"x_min":95,"x_max":1126,"o":"m 898 872 l 895 868 q 888 864 893 864 q 876 872 885 864 q 851 891 867 880 q 811 917 835 903 q 753 942 787 931 q 675 961 719 953 q 574 969 631 969 q 383 936 469 969 q 238 841 298 903 q 144 689 177 778 q 112 486 112 599 q 144 283 112 373 q 235 131 176 194 q 377 36 294 69 q 559 3 459 3 q 667 9 619 3 q 757 29 715 16 q 836 60 799 42 q 910 102 873 78 l 910 404 l 692 404 q 686 407 689 404 q 684 411 684 409 l 684 418 l 926 418 l 926 96 q 851 52 890 72 q 768 18 813 32 q 673 -3 724 4 q 559 -11 621 -11 q 369 23 454 -11 q 223 122 283 58 q 128 279 162 187 q 95 486 95 371 q 128 693 95 601 q 224 849 162 785 q 375 949 287 914 q 574 983 464 983 q 669 977 626 983 q 750 958 713 971 q 821 927 788 946 q 885 882 854 908 q 884 919 884 903 q 884 954 884 936 q 894 1041 884 1003 q 922 1107 903 1080 q 969 1148 941 1134 q 1033 1163 997 1163 q 1078 1158 1056 1163 q 1126 1144 1101 1153 l 1125 1139 q 1120 1134 1124 1133 q 1110 1135 1116 1134 q 1070 1145 1090 1142 q 1033 1149 1051 1149 q 931 1097 965 1149 q 898 954 898 1044 l 898 872 z "},"Ɣ":{"ha":861,"x_min":-2,"x_max":863,"o":"m 442 350 l 684 0 l 178 0 l 419 350 l -2 973 l 13 973 q 22 969 19 973 q 26 963 25 966 l 431 360 l 435 368 l 835 963 q 841 970 838 967 q 848 973 844 973 l 863 973 l 442 350 m 657 14 q 646 25 651 18 l 429 340 q 425 332 428 337 l 213 23 q 203 14 210 17 l 657 14 z "},"Ɩ":{"ha":383,"x_min":155,"x_max":363,"o":"m 155 972 l 172 972 l 172 168 q 210 46 172 87 q 322 5 249 5 l 363 5 l 363 -2 q 362 -5 363 -3 q 357 -7 361 -6 q 344 -8 353 -8 q 322 -9 336 -9 q 198 37 242 -9 q 155 168 155 83 l 155 972 z "},"Ƙ":{"ha":876,"x_min":161,"x_max":847,"o":"m 178 503 l 243 503 q 266 503 256 503 q 284 507 276 504 q 301 516 293 510 q 317 533 308 522 l 598 901 q 667 961 628 940 q 758 982 706 982 q 805 977 783 982 q 847 964 828 972 l 846 958 q 840 953 844 953 q 826 956 835 953 q 795 965 813 962 q 757 968 777 968 q 677 950 713 968 q 610 892 641 932 l 331 527 q 310 507 320 514 q 287 497 301 501 q 316 488 304 494 q 342 468 328 481 l 825 0 l 818 0 q 803 2 808 0 q 793 10 799 4 l 333 454 q 318 469 325 463 q 302 480 310 476 q 283 486 294 484 q 255 489 272 489 l 178 489 l 178 0 l 161 0 l 161 974 l 178 974 l 178 503 z "},"Ɯ":{"ha":1458,"x_min":149,"x_max":1297,"o":"m 1297 972 l 1297 0 l 1292 0 q 1283 3 1285 0 q 1281 16 1281 7 l 1280 220 q 1226 127 1258 169 q 1156 55 1194 85 q 1074 7 1117 24 q 985 -10 1030 -10 q 886 8 931 -10 q 808 61 841 26 q 752 147 774 97 q 722 263 731 198 q 683 142 711 194 q 616 57 655 91 q 529 7 577 24 q 431 -10 481 -10 q 315 14 367 -10 q 226 83 263 38 q 169 195 189 128 q 149 349 149 263 l 149 972 l 166 972 l 166 349 q 184 203 166 267 q 237 95 203 139 q 320 27 271 51 q 431 4 369 4 q 536 26 485 4 q 627 92 588 49 q 691 200 667 135 q 715 349 715 265 l 715 972 l 731 972 l 731 349 q 749 206 731 269 q 801 97 767 142 q 881 28 834 52 q 986 4 928 4 q 1077 23 1033 4 q 1159 75 1121 42 q 1228 153 1197 108 q 1280 253 1258 199 l 1280 972 l 1297 972 z "},"Ɲ":{"ha":1039,"x_min":-67,"x_max":878,"o":"m 878 972 l 878 0 l 874 0 q 866 5 869 0 l 174 947 q 175 938 175 942 q 175 929 175 933 l 175 -67 q 165 -154 175 -115 q 137 -219 156 -192 q 90 -261 118 -247 q 26 -275 63 -275 q -19 -270 3 -275 q -67 -257 -42 -266 l -66 -251 q -61 -246 -65 -246 q -51 -248 -57 -247 q -11 -258 -31 -255 q 26 -261 8 -261 q 127 -209 94 -261 q 161 -67 161 -157 l 161 972 l 167 972 q 176 967 173 972 l 865 30 q 864 37 864 33 q 864 44 864 41 l 864 972 l 878 972 z "},"Ɵ":{"ha":1089,"x_min":95,"x_max":994,"o":"m 112 486 q 144 284 112 373 q 234 132 176 194 q 370 37 291 70 q 544 4 449 4 q 719 37 640 4 q 856 132 799 70 q 944 284 913 194 q 976 486 976 373 l 976 492 l 112 492 l 112 486 m 976 508 q 940 701 972 616 q 850 847 907 787 q 715 938 793 906 q 544 969 638 969 q 374 938 452 969 q 239 847 297 906 q 149 701 182 787 q 112 508 115 616 l 976 508 m 544 983 q 726 949 644 983 q 868 850 809 915 q 961 693 928 785 q 994 486 994 601 q 961 279 994 371 q 868 123 928 188 q 726 25 809 59 q 544 -10 644 -10 q 362 25 444 -10 q 220 123 280 59 q 128 279 161 188 q 95 486 95 371 q 128 693 95 601 q 220 849 161 785 q 362 949 280 914 q 544 983 444 983 z "},"Ƣ":{"ha":1295,"x_min":97,"x_max":1140,"o":"m 504 6 q 658 38 587 6 q 782 133 730 71 q 865 284 835 194 q 895 486 895 373 q 865 689 895 599 q 782 841 835 778 q 658 936 730 903 q 504 969 587 969 q 350 936 422 969 q 226 841 278 903 q 143 689 173 778 q 113 486 113 599 q 143 284 113 373 q 226 133 173 194 q 350 38 278 71 q 504 6 422 6 m 1124 790 q 1116 860 1124 828 q 1091 916 1108 892 q 1047 954 1074 940 q 983 967 1021 967 q 931 958 957 967 q 881 934 906 949 q 834 899 856 919 q 792 856 811 878 q 880 697 849 790 q 912 486 912 604 q 882 279 912 371 q 797 124 851 188 q 668 26 743 60 q 504 -8 593 -8 q 340 26 415 -8 q 211 124 265 60 q 127 279 157 188 q 97 486 97 371 q 127 693 97 601 q 211 849 157 785 q 340 949 265 914 q 504 983 415 983 q 659 953 588 983 q 783 865 729 923 q 827 910 803 889 q 876 947 851 931 q 928 972 901 963 q 983 981 956 981 q 1053 967 1024 981 q 1102 928 1083 953 q 1131 868 1122 903 q 1140 790 1140 833 l 1140 -251 l 1124 -251 l 1124 790 z "},"Ƥ":{"ha":942,"x_min":52,"x_max":876,"o":"m 547 431 q 676 451 618 431 q 774 507 733 472 q 837 591 815 543 q 859 694 859 639 q 781 891 859 824 q 547 958 703 958 l 344 958 l 344 431 l 547 431 m 547 972 q 791 903 706 972 q 876 694 876 835 q 852 583 876 634 q 784 495 828 532 q 680 438 740 458 q 547 417 619 417 l 344 417 l 344 0 l 327 0 l 327 958 l 288 958 q 122 913 178 958 q 67 789 67 867 q 70 751 67 771 q 80 711 74 731 q 82 702 81 706 q 76 697 82 698 l 70 695 q 57 743 61 720 q 52 789 52 766 q 67 865 52 831 q 113 923 83 899 q 187 959 143 947 q 288 972 231 972 l 547 972 z "},"Ʀ":{"ha":776,"x_min":161,"x_max":789,"o":"m 178 316 l 374 316 q 502 333 445 316 q 600 382 560 350 q 663 459 641 413 q 685 562 685 504 q 608 736 685 681 q 386 791 531 791 l 178 791 l 178 316 m 789 -167 l 778 -167 q 769 -166 772 -167 q 760 -159 765 -165 l 396 277 q 384 289 390 284 q 371 297 378 294 q 354 301 364 300 q 329 302 344 302 l 178 302 l 178 0 l 161 0 l 161 982 l 178 982 l 178 805 l 386 805 q 620 746 538 805 q 701 562 701 687 q 678 455 701 503 q 614 374 656 408 q 514 322 572 341 q 386 302 456 303 q 399 295 393 299 q 410 284 404 290 l 789 -167 z "},"Ƨ":{"ha":728,"x_min":83,"x_max":652,"o":"m 122 888 q 224 960 169 938 q 349 983 278 983 q 461 964 413 983 q 544 912 510 944 q 594 836 577 879 q 612 747 612 794 q 590 646 612 687 q 531 577 567 606 q 449 530 495 549 q 355 493 403 510 q 261 458 307 476 q 178 412 215 439 q 120 347 142 385 q 98 250 98 308 q 117 150 98 195 q 173 72 136 104 q 261 21 209 39 q 381 3 314 3 q 463 11 427 3 q 526 34 499 20 q 574 63 554 47 q 607 91 593 78 q 629 114 621 105 q 641 122 637 122 q 646 121 644 122 q 649 118 647 120 l 652 115 q 600 62 627 85 q 541 23 573 39 q 469 -2 508 6 q 381 -11 430 -11 q 255 8 310 -11 q 161 61 199 26 q 103 143 123 95 q 83 250 83 192 q 105 350 83 309 q 163 419 127 390 q 245 467 199 447 q 340 505 292 487 q 434 541 388 522 q 516 587 480 560 q 574 652 552 614 q 597 747 597 691 q 580 831 597 791 q 533 902 564 872 q 455 951 501 933 q 349 969 409 969 q 281 963 310 969 q 228 946 251 956 q 189 924 205 936 q 161 902 172 913 q 143 886 150 892 q 131 879 135 879 q 124 883 126 879 l 122 888 z "},"Ƭ":{"ha":880,"x_min":50,"x_max":860,"o":"m 860 957 l 494 957 l 494 0 l 478 0 l 478 957 l 286 957 q 120 912 176 957 q 65 789 65 867 q 68 751 65 771 q 78 711 72 731 q 80 702 79 706 q 74 697 80 698 l 68 695 q 55 743 59 720 q 50 789 50 766 q 65 865 50 831 q 111 923 81 899 q 185 959 141 947 q 286 972 228 972 l 860 972 l 860 957 z "},"Ʈ":{"ha":790,"x_min":20,"x_max":770,"o":"m 405 -74 q 438 -213 405 -165 q 545 -261 472 -261 q 600 -254 579 -261 q 625 -247 620 -247 q 628 -247 626 -247 q 632 -252 631 -248 l 633 -257 q 590 -270 611 -266 q 545 -275 569 -275 q 426 -223 464 -275 q 388 -74 388 -171 l 388 957 l 20 957 l 20 972 l 770 972 l 770 957 l 405 957 l 405 -74 z "},"Ʊ":{"ha":1099,"x_min":99,"x_max":999,"o":"m 549 -11 q 379 19 460 -11 q 236 109 298 50 q 136 257 174 169 q 99 460 99 345 q 127 643 99 559 q 201 792 154 728 q 309 900 247 857 q 438 959 370 942 q 413 957 425 958 q 390 956 401 956 l 103 956 l 103 964 q 112 972 103 972 l 458 972 l 458 950 q 319 889 382 933 q 211 780 256 844 q 141 634 166 715 q 116 460 116 552 q 152 263 116 348 q 249 119 188 177 q 387 32 309 62 q 549 3 465 3 q 711 32 633 3 q 850 119 790 62 q 947 263 910 177 q 983 460 983 348 q 958 634 983 552 q 888 780 933 715 q 780 889 842 844 q 641 950 717 933 l 641 972 l 987 972 q 995 964 995 972 l 995 956 l 708 956 q 685 957 697 956 q 660 959 673 958 q 790 900 728 942 q 898 792 851 857 q 972 643 944 728 q 999 460 999 559 q 982 319 999 383 q 935 202 965 254 q 863 109 905 149 q 771 43 821 69 q 665 2 721 16 q 549 -11 608 -11 z "},"Ʋ":{"ha":986,"x_min":152,"x_max":890,"o":"m 644 965 q 692 978 669 974 q 739 983 715 983 q 812 966 783 983 q 858 919 841 950 q 883 842 876 888 q 890 740 890 797 q 865 518 890 620 q 799 332 841 415 q 703 184 758 248 q 586 76 648 119 q 461 10 525 33 q 338 -12 397 -12 q 254 3 289 -12 q 196 54 219 19 q 163 144 174 89 q 152 276 152 199 l 152 972 l 169 972 l 169 276 q 178 146 169 199 q 209 62 188 94 q 262 16 230 30 q 339 3 294 3 q 464 26 400 3 q 586 93 527 49 q 698 201 646 137 q 789 347 750 265 q 850 527 828 428 q 873 740 873 626 q 867 835 873 792 q 846 907 861 877 q 805 953 831 937 q 739 969 779 969 q 701 966 721 969 q 660 956 681 963 q 651 954 655 954 q 646 959 647 953 l 644 965 l 644 965 z "},"Ƴ":{"ha":953,"x_min":25,"x_max":909,"o":"m 679 881 q 742 955 708 927 q 823 982 776 982 q 865 977 846 982 q 909 964 884 973 l 908 958 q 902 953 906 953 q 893 955 899 953 q 857 965 874 961 q 822 968 840 968 q 750 942 781 968 q 692 874 718 916 l 404 413 l 404 0 l 388 0 l 388 413 l 25 972 l 39 972 q 49 967 45 972 l 376 460 q 387 443 381 451 q 396 426 392 435 q 405 443 400 435 q 416 460 410 451 l 679 881 z "},"Ƶ":{"ha":834,"x_min":62,"x_max":767,"o":"m 767 969 q 762 956 767 963 l 440 508 l 748 508 l 748 493 l 429 493 l 85 15 l 766 15 l 766 0 l 62 0 l 62 3 q 63 9 62 7 q 66 15 64 12 l 410 493 l 95 493 l 95 508 l 421 508 l 744 957 l 73 957 l 73 972 l 767 972 l 767 969 z "},"Ʒ":{"ha":800,"x_min":66,"x_max":716,"o":"m 351 579 q 520 558 451 579 q 633 500 590 537 q 696 414 676 463 q 716 309 716 365 q 692 186 716 244 q 622 84 667 128 q 511 15 576 40 q 365 -11 447 -11 q 261 0 310 -11 q 175 30 213 12 q 108 70 136 48 q 66 114 81 92 l 72 119 q 76 122 74 122 q 81 119 79 122 q 118 82 92 103 q 180 44 143 62 q 263 15 216 26 q 365 3 310 3 q 502 27 440 3 q 608 92 564 51 q 675 189 651 133 q 699 307 699 244 q 681 407 699 360 q 621 489 663 454 q 513 545 580 524 q 349 565 446 565 l 288 565 l 288 569 q 292 581 288 577 l 663 957 l 76 957 l 76 972 l 691 972 l 691 969 q 690 963 691 966 q 685 956 689 959 l 311 579 l 351 579 z "},"Ƹ":{"ha":801,"x_min":85,"x_max":735,"o":"m 735 114 q 693 70 721 92 q 627 30 665 48 q 540 0 588 12 q 436 -11 491 -11 q 290 15 355 -11 q 180 84 225 40 q 110 186 134 128 q 85 309 85 244 q 105 414 85 365 q 168 500 125 463 q 281 558 212 537 q 450 579 351 579 l 490 579 l 116 956 q 111 963 113 959 q 110 969 110 966 l 110 972 l 725 972 l 725 957 l 138 957 l 509 581 q 513 569 513 577 l 513 565 l 452 565 q 288 545 355 565 q 180 489 222 524 q 120 407 139 454 q 102 307 102 360 q 126 189 102 244 q 194 92 150 133 q 299 27 238 51 q 437 3 361 3 q 539 15 492 3 q 622 44 585 26 q 683 82 658 62 q 720 119 708 103 q 725 122 722 122 q 729 119 727 122 l 735 114 z "},"Ƽ":{"ha":778,"x_min":65,"x_max":694,"o":"m 667 965 q 664 959 667 962 q 657 957 661 957 l 270 957 l 167 572 q 266 592 219 585 q 355 598 313 598 q 502 577 438 598 q 608 518 565 556 q 673 427 651 480 q 694 311 694 374 q 673 191 694 249 q 610 88 652 133 q 507 15 569 42 q 364 -13 445 -13 q 261 -2 309 -13 q 174 28 213 10 q 108 68 135 46 q 65 112 80 90 l 72 117 q 76 119 74 119 q 82 116 78 119 q 99 98 82 116 q 151 59 116 81 q 239 19 185 37 q 364 1 292 1 q 500 26 441 1 q 598 95 558 52 q 658 195 638 139 q 678 311 678 251 q 658 420 678 370 q 599 507 639 470 q 498 564 558 543 q 355 584 437 584 q 265 577 313 584 q 161 557 217 571 l 149 563 l 253 958 q 213 957 233 957 q 174 957 193 957 l 103 957 q 98 963 98 957 l 98 972 l 667 972 l 667 965 z "},"Ǥ":{"ha":1113,"x_min":95,"x_max":1081,"o":"m 1081 237 l 926 237 l 926 96 q 851 52 890 72 q 768 18 813 32 q 673 -3 724 4 q 559 -11 621 -11 q 369 23 454 -11 q 223 122 283 58 q 128 279 162 187 q 95 486 95 371 q 128 693 95 601 q 224 849 162 785 q 375 949 287 914 q 574 983 464 983 q 674 977 628 983 q 758 957 719 970 q 831 922 797 943 q 898 872 865 901 l 895 868 q 888 864 893 864 q 876 872 885 864 q 851 891 867 880 q 811 917 835 903 q 753 942 787 931 q 675 961 719 953 q 574 969 631 969 q 383 936 469 969 q 238 841 298 903 q 144 689 177 778 q 112 486 112 599 q 144 283 112 373 q 235 131 176 194 q 377 36 294 69 q 559 3 459 3 q 667 9 619 3 q 757 29 715 16 q 836 60 799 42 q 910 102 873 78 l 910 237 l 685 238 q 680 239 682 238 q 677 244 677 241 l 677 251 l 910 251 l 910 403 l 685 403 q 677 410 677 403 l 677 417 l 926 417 l 926 251 l 1081 251 l 1081 237 z "},"Ƕ":{"ha":1481,"x_min":161,"x_max":1400,"o":"m 1169 674 q 1217 687 1194 683 q 1263 692 1240 692 q 1328 677 1302 692 q 1371 636 1355 663 q 1393 574 1387 610 q 1400 494 1400 538 q 1372 275 1400 370 q 1296 117 1343 181 q 1189 20 1249 53 q 1063 -12 1128 -12 q 982 3 1019 -12 q 918 49 945 17 q 876 128 892 80 q 861 242 861 176 l 861 486 l 178 486 l 178 0 l 161 0 l 161 972 l 178 972 l 178 501 l 861 501 l 861 972 l 878 972 l 878 242 q 891 136 878 181 q 928 61 904 91 q 986 18 952 32 q 1063 3 1021 3 q 1182 35 1124 3 q 1284 128 1240 66 q 1356 282 1329 190 q 1383 496 1383 374 q 1353 634 1383 590 q 1263 678 1324 678 q 1232 676 1247 678 q 1206 670 1217 674 q 1187 665 1194 667 q 1177 663 1179 663 q 1170 668 1171 663 l 1169 674 z "},"Ƿ":{"ha":933,"x_min":161,"x_max":845,"o":"m 178 -10 q 467 139 344 63 q 670 297 590 215 q 789 467 750 378 q 828 656 828 556 q 808 782 828 724 q 751 880 788 839 q 661 944 714 922 q 544 967 609 967 q 439 952 488 967 q 345 909 390 937 q 259 843 301 881 q 178 757 218 804 l 178 -10 m 178 778 q 259 859 219 822 q 342 924 299 897 q 435 966 385 951 q 544 981 484 981 q 665 958 610 981 q 761 891 721 934 q 823 790 801 849 q 845 660 845 731 q 804 466 845 559 q 681 289 763 374 q 472 125 598 203 q 178 -26 347 47 l 178 -251 l 161 -251 l 161 972 l 169 972 q 176 960 176 972 l 178 778 z "},"Ƞ":{"ha":982,"x_min":161,"x_max":831,"o":"m 178 781 q 254 864 215 827 q 335 927 292 901 q 428 967 378 953 q 537 981 477 981 q 659 960 605 981 q 752 899 714 939 q 811 802 790 859 q 831 674 831 745 l 831 -250 l 815 -250 l 815 675 q 796 795 815 742 q 741 887 777 849 q 654 946 706 925 q 537 967 602 967 q 429 951 479 967 q 335 909 379 936 q 253 842 292 881 q 178 757 214 803 l 178 0 l 161 0 l 161 972 l 169 972 q 176 960 176 972 l 178 781 z "},"Ȣ":{"ha":851,"x_min":99,"x_max":753,"o":"m 426 3 q 556 19 499 3 q 653 68 613 36 q 715 147 694 100 q 736 252 736 193 q 724 323 736 292 q 690 379 711 354 q 638 424 668 404 q 574 460 608 444 q 501 491 540 477 q 424 520 463 506 q 311 476 367 499 q 212 424 256 453 q 142 352 169 394 q 115 252 115 311 q 136 147 115 193 q 198 68 158 100 q 295 19 238 36 q 426 3 353 3 m 665 972 q 710 896 695 938 q 726 808 726 854 q 702 703 726 747 q 640 628 678 660 q 550 572 601 596 q 445 528 499 549 q 558 483 503 506 q 657 428 613 460 q 726 355 700 397 q 753 252 753 313 q 730 140 753 189 q 666 57 708 91 q 563 6 624 24 q 426 -11 502 -11 q 289 6 349 -11 q 185 57 228 24 q 121 140 143 91 q 99 252 99 189 q 125 354 99 312 q 195 428 151 397 q 293 482 238 459 q 406 527 349 505 q 302 571 352 547 q 212 627 251 594 q 149 703 173 659 q 126 808 126 747 q 141 896 126 854 q 188 972 156 938 l 194 972 q 199 969 198 972 q 196 960 201 967 q 157 893 172 931 q 142 808 142 854 q 166 708 142 750 q 230 634 190 665 q 322 579 270 603 q 427 535 373 556 q 532 579 481 556 q 622 634 583 602 q 685 708 662 665 q 709 808 709 750 q 694 893 709 854 q 653 960 678 931 q 650 969 648 966 q 656 972 651 972 l 665 972 z "}}}
